<?xml version="1.0" standalone="no"?>
<!DOCTYPE svg PUBLIC "-//W3C//DTD SVG 20010904//EN"
 "http://www.w3.org/TR/2001/REC-SVG-20010904/DTD/svg10.dtd">
<svg version="1.0" xmlns="http://www.w3.org/2000/svg"
 width="1998.000000pt" height="898.000000pt" viewBox="0 0 1998.000000 898.000000"
 preserveAspectRatio="xMidYMid meet">
<metadata>
Created by potrace 1.13, written by Peter Selinger 2001-2015
</metadata>
<g transform="translate(0.000000,898.000000) scale(0.100000,-0.100000)"
fill="#000000" stroke="none">
<path d="M16633 3045 c-14 -10 -24 -12 -28 -5 -9 15 -31 12 -50 -6 -11 -11
-20 -13 -26 -7 -11 11 -69 -11 -69 -26 0 -4 -9 -8 -20 -9 -60 -6 -58 -5 -49
-34 11 -40 -3 -42 -42 -7 -19 17 -28 27 -20 23 9 -4 12 -2 9 7 -3 8 -13 13
-22 13 -9 -1 -16 3 -16 9 0 7 -3 8 -10 1 -14 -14 20 -116 37 -109 9 3 7 -4 -4
-19 -10 -14 -26 -27 -37 -30 -10 -2 -15 -9 -11 -15 4 -8 12 -8 27 0 19 10 20
9 15 -10 -5 -22 4 -26 53 -22 l25 2 -25 -14 c-26 -14 -27 -15 -16 -61 6 -24 5
-28 -7 -18 -10 8 -17 8 -24 1 -8 -8 -11 -4 -10 15 1 16 8 26 17 26 13 0 13 1
0 10 -25 16 -33 11 -26 -14 4 -15 1 -26 -7 -29 -17 -7 13 -29 31 -22 10 3 12
-2 7 -18 -5 -20 -5 -20 8 -5 10 13 23 16 50 11 21 -3 37 -10 37 -14 0 -5 3 -8
8 -8 22 4 32 -3 32 -21 0 -13 -5 -18 -15 -14 -11 5 -15 -1 -15 -26 0 -17 4
-29 9 -26 5 3 9 -6 9 -19 0 -14 -4 -25 -9 -25 -5 0 -5 -8 -2 -17 5 -13 1 -12
-17 5 -13 12 -30 22 -37 22 -9 0 -11 5 -7 13 5 8 2 8 -9 -2 -9 -7 -17 -10 -17
-5 -1 5 -10 -2 -22 -16 -12 -14 -19 -18 -15 -8 3 9 -1 22 -9 28 -16 14 -17 9
-15 -45 1 -21 -1 -26 -7 -16 -8 11 -10 11 -15 0 -4 -12 -7 -11 -16 1 -6 8 -9
21 -6 28 3 7 -4 12 -16 12 -12 0 -23 -8 -26 -20 -3 -11 -14 -20 -24 -20 -11 0
-19 -5 -19 -11 0 -5 5 -7 10 -4 6 3 10 2 10 -4 0 -5 -4 -13 -10 -16 -5 -3 -10
-1 -10 4 0 6 -7 11 -15 11 -8 0 -15 7 -15 15 0 9 -6 12 -15 9 -8 -4 -15 -2
-15 4 0 10 54 26 80 23 12 -1 11 1 -2 9 -9 6 -15 16 -12 23 3 8 -4 13 -16 13
-13 0 -19 -5 -15 -14 2 -7 0 -10 -5 -7 -6 3 -10 15 -10 26 0 10 -6 19 -14 19
-8 0 -16 7 -20 15 -6 16 14 16 26 0 5 -6 8 -5 8 3 0 16 -24 42 -39 42 -5 0
-15 -8 -20 -17 -9 -16 -10 -16 -11 5 0 26 0 26 -52 10 -31 -9 -38 -16 -35 -30
3 -10 1 -15 -5 -12 -5 4 -8 17 -6 29 4 19 0 24 -22 27 -26 4 -28 -2 -21 -41 1
-3 7 3 14 13 12 16 13 16 13 -3 0 -11 -4 -17 -8 -15 -4 3 -8 -1 -8 -9 0 -19
-27 -30 -36 -15 -5 7 -2 8 6 3 10 -6 12 -2 8 16 -3 13 -9 32 -13 42 -6 14 -2
20 13 24 11 3 23 11 26 19 7 17 -6 18 -23 2 -11 -11 -13 -10 -7 5 3 10 6 24 6
30 0 7 4 6 10 -3 9 -13 10 -13 10 0 0 9 11 16 27 17 28 1 28 1 5 -11 -22 -12
-22 -13 -6 -27 15 -12 16 -12 9 0 -5 9 -4 12 3 7 5 -3 12 -3 15 1 2 5 2 2 1
-4 -2 -7 3 -13 10 -13 8 0 17 6 19 13 4 10 6 10 6 0 1 -9 8 -6 20 6 10 10 25
21 32 23 8 3 11 9 7 13 -4 4 -19 0 -33 -9 -27 -18 -61 -15 -50 5 4 6 13 8 21
5 7 -3 16 -1 19 5 4 5 10 7 15 4 5 -3 11 -1 15 5 3 5 2 10 -2 10 -5 0 -10 12
-11 27 -2 29 18 49 30 30 5 -8 8 -7 8 5 0 9 -4 20 -10 23 -5 3 -10 1 -10 -6 0
-8 -4 -8 -15 1 -9 7 -19 10 -22 6 -4 -4 -1 -11 7 -16 10 -6 11 -10 3 -10 -8 0
-10 -7 -6 -17 6 -17 5 -16 -15 1 -11 10 -27 16 -34 13 -9 -4 -8 -6 3 -6 17 -1
49 -32 49 -47 0 -5 -4 -3 -9 4 -7 11 -13 9 -30 -9 -11 -12 -21 -17 -21 -11 0
9 -6 10 -17 4 -10 -5 -29 -6 -43 -2 l-25 7 25 10 c17 7 27 7 31 0 4 -5 12 -6
19 -2 8 5 9 10 2 14 -6 4 -18 22 -27 41 -14 31 -15 32 -10 7 5 -24 4 -27 -9
-15 -7 7 -12 16 -9 21 2 4 -3 7 -12 7 -9 0 -13 -4 -10 -10 3 -5 1 -10 -4 -10
-6 0 -11 7 -11 15 0 8 -8 15 -17 15 -15 0 -16 -2 -3 -10 22 -15 -1 -11 -29 4
-15 8 -20 16 -12 20 15 10 14 26 -3 26 -7 0 -16 -11 -18 -25 -3 -14 -1 -25 4
-25 5 0 7 -4 4 -9 -6 -10 -61 13 -71 30 -9 14 38 29 48 15 6 -7 7 -4 3 7 -3
10 -6 23 -6 28 0 6 -5 7 -11 3 -7 -4 -10 -1 -7 7 3 8 10 15 16 15 7 1 17 2 22
3 6 0 10 5 10 9 0 5 -26 8 -57 8 -50 0 -54 -2 -30 -10 16 -6 27 -17 27 -28 0
-10 5 -18 12 -18 6 0 9 -2 6 -5 -9 -9 -38 7 -32 17 3 5 -8 2 -25 -6 -17 -9
-31 -12 -31 -6 0 5 -4 10 -10 10 -5 0 -10 -10 -10 -21 0 -17 5 -20 25 -17 14
3 25 1 25 -3 0 -5 0 -12 0 -16 0 -5 -6 -8 -12 -8 -7 0 -16 -4 -20 -10 -5 -6
-8 -5 -8 3 0 6 -4 12 -9 12 -5 0 -7 -9 -4 -20 4 -16 2 -19 -13 -14 -11 4 -24
11 -31 16 -7 6 -18 6 -24 2 -9 -5 -7 -11 6 -21 18 -13 18 -14 -7 -17 -7 0 -13
-6 -13 -13 0 -6 -4 -15 -9 -20 -5 -4 -6 13 -2 41 6 37 5 46 -5 41 -8 -5 -10
-4 -5 3 4 7 2 12 -3 12 -10 0 -13 -13 -14 -68 -1 -20 -5 -22 -38 -17 -34 5
-37 4 -42 -22 -3 -16 0 -31 6 -35 8 -5 6 -12 -8 -22 -11 -8 -22 -12 -25 -9 -3
3 1 8 8 10 20 7 14 23 -9 23 -11 0 -28 4 -38 10 -13 6 -24 5 -36 -4 -18 -13
-18 -14 3 -25 19 -10 21 -9 15 5 -4 12 -2 15 8 12 8 -3 13 -11 12 -17 -2 -6 3
-11 11 -11 8 0 13 -7 12 -15 -3 -19 -21 -20 -21 -2 -1 14 -27 10 -37 -6 -5 -8
-8 -5 -8 6 0 11 -9 26 -20 35 -21 17 -30 77 -16 101 6 9 -1 11 -31 5 -49 -9
-55 -14 -15 -14 29 0 47 -18 22 -21 -5 -1 -14 -2 -19 -3 -15 -2 -25 -16 -12
-16 7 0 9 -4 6 -10 -3 -6 1 -7 9 -4 9 3 16 1 16 -5 0 -6 -12 -11 -27 -12 -16
0 -22 -3 -15 -6 6 -2 10 -9 7 -13 -3 -5 -12 -7 -20 -3 -8 3 -15 1 -15 -5 0 -6
-9 -8 -20 -5 -20 5 -20 6 1 24 12 11 18 19 13 20 -5 0 -1 3 8 7 15 6 14 9 -8
19 -19 9 -24 9 -23 0 5 -38 -9 -48 -34 -23 -11 12 -15 11 -25 -5 -8 -12 -8
-19 -2 -19 5 0 10 4 10 10 0 5 7 7 15 4 8 -4 15 -13 15 -21 0 -8 -6 -13 -13
-10 -8 3 -18 -7 -24 -24 -11 -28 -10 -29 15 -28 15 0 21 3 15 6 -22 8 -14 28
13 29 18 2 24 -2 20 -13 -4 -10 -1 -13 14 -9 11 3 29 8 39 11 11 3 23 0 27 -6
5 -8 2 -11 -7 -7 -18 7 -59 -8 -59 -21 0 -6 7 -8 15 -5 8 4 15 1 15 -6 0 -6
-4 -8 -10 -5 -5 3 -10 0 -10 -7 0 -10 -2 -10 -9 1 -5 8 -14 10 -21 6 -9 -5
-11 -4 -6 3 4 7 3 12 -3 12 -5 0 -13 -5 -16 -10 -4 -6 -11 -8 -16 -5 -5 3 -6
-1 -3 -9 3 -9 11 -14 17 -13 6 1 13 -8 15 -20 2 -17 -1 -21 -12 -17 -10 4 -14
-1 -12 -18 4 -30 28 -68 44 -68 10 0 10 -3 0 -14 -11 -12 -13 -12 -16 1 -8 31
-26 4 -27 -40 -2 -35 1 -47 12 -47 8 0 11 -4 8 -10 -8 -13 -45 10 -45 28 0 7
-4 10 -10 7 -14 -9 -12 -33 3 -38 6 -2 0 -3 -15 -1 -16 2 -28 -1 -28 -7 0 -6
5 -7 10 -4 6 3 10 -1 10 -10 0 -11 5 -15 16 -11 12 5 14 1 9 -17 -6 -18 -5
-20 6 -9 7 6 21 12 31 12 10 0 18 6 18 13 0 7 9 13 20 14 11 1 20 -2 20 -8 0
-5 -6 -9 -13 -9 -7 0 -24 -11 -39 -25 -15 -14 -33 -25 -39 -25 -21 0 -1 -13
23 -15 37 -4 38 -4 38 -16 0 -5 -4 -8 -9 -5 -10 7 -20 -23 -14 -41 6 -18 23
-16 40 5 13 16 14 15 8 -5 -5 -18 -2 -21 13 -18 15 3 19 -1 15 -16 -6 -23 -12
-23 -37 -4 -22 17 -48 3 -39 -21 3 -8 0 -14 -6 -14 -6 0 -10 -3 -10 -7 4 -23
-3 -35 -16 -29 -18 7 -20 -15 -3 -32 9 -9 9 -12 0 -12 -7 0 -12 4 -12 8 0 5
-7 9 -15 9 -8 0 -15 -9 -15 -19 0 -11 -4 -16 -10 -13 -15 9 -12 -11 4 -24 17
-14 31 2 20 22 -5 9 -4 9 6 0 23 -21 19 -40 -9 -54 -31 -16 -41 -28 -35 -43 2
-6 -14 -21 -37 -34 -25 -15 -39 -29 -35 -37 3 -10 0 -12 -12 -8 -14 5 -15 3
-5 -7 10 -10 18 -11 37 -2 24 11 36 7 36 -11 0 -5 -7 -6 -16 -3 -8 3 -12 2 -9
-4 3 -6 2 -10 -4 -10 -6 0 -8 -7 -5 -15 7 -18 -21 -21 -32 -3 -5 7 -2 8 7 3
11 -6 12 -5 2 6 -21 21 -42 -5 -25 -31 17 -28 16 -30 -19 -30 -18 0 -28 -4
-24 -10 4 -6 11 -7 17 -4 8 5 9 1 5 -10 -4 -10 -7 -20 -7 -22 0 -3 -4 -2 -10
1 -6 4 -10 -8 -10 -29 0 -20 -4 -36 -10 -36 -5 0 -7 13 -4 29 6 29 -9 51 -21
31 -4 -6 -11 -7 -17 -4 -6 4 -8 1 -6 -7 3 -8 11 -13 17 -11 6 1 11 -2 11 -8 0
-5 -5 -10 -11 -10 -5 0 -7 -5 -4 -10 3 -5 1 -10 -5 -10 -7 0 -10 -6 -7 -14 3
-8 0 -22 -7 -32 -12 -16 -13 -15 -12 6 1 13 -5 25 -11 27 -7 3 -13 -3 -13 -12
0 -12 -6 -15 -22 -10 -20 5 -21 5 -5 -5 9 -6 14 -16 11 -22 -5 -7 -1 -9 9 -5
10 3 17 2 17 -2 0 -5 -17 -13 -37 -19 -35 -9 -35 -10 -10 -11 16 -1 38 4 49
10 18 10 20 9 15 -6 -4 -9 -7 -20 -7 -23 0 -4 -5 0 -10 8 -6 10 -10 11 -10 3
0 -7 -11 -13 -24 -13 -32 0 -56 -10 -56 -22 0 -6 6 -5 15 2 22 18 19 -6 -3
-28 -10 -10 -22 -27 -25 -37 -6 -15 -5 -16 7 -6 11 9 15 9 19 -1 2 -7 2 -3 0
10 -4 26 12 30 21 5 4 -10 -2 -26 -16 -41 -17 -18 -18 -24 -7 -19 12 4 18 -1
22 -19 2 -13 0 -27 -4 -30 -5 -3 -9 2 -9 12 0 14 -2 14 -16 3 -10 -8 -12 -15
-5 -17 7 -2 8 -14 5 -29 -5 -17 -3 -24 3 -20 6 4 14 0 17 -9 10 -25 24 -7 24
32 0 19 3 38 7 42 4 4 6 -5 3 -19 -3 -15 1 -38 9 -50 l13 -24 -2 24 c-2 13 3
26 10 28 7 3 10 -1 6 -11 -4 -10 -1 -16 9 -16 9 0 19 -5 23 -12 4 -7 3 -8 -4
-4 -7 4 -12 2 -12 -3 0 -11 15 -15 34 -12 5 1 3 -5 -4 -14 -15 -19 -5 -34 12
-17 21 21 29 13 13 -12 -12 -17 -22 -22 -38 -18 -20 5 -21 4 -7 -13 9 -11 10
-16 3 -11 -9 4 -13 1 -13 -9 0 -11 5 -15 16 -11 8 3 12 2 9 -4 -3 -6 5 -10 19
-10 17 0 26 6 26 16 0 8 5 12 11 8 6 -3 9 -15 6 -25 -3 -10 1 -23 9 -30 17
-14 19 -39 3 -39 -6 0 -9 6 -6 14 3 8 -2 21 -11 29 -18 15 -71 29 -73 18 -13
-69 -1 -95 39 -84 17 4 21 10 16 29 -4 14 -2 24 4 24 6 0 11 -8 11 -18 0 -15
6 -47 11 -62 1 -3 2 -9 1 -14 -1 -5 5 -4 13 4 12 9 16 9 16 1 0 -7 5 -9 13 -5
6 4 4 -2 -5 -13 -10 -11 -18 -25 -18 -31 0 -16 27 -15 33 1 4 9 6 9 6 0 1 -6
-3 -15 -9 -18 -15 -10 -12 -28 4 -22 8 3 16 1 18 -4 2 -6 12 -11 21 -13 10 -1
22 -8 27 -15 4 -8 13 -10 20 -6 9 6 11 4 5 -5 -4 -7 -2 -16 6 -21 12 -8 12
-11 -1 -19 -8 -5 -10 -10 -5 -10 6 0 16 5 21 10 8 8 18 4 35 -10 14 -12 18
-19 9 -18 -8 2 -14 -3 -12 -9 1 -7 -2 -13 -8 -13 -5 0 -10 5 -10 10 0 6 -12 9
-27 8 -24 -3 -28 0 -28 24 1 14 -4 24 -9 21 -5 -4 -7 0 -4 9 4 8 2 21 -3 29
-12 17 -7 -60 5 -79 4 -6 4 -12 -1 -13 -4 0 12 -6 37 -13 28 -7 44 -17 42 -25
-1 -7 3 -19 9 -27 9 -12 9 -13 -4 -8 -12 4 -14 1 -10 -18 4 -13 11 -26 17 -30
7 -5 7 -8 -2 -8 -7 0 -15 7 -18 15 -4 9 -14 14 -23 13 -10 -2 -17 5 -19 19 -2
15 2 23 12 23 16 0 31 18 22 27 -3 3 -12 1 -20 -6 -11 -9 -15 -8 -20 4 -5 13
-9 13 -26 3 -17 -11 -22 -10 -31 2 -8 11 -9 9 -3 -10 6 -22 5 -23 -10 -11 -10
8 -16 9 -16 3 0 -6 -6 -9 -14 -6 -8 3 -25 -5 -37 -17 l-22 -22 21 5 c29 8 34
-3 17 -34 -12 -25 -11 -27 16 -38 31 -13 39 -30 14 -30 -8 0 -15 5 -15 10 0 6
-5 10 -10 10 -6 0 -10 -7 -8 -16 2 -9 -6 -21 -17 -28 -11 -6 -22 -13 -25 -16
-27 -27 -38 -30 -54 -14 -22 21 -50 10 -43 -17 6 -20 -6 -22 -81 -10 -2 1 0 6
4 12 4 8 9 7 15 -2 7 -11 9 -10 9 4 0 12 -6 17 -17 15 -23 -4 -27 -48 -5 -48
8 0 12 -3 8 -7 -4 -5 -18 -8 -29 -8 -17 0 -21 -5 -19 -22 2 -13 -2 -23 -7 -23
-6 0 -11 7 -11 15 0 8 -9 15 -20 15 -17 0 -19 -3 -10 -19 14 -27 13 -31 -10
-31 -11 0 -20 5 -20 10 0 6 -5 10 -11 10 -8 0 -7 -5 2 -16 11 -14 10 -18 -6
-30 -17 -12 -17 -14 -2 -14 9 0 17 -7 17 -16 0 -10 -6 -14 -15 -10 -22 8 -18
-4 10 -30 30 -28 31 -34 6 -34 -11 0 -23 -4 -26 -10 -10 -16 -25 -12 -19 5 4
8 1 15 -5 15 -6 0 -11 -8 -11 -17 0 -13 -3 -14 -12 -5 -13 13 -29 16 -27 5 4
-26 -3 -42 -15 -37 -8 3 -17 1 -21 -5 -3 -7 2 -11 14 -11 11 0 23 -4 26 -10 3
-5 0 -10 -8 -10 -9 0 -14 -13 -15 -36 -1 -20 -7 -43 -13 -50 -9 -11 -9 -14 0
-14 7 0 9 -5 6 -11 -4 -6 -13 -8 -19 -6 -7 3 -21 -8 -30 -24 -14 -24 -15 -29
-2 -29 8 0 20 -14 28 -30 l13 -30 806 0 c799 0 807 1 802 20 -7 26 11 26 37 0
21 -21 46 -28 35 -10 -9 14 18 12 35 -2 12 -11 12 -10 2 2 -6 9 -10 25 -10 36
3 28 45 20 51 -10 2 -11 4 -2 3 20 0 40 -13 51 -33 29 -5 -4 -1 -5 7 0 8 5 12
4 7 0 -4 -5 -20 -9 -34 -10 -17 0 -27 -6 -29 -18 -4 -26 -12 -33 -25 -20 -7 7
-5 16 8 28 10 10 18 23 18 28 0 5 8 15 19 22 18 14 14 41 -5 29 -6 -3 -9 9 -7
29 1 20 7 34 15 34 10 0 10 -4 1 -14 -6 -7 -9 -15 -7 -17 6 -6 50 31 49 41 -3
16 18 13 24 -3 4 -10 -1 -25 -10 -35 -19 -21 -13 -24 17 -9 10 6 19 18 19 26
0 8 5 12 10 9 6 -3 10 -1 10 5 0 6 -13 16 -29 21 -20 7 -28 15 -24 25 3 8 9
14 15 14 5 0 6 -4 3 -10 -3 -5 -1 -10 4 -10 6 0 11 7 11 15 0 8 5 15 11 15 5
0 7 -4 4 -10 -3 -5 1 -10 9 -10 10 0 13 -6 9 -17 -5 -12 -2 -15 10 -10 15 6
16 4 6 -14 -6 -11 -8 -23 -5 -26 3 -3 8 2 12 11 3 9 10 16 16 16 5 0 7 -4 3
-9 -3 -5 -1 -12 5 -16 6 -4 10 5 10 22 0 20 3 24 9 14 7 -11 11 -9 20 8 8 14
8 21 1 21 -5 0 -10 -4 -10 -9 0 -19 -35 -3 -38 17 -2 12 -13 29 -25 38 l-22
16 23 -7 c16 -5 22 -2 22 10 0 12 -6 15 -21 10 -18 -6 -19 -5 -7 14 15 25 34
27 54 6 14 -14 11 -19 -9 -16 -5 1 -7 -4 -5 -11 3 -7 11 -13 19 -13 8 0 24 -6
37 -13 18 -10 22 -10 23 0 0 7 2 23 5 35 3 17 0 21 -11 16 -11 -3 -13 -12 -9
-27 6 -19 5 -19 -10 -7 -14 12 -15 16 -2 30 12 14 12 18 0 29 -8 7 -14 9 -14
4 0 -5 -7 -9 -15 -9 -16 0 -18 7 -9 31 8 20 30 21 38 1 3 -8 12 -12 21 -9 9 4
25 -2 35 -11 11 -10 20 -13 20 -7 0 6 -4 12 -9 14 -5 2 -12 21 -15 43 -5 36
-4 38 7 18 12 -22 13 -22 25 -3 16 26 15 30 -8 30 -13 0 -18 5 -14 15 5 13 8
12 22 -1 14 -15 17 -15 29 2 10 14 10 20 0 27 -8 6 -7 7 5 4 16 -6 42 16 44
37 0 6 2 16 2 22 1 6 14 16 28 22 15 8 22 17 18 25 -4 6 1 4 11 -5 21 -20 19
-25 -10 -30 -20 -3 -35 -16 -35 -31 0 -5 10 -5 22 -1 20 6 21 5 10 -9 -9 -10
-10 -17 -2 -22 5 -3 10 -12 10 -18 0 -8 -3 -8 -9 2 -5 8 -16 11 -30 6 -20 -6
-20 -25 0 -25 6 0 7 5 4 10 -3 6 -2 10 4 10 5 0 13 -5 16 -10 4 -7 13 -6 27 1
11 6 16 14 11 18 -11 7 -12 56 -1 67 4 4 15 1 23 -6 16 -13 75 -22 75 -11 0 3
-4 12 -9 20 -8 13 -12 13 -27 0 -10 -8 -15 -9 -11 -2 4 7 0 13 -10 16 -11 3
-8 5 10 6 15 0 27 6 27 11 0 6 -5 9 -11 8 -22 -5 -19 20 3 25 12 4 19 9 15 13
-4 4 1 16 10 27 13 15 15 21 6 24 -21 8 -14 26 7 20 16 -4 20 0 20 19 0 14 6
24 14 24 13 0 46 -41 46 -57 0 -4 -5 -1 -10 7 -9 13 -11 13 -20 0 -5 -8 -10
-11 -10 -5 0 5 -7 -1 -16 -14 -11 -14 -13 -26 -7 -30 6 -3 9 -19 7 -36 -2 -16
0 -24 4 -18 5 8 13 9 22 3 22 -14 40 -12 34 3 -3 8 5 18 18 25 21 10 21 11 3
11 -15 1 -17 3 -6 10 10 6 11 13 2 29 -13 25 -14 43 -1 22 7 -12 12 -12 22 -2
9 9 9 12 -1 12 -7 0 -9 5 -6 10 4 6 11 8 16 5 5 -4 9 -1 9 5 0 6 -12 8 -29 5
-17 -3 -33 0 -37 7 -5 8 -2 9 9 5 10 -4 17 -2 17 4 0 6 6 9 14 6 19 -8 12 64
-8 79 -16 11 -22 35 -8 33 25 -4 34 2 23 15 -7 8 -8 17 -3 20 15 9 20 -3 16
-42 -3 -32 -3 -34 6 -13 6 13 16 21 24 18 9 -4 13 4 14 25 1 33 12 51 19 31 3
-7 9 -13 14 -13 6 0 7 4 4 10 -3 6 -3 16 2 23 4 6 9 21 10 32 4 28 -37 32 -44
5 -3 -11 -9 -17 -14 -15 -4 3 -6 -8 -4 -25 4 -34 5 -33 -29 -21 -17 7 -26 7
-29 -2 -3 -9 -7 -9 -18 0 -17 17 -6 26 31 26 27 0 28 2 12 14 -9 8 -11 12 -4
8 7 -4 12 1 12 13 0 24 -23 35 -39 19 -6 -6 -11 -8 -11 -3 0 12 27 36 34 29 3
-3 1 9 -4 28 -13 44 -12 48 5 25 16 -21 99 -33 92 -13 -3 7 -10 11 -17 9 -11
-3 -11 0 -1 12 7 9 17 14 21 11 5 -3 11 1 13 7 3 8 6 6 6 -4 1 -10 8 -18 17
-18 9 0 14 -6 11 -12 -2 -7 -10 -12 -16 -10 -7 1 -10 -2 -6 -8 10 -16 35 -12
35 7 0 13 3 14 12 5 8 -8 8 -15 -2 -27 -11 -13 -10 -18 8 -31 12 -8 19 -21 16
-29 -5 -12 1 -11 28 3 30 15 31 17 10 20 -12 2 -20 8 -17 13 3 5 0 6 -8 3 -8
-3 -17 2 -21 11 -3 9 0 18 9 21 12 5 10 10 -10 26 -13 10 -24 22 -24 26 3 19
-2 25 -11 12 -8 -13 -10 -12 -10 3 0 9 -6 16 -12 15 -7 -2 -12 3 -10 10 2 11
-10 16 -30 13 -5 0 -8 8 -8 20 0 12 -8 23 -19 26 -10 3 -21 16 -24 29 -2 13
-3 24 -2 24 10 0 46 -42 54 -62 5 -13 16 -25 25 -25 32 0 2 55 -38 70 -9 4
-14 11 -11 17 3 5 -1 10 -9 10 -12 0 -14 7 -9 33 7 37 13 48 13 24 0 -9 9 -31
21 -49 12 -18 19 -25 15 -15 -3 10 0 17 8 17 8 0 16 7 20 15 4 10 -1 15 -15
15 -12 0 -18 -4 -13 -11 4 -7 1 -10 -7 -7 -15 5 -21 76 -7 84 4 3 8 -2 8 -10
0 -8 5 -18 12 -22 8 -5 9 -2 5 9 -7 18 31 67 52 67 7 0 9 5 6 10 -4 6 -10 8
-15 5 -5 -3 -11 -1 -15 5 -11 18 -23 2 -17 -25 5 -27 -12 -35 -22 -9 -3 8 -2
12 4 9 6 -3 10 -2 10 4 0 6 -8 15 -18 20 -19 10 -29 61 -12 61 6 0 10 -10 10
-22 0 -17 3 -19 9 -10 4 8 11 13 15 13 3 -1 15 8 26 19 11 11 16 20 11 20 -5
0 -17 -7 -25 -16 -9 -8 -16 -11 -16 -6 0 5 -12 9 -27 8 -24 -1 -28 -5 -26 -29
2 -24 0 -27 -13 -17 -11 10 -14 9 -14 -4 0 -13 -5 -16 -22 -11 -13 4 -30 13
-38 21 -12 12 -12 14 2 14 9 0 20 -5 23 -10 4 -6 11 -8 16 -4 13 8 -20 33 -43
34 -19 0 -24 15 -9 25 5 3 16 -2 24 -10 20 -19 53 -19 61 0 4 12 -3 15 -31 15
-44 0 -34 16 15 26 25 5 32 3 32 -10 0 -9 5 -16 10 -16 16 0 12 46 -5 60 -12
10 -15 10 -15 -4 0 -9 -4 -16 -10 -16 -5 0 -10 7 -10 15 0 19 32 33 38 17 2
-7 8 -12 13 -12 6 0 7 5 4 10 -3 6 -3 10 2 10 14 -1 50 -34 58 -55 6 -16 8
-17 13 -5 3 8 15 25 28 36 l23 22 -24 4 c-16 4 -22 1 -18 -8 6 -16 -37 -10
-47 7 -4 6 -18 9 -30 7 -13 -1 -25 3 -27 10 -3 7 1 10 10 6 8 -3 18 -1 22 5 3
6 1 11 -4 11 -6 0 -11 6 -11 13 0 8 -15 14 -37 15 -21 2 -46 5 -55 8 -12 4
-18 0 -18 -12 0 -13 -3 -14 -15 -4 -8 7 -28 10 -45 8 -19 -3 -31 0 -35 10 -3
8 -12 11 -20 8 -8 -3 -15 -1 -15 3 0 13 25 20 50 14 16 -4 18 -8 8 -14 -10 -7
-9 -9 5 -9 9 0 17 5 17 11 0 8 4 8 15 -1 19 -16 37 -3 30 23 -2 12 -2 16 1 10
4 -10 9 -9 21 2 17 17 33 20 33 5 0 -5 -4 -10 -9 -10 -5 0 -11 -8 -13 -18 -4
-15 2 -19 28 -20 19 -2 34 2 34 8 0 6 5 8 10 5 6 -3 10 -2 10 4 0 16 -22 24
-30 11 -5 -9 -10 -6 -15 11 -10 31 -23 39 -50 29 -26 -10 -45 4 -45 33 0 13
-5 17 -15 13 -8 -3 -15 -1 -15 3 0 5 -3 18 -7 28 -6 16 -5 16 10 4 19 -15 22
-8 7 19 -6 10 -6 21 -2 24 4 2 14 -9 21 -25 9 -22 19 -29 34 -27 11 2 22 9 25
16 2 7 -2 10 -12 6 -11 -4 -16 -1 -16 10 0 9 5 16 10 16 6 0 3 14 -6 31 -14
29 -14 33 0 47 11 11 16 12 16 4 0 -10 3 -10 14 0 11 11 11 15 -3 25 -14 11
-13 12 7 13 26 0 28 12 5 31 -15 12 -16 12 -10 -3 5 -14 1 -18 -14 -18 -11 0
-22 6 -25 14 -3 8 -12 12 -20 9 -8 -3 -14 1 -14 10 0 28 18 28 40 0 12 -16 19
-20 16 -10 -3 9 -1 17 5 17 6 0 8 4 4 10 -3 5 -12 7 -21 3 -9 -3 -14 0 -12 8
2 8 -7 15 -21 17 -17 3 -21 0 -16 -10 7 -11 5 -11 -6 0 -12 11 -12 14 1 22 13
8 12 10 -3 10 -16 0 -17 -5 -12 -32 4 -18 12 -38 17 -45 6 -8 4 -10 -10 -6
-22 5 -37 -11 -26 -29 5 -8 10 -7 18 3 14 18 57 23 53 7 -2 -12 -22 -27 -56
-44 -8 -4 -16 -3 -19 4 -2 6 -9 9 -16 6 -8 -3 -16 2 -19 10 -4 10 -1 16 8 16
8 0 15 5 15 11 0 5 -4 8 -9 5 -5 -3 -14 1 -21 9 -6 7 -18 11 -26 8 -8 -3 -14
-1 -14 4 0 5 10 9 21 10 26 2 33 8 24 23 -5 8 -11 8 -21 -1 -17 -14 -19 2 -3
18 9 9 7 11 -5 9 -10 -1 -22 -9 -27 -17 -5 -8 -9 -9 -9 -3 0 15 -52 25 -66 13
-14 -11 -37 -8 -84 13 -32 14 -36 14 -47 0 -7 -9 -13 -11 -13 -5 0 7 5 15 10
18 6 4 7 11 4 17 -7 11 37 1 46 -11 3 -3 13 -7 24 -8 12 -1 15 2 8 9 -8 8 -7
15 3 24 17 18 22 18 29 -2 4 -9 2 -13 -5 -8 -8 4 -9 -1 -4 -17 11 -34 15 -36
30 -15 8 10 18 16 22 13 5 -3 15 -1 23 4 13 8 13 10 0 19 -11 7 -11 10 -2 10
7 0 10 5 7 10 -3 6 -2 10 4 10 5 0 11 -12 13 -27 2 -14 10 -27 19 -28 12 -2
14 4 11 28 -3 17 -1 27 5 24 5 -3 9 3 9 13 0 10 -6 16 -13 13 -7 -3 -12 -8
-11 -11 3 -28 -5 -29 -27 -5 -13 15 -25 22 -25 15 0 -18 -40 -5 -61 19 -9 10
-19 16 -23 12 -11 -11 -7 -23 9 -23 8 0 15 -4 15 -10 0 -14 -4 -13 -45 11 -19
12 -34 26 -33 33 1 6 -3 21 -10 33 -10 19 -10 27 4 48 15 23 33 37 19 15 -3
-5 0 -10 8 -10 19 0 28 -23 17 -40 -9 -14 25 -48 37 -37 8 9 -7 28 -18 22 -5
-4 -9 -2 -9 4 0 5 4 12 9 15 12 8 44 -31 36 -43 -3 -6 -1 -19 4 -28 6 -10 11
-13 11 -7 0 7 14 10 35 7 40 -4 45 7 13 31 -17 13 -18 16 -5 12 12 -4 16 -2
11 5 -4 7 0 9 14 5 12 -4 23 -2 28 6 4 6 2 14 -4 16 -7 2 -10 8 -6 13 3 5 -2
9 -10 9 -8 0 -18 5 -22 12 -5 8 -2 9 9 5 10 -3 17 -2 17 3 0 6 -7 10 -15 10
-8 0 -15 4 -15 10 0 5 8 6 17 3 12 -5 15 -2 10 10 -4 12 1 17 20 19 15 2 28 9
31 16 2 7 -2 10 -12 6 -9 -3 -16 -1 -16 5 0 8 -7 7 -21 -3 -19 -13 -24 -13
-48 1 -17 11 -22 12 -13 3 21 -24 13 -31 -14 -13 -27 17 -27 17 -20 -7 7 -23
5 -22 -13 5 -12 17 -21 36 -21 43 0 6 -5 12 -11 12 -6 0 -9 -7 -5 -15 4 -11
-1 -15 -17 -14 -12 0 -16 3 -9 6 10 4 10 8 1 19 -9 11 -7 14 10 14 11 0 21 5
21 11 0 5 -4 7 -10 4 -6 -4 -10 5 -10 19 0 14 -4 26 -10 26 -5 0 -10 5 -10 11
0 6 9 9 20 6 24 -6 26 5 5 23 -8 7 -15 18 -15 24 0 6 4 5 9 -3 5 -8 16 -11 25
-8 9 4 20 -1 26 -11 9 -14 10 -12 6 10 -5 23 -2 27 21 31 l28 4 -27 2 c-15 0
-33 -5 -40 -12 -10 -11 -17 -11 -40 0 -37 19 -42 30 -18 38 11 4 18 11 15 16
-8 11 6 11 24 0 8 -5 11 -16 8 -26 -4 -9 -3 -14 3 -10 6 3 10 17 10 31 0 22 2
23 21 14 11 -7 23 -9 27 -6 3 3 0 6 -7 6 -8 0 -11 7 -7 15 4 12 -1 15 -22 13
-15 -1 -37 4 -49 10 -31 17 -41 15 -48 -8 -5 -15 -12 -19 -26 -15 -11 4 -19 2
-19 -6 0 -9 -4 -8 -15 1 -18 15 -9 34 12 25 13 -4 14 -3 4 9 -9 11 -9 16 0 21
6 5 9 20 5 39 -5 29 -5 30 9 12 17 -22 20 -61 5 -51 -11 7 -13 -6 -4 -30 6
-14 8 -13 21 5 11 16 22 20 39 16 12 -3 26 -2 29 4 3 5 1 10 -5 10 -6 0 -8 5
-5 10 3 6 -1 10 -9 10 -10 0 -13 6 -10 15 5 11 -1 15 -19 15 -17 0 -28 7 -32
20 -6 18 -8 18 -21 5 -18 -17 -28 -20 -19 -5 3 6 -1 13 -9 16 -16 6 -17 29 -3
52 11 17 28 15 21 -3 -5 -11 -1 -14 12 -9 18 5 18 5 2 -6 -24 -15 -23 -29 1
-23 11 3 22 12 25 22 3 9 4 3 3 -14 -2 -24 2 -31 21 -33 13 -2 26 -10 29 -18
3 -8 10 -14 17 -14 7 0 11 -14 11 -35 -1 -20 3 -39 8 -42 6 -3 7 -1 4 4 -4 6
2 13 13 16 22 6 54 -19 45 -34 -4 -5 -1 -9 4 -9 6 0 11 6 11 13 0 8 12 19 27
26 24 11 29 10 41 -6 11 -15 11 -18 -2 -21 -22 -5 -21 -41 1 -38 9 2 19 8 21
14 2 7 8 10 13 6 19 -11 8 19 -13 36 -13 10 -19 22 -15 26 4 5 12 2 16 -5 7
-10 10 -9 16 8 3 12 11 19 16 16 5 -4 9 -1 9 4 0 6 7 11 15 11 8 0 15 5 15 11
0 7 -11 8 -31 4 -24 -6 -30 -4 -26 6 2 8 10 13 16 12 6 -2 11 2 11 7 0 6 7 10
15 10 8 0 15 5 15 12 0 6 3 8 6 5 4 -4 1 -13 -6 -22 -10 -12 -10 -15 4 -15 23
0 20 -13 -9 -40 -14 -13 -23 -25 -21 -27 7 -8 56 40 56 55 0 8 6 12 14 9 8 -3
20 0 26 8 9 11 7 12 -11 8 -14 -4 -20 -2 -16 4 7 11 -11 32 -28 31 -5 0 -19
-7 -30 -14 -22 -16 -39 -18 -31 -5 13 20 -6 40 -35 37 -16 -2 -26 0 -24 4 7
11 -22 33 -35 25 -6 -3 -10 3 -10 17 0 13 -5 30 -10 38 -6 10 -8 3 -3 -22 4
-26 2 -38 -6 -38 -8 0 -10 8 -6 20 3 11 2 20 -3 20 -5 0 -12 14 -15 30 -4 20
-13 30 -24 30 -16 1 -16 2 1 12 15 9 22 7 33 -8 7 -10 14 -15 14 -11 1 4 2 11
3 17 0 5 10 16 21 24 26 20 16 21 -12 1z m-825 -208 c7 3 19 0 27 -7 8 -6 23
-9 35 -5 11 4 20 2 20 -4 0 -6 -7 -11 -16 -11 -11 0 -13 -6 -9 -19 3 -11 1
-22 -5 -26 -5 -3 -10 -14 -9 -23 0 -15 1 -14 8 2 7 18 8 18 25 0 18 -17 18
-18 0 -25 -11 -3 -22 -5 -26 -2 -5 2 -8 -1 -8 -6 0 -6 -9 -11 -20 -11 -18 0
-19 3 -9 21 10 19 9 20 -11 14 -15 -5 -20 -4 -16 4 4 6 4 17 -1 24 -4 6 -8 14
-8 17 -5 39 -35 68 -35 35 0 -9 -7 -18 -15 -21 -8 -4 -15 -10 -15 -16 0 -5 5
-6 10 -3 6 3 10 -4 10 -16 0 -18 -3 -20 -12 -11 -16 16 -45 15 -52 0 -4 -7 -4
-3 -2 10 2 12 0 22 -5 22 -5 0 -9 -6 -9 -12 0 -7 -5 -5 -11 5 -12 20 -6 47 10
47 6 0 8 -7 5 -15 -4 -10 0 -15 16 -15 11 0 18 -4 15 -10 -3 -5 -1 -10 5 -10
7 0 9 7 6 16 -7 18 11 47 24 39 4 -3 13 2 20 10 8 10 18 12 29 6 9 -5 22 -6
29 -4z"/>
<path d="M13900 245 c5 -7 7 -15 3 -19 -4 -4 6 -18 22 -31 24 -19 27 -26 18
-36 -10 -10 -9 -16 3 -30 10 -11 13 -25 9 -40 -4 -12 -10 -17 -14 -11 -3 6
-19 14 -34 17 -16 4 -27 14 -27 24 0 13 -8 17 -28 15 -30 -2 -70 21 -58 33 4
4 12 0 17 -10 6 -9 15 -15 20 -12 5 4 7 11 4 16 -4 5 -1 9 5 9 7 0 10 7 7 15
-4 8 -2 17 3 20 6 4 10 1 10 -5 0 -7 6 -5 15 4 21 21 19 24 -12 21 -44 -4 -73
-16 -73 -30 0 -17 -47 -16 -54 1 -3 8 -14 14 -24 14 -10 0 -23 5 -30 12 -9 9
-15 9 -23 1 -8 -8 -5 -14 11 -23 17 -9 19 -14 9 -26 -8 -10 -16 -11 -22 -5 -6
6 -15 5 -25 -5 -13 -13 -12 -17 4 -29 18 -14 17 -14 -8 -15 -14 0 -28 6 -31
13 -3 9 -7 9 -20 -1 -13 -11 -17 -10 -25 4 -8 15 -11 15 -32 -6 l-22 -22 23 7
c21 7 22 6 10 -8 -7 -9 -17 -15 -21 -12 -4 3 -11 -2 -14 -11 -3 -9 -13 -14
-20 -11 -8 3 -17 1 -20 -6 -2 -7 -5 -5 -5 4 -1 9 -10 26 -20 38 l-19 22 -16
-23 c-16 -22 -16 -23 14 -26 36 -4 40 -22 5 -22 -17 0 -28 -7 -34 -22 -7 -18
-8 -19 -14 -4 -4 10 -1 19 8 23 12 4 13 9 4 19 -9 11 -9 18 0 28 10 12 8 17
-8 26 -16 8 -21 8 -21 -1 0 -7 -9 -9 -21 -6 -22 6 -69 -31 -69 -54 0 -8 -4 -8
-15 1 -18 15 -20 40 -3 40 6 0 9 3 6 6 -4 3 -16 0 -28 -6 l-23 -12 26 -24 c14
-13 39 -24 54 -24 l28 -1 -25 -14 c-14 -7 -27 -10 -30 -7 -8 10 -51 15 -49 5
3 -20 -2 -25 -16 -13 -8 7 -24 10 -35 7 -11 -3 -22 -1 -25 4 -3 4 -12 6 -20 3
-7 -3 -24 0 -37 6 l-23 11 24 -21 c17 -15 27 -17 36 -10 9 8 14 6 19 -5 7 -18
32 -20 39 -2 4 8 6 9 6 0 1 -9 128 -12 524 -12 306 0 514 4 502 9 -17 7 -15 9
13 9 17 1 32 6 32 11 0 6 -4 10 -10 10 -5 0 -10 7 -10 15 0 8 -9 15 -21 15
-11 0 -17 -4 -14 -10 3 -5 2 -10 -4 -10 -5 0 -15 8 -20 18 -10 15 -12 15 -23
1 -18 -22 -49 -32 -41 -13 3 7 11 14 19 14 19 0 28 45 14 67 -11 17 -11 17 -6
0 4 -12 2 -16 -6 -11 -8 5 -9 2 -5 -9 5 -13 1 -17 -14 -17 -15 0 -19 -5 -15
-16 3 -9 2 -12 -5 -9 -6 4 -8 13 -5 21 3 7 1 16 -3 19 -5 3 -7 15 -3 28 5 20
4 21 -11 8 -15 -12 -17 -11 -17 3 0 9 -12 21 -26 26 -17 7 -24 15 -20 25 3 8
1 15 -4 15 -14 0 -22 -19 -14 -32 11 -17 12 -48 2 -42 -4 3 -8 12 -8 21 0 8
-11 24 -25 35 -14 11 -22 24 -19 30 4 7 9 7 13 -1 9 -14 63 0 69 18 3 10 0 11
-18 1 -14 -7 -25 -8 -29 -3 -3 6 -21 10 -38 10 -24 0 -30 -3 -23 -12z"/>
</g>
</svg>
