<?xml version="1.0" standalone="no"?>
<!DOCTYPE svg PUBLIC "-//W3C//DTD SVG 20010904//EN"
 "http://www.w3.org/TR/2001/REC-SVG-20010904/DTD/svg10.dtd">
<svg version="1.0" xmlns="http://www.w3.org/2000/svg"
 width="1920.000000pt" height="1080.000000pt" viewBox="0 0 1920.000000 1080.000000"
 preserveAspectRatio="xMidYMid meet">
<metadata>
Created by potrace 1.13, written by Peter Selinger 2001-2015
</metadata>
<g transform="translate(0.000000,1080.000000) scale(0.100000,-0.100000)"
fill="#000000" stroke="none">
<path d="M0 5400 l0 -5400 9600 0 9600 0 0 5400 0 5400 -9600 0 -9600 0 0
-5400z m17388 5123 l1772 -6 -1 -281 c0 -155 -4 -290 -9 -301 -6 -14 -9 9 -11
70 l-2 90 -6 -65 c-5 -55 -7 -61 -14 -36 -4 15 -6 58 -4 95 2 36 2 49 0 29 -3
-25 -9 -38 -19 -38 -10 0 -14 -12 -14 -40 0 -31 4 -40 17 -40 18 0 19 1 -41
-60 -13 -13 -33 -20 -58 -20 -21 0 -38 -4 -38 -10 0 -5 -18 -10 -40 -10 -38 0
-40 -2 -40 -30 0 -47 -20 -35 -22 13 -1 39 -1 39 -5 7 -7 -65 -13 -80 -33 -80
-11 0 -20 -4 -20 -10 0 -5 -18 -10 -40 -10 -32 0 -40 -4 -40 -18 0 -14 -7 -17
-40 -14 -22 2 -40 8 -40 13 0 5 -18 9 -40 9 -38 0 -40 -2 -40 -30 0 -28 2 -30
40 -30 33 0 40 -3 40 -20 0 -14 -7 -20 -21 -20 -51 0 -80 -47 -41 -69 14 -9
11 -10 -15 -11 -32 0 -33 -2 -33 -40 0 -36 -2 -40 -25 -40 -20 0 -25 -5 -25
-25 0 -22 -4 -25 -40 -25 -29 0 -40 -4 -40 -15 0 -8 7 -15 15 -15 11 0 15 -11
15 -40 0 -36 -2 -40 -25 -40 -14 0 -33 -4 -43 -10 -9 -5 -41 -19 -69 -31 -41
-17 -53 -26 -53 -43 0 -29 -56 -56 -115 -56 -48 0 -60 -13 -22 -24 21 -7 20
-8 -14 -24 -20 -9 -49 -32 -64 -49 -23 -28 -33 -33 -71 -33 -48 0 -114 -27
-114 -47 0 -7 17 -15 40 -19 34 -6 40 -10 40 -30 0 -20 -6 -25 -40 -30 -22 -4
-40 -12 -40 -19 0 -6 -18 -20 -40 -30 -39 -17 -40 -20 -40 -67 0 -26 5 -48 10
-48 6 0 10 -18 10 -40 0 -38 2 -40 30 -40 17 0 30 -4 30 -10 0 -5 -18 -10 -40
-10 -29 0 -40 -4 -40 -15 0 -11 -11 -15 -40 -15 -36 0 -40 3 -40 25 0 20 -5
25 -25 25 -22 0 -25 4 -25 40 0 36 3 40 25 40 23 0 25 4 25 40 l0 40 -40 0
c-34 0 -40 -3 -40 -21 0 -12 -11 -32 -25 -45 -14 -13 -25 -30 -25 -37 0 -19
-22 -27 -71 -27 -24 0 -39 -5 -39 -12 0 -13 -44 -38 -67 -38 -7 0 -13 -4 -13
-10 0 -5 -18 -15 -40 -21 -22 -7 -40 -16 -40 -21 0 -4 -7 -8 -15 -8 -11 0 -15
-11 -15 -40 l0 -40 -55 0 -55 0 0 -40 c0 -22 -4 -40 -10 -40 -5 0 -10 14 -10
32 l0 32 -31 -30 c-28 -27 -29 -29 -10 -32 17 -3 19 -7 11 -28 -15 -38 -12
-54 10 -54 16 0 20 -7 20 -35 0 -28 4 -36 24 -41 17 -4 22 -11 19 -25 -4 -14
0 -19 13 -19 11 0 25 -9 32 -20 7 -11 21 -20 31 -20 10 0 24 -7 31 -15 10 -12
6 -15 -29 -21 -31 -5 -41 -11 -41 -25 0 -11 -6 -19 -14 -19 -7 0 -27 -7 -42
-15 -16 -8 -44 -15 -62 -15 -64 0 -101 -34 -102 -92 0 -36 2 -38 30 -38 28 0
30 -2 30 -40 l0 -40 -40 0 c-23 0 -40 -5 -40 -11 0 -6 -7 -8 -16 -5 -15 6 -64
-20 -64 -34 0 -17 32 -19 56 -4 27 18 40 14 31 -11 -4 -8 -17 -15 -29 -15 -22
-1 -58 -21 -58 -33 0 -4 18 -10 40 -13 23 -4 40 -12 40 -19 0 -8 5 -15 11 -17
9 -3 9 -9 0 -25 -6 -12 -11 -65 -11 -117 0 -96 0 -96 25 -96 23 0 25 -3 25
-49 0 -41 -4 -53 -25 -69 -14 -11 -25 -25 -25 -31 0 -6 -17 -11 -40 -11 l-40
0 0 40 c0 29 -4 40 -15 40 -12 0 -15 -16 -15 -80 0 -64 3 -80 15 -80 11 0 15
-11 15 -40 l0 -40 -40 0 -40 0 0 -55 0 -55 -40 0 c-36 0 -40 -2 -40 -25 0 -14
-5 -25 -11 -25 -6 0 -20 -11 -31 -25 -11 -14 -25 -25 -33 -25 -7 0 -18 -7 -25
-15 -7 -8 -23 -15 -36 -15 -18 0 -24 -5 -24 -23 0 -13 -5 -28 -10 -33 -6 -6
-13 -53 -16 -105 -4 -84 -7 -96 -29 -116 -14 -12 -25 -27 -25 -33 0 -5 -18
-10 -40 -10 -36 0 -40 -2 -40 -25 0 -22 -4 -25 -40 -25 -29 0 -40 -4 -40 -15
0 -8 -4 -15 -10 -15 -5 0 -10 -18 -10 -40 0 -22 5 -40 10 -40 6 0 10 -4 10
-10 0 -5 -18 -10 -40 -10 -29 0 -40 -4 -40 -15 0 -11 -11 -15 -40 -15 l-40 0
0 -55 0 -55 -55 0 -55 0 0 -49 c0 -41 -4 -53 -25 -69 -14 -11 -25 -25 -25 -31
0 -6 -7 -11 -15 -11 -11 0 -15 -11 -15 -40 0 -36 -2 -40 -25 -40 -19 0 -25 -5
-25 -22 0 -12 -7 -30 -17 -40 -15 -17 -15 -18 0 -18 13 0 17 -9 17 -40 l0 -40
-40 0 -40 0 0 -40 0 -40 -55 0 -55 0 0 -40 c0 -36 -2 -40 -25 -40 -20 0 -25
-5 -25 -25 0 -22 -4 -25 -40 -25 l-40 0 0 -55 0 -55 -80 0 c-79 0 -80 0 -80
-25 0 -22 -4 -25 -40 -25 l-40 0 0 -55 0 -55 -40 0 c-29 0 -40 -4 -40 -15 0
-8 -4 -15 -10 -15 -5 0 -12 -11 -16 -25 -3 -14 -12 -25 -20 -25 -10 0 -14 -12
-14 -40 l0 -40 -50 0 -50 0 0 -40 0 -40 -40 0 c-34 0 -40 -3 -40 -22 0 -29
-28 -58 -57 -58 -20 0 -23 -5 -23 -40 0 -38 -2 -40 -30 -40 -28 0 -30 -2 -30
-40 l0 -40 -90 0 -90 0 0 -40 0 -40 -40 0 c-31 0 -40 4 -40 17 0 15 -1 15 -18
0 -10 -10 -28 -17 -40 -17 -16 0 -22 -6 -22 -22 0 -25 -27 -58 -47 -58 -9 0
-13 -13 -13 -40 l0 -40 -90 0 c-89 0 -90 0 -90 -25 0 -22 -4 -25 -40 -25 -36
0 -40 -2 -40 -25 0 -22 -4 -25 -40 -25 -29 0 -40 -4 -40 -15 0 -11 -11 -15
-40 -15 -36 0 -40 -2 -40 -25 0 -22 -4 -25 -40 -25 -29 0 -40 -4 -40 -15 0
-11 -11 -15 -40 -15 -29 0 -40 -4 -40 -15 0 -11 -11 -15 -40 -15 l-40 0 0 -50
0 -50 -40 0 c-29 0 -40 -4 -40 -15 0 -11 -11 -15 -40 -15 -29 0 -40 -4 -40
-15 0 -8 -4 -15 -9 -15 -17 0 -71 -61 -71 -81 0 -16 -7 -19 -40 -19 -29 0 -40
-4 -40 -15 0 -11 -11 -15 -40 -15 -29 0 -40 -4 -40 -15 0 -11 11 -15 40 -15
22 0 40 -4 40 -10 0 -5 -18 -10 -40 -10 -22 0 -40 5 -40 10 0 18 -25 11 -38
-10 -7 -12 -24 -25 -37 -30 -14 -5 -30 -21 -35 -35 -5 -13 -18 -30 -30 -37
-11 -7 -20 -23 -20 -35 0 -20 -5 -23 -40 -23 l-40 0 0 -40 0 -40 -40 0 c-28 0
-40 -4 -40 -14 0 -11 -14 -16 -47 -18 -41 -3 -50 -7 -61 -31 -7 -15 -22 -33
-33 -40 -10 -6 -19 -22 -19 -34 0 -22 -4 -23 -80 -23 -54 0 -80 -4 -80 -12 0
-20 -32 -48 -57 -48 -19 0 -23 -5 -23 -30 0 -28 -2 -30 -40 -30 -22 0 -40 -4
-40 -10 0 -5 -4 -10 -9 -10 -12 0 -71 -59 -71 -71 0 -5 -18 -9 -40 -9 -36 0
-40 -2 -40 -25 0 -22 -4 -25 -40 -25 -36 0 -40 -2 -40 -25 0 -22 -4 -25 -38
-25 -29 0 -40 -5 -47 -22 -6 -12 -23 -29 -40 -38 -22 -12 -31 -25 -33 -48 -3
-30 -6 -32 -43 -32 -28 0 -39 4 -39 15 0 19 -29 65 -41 65 -4 0 -16 -14 -26
-30 -14 -25 -24 -30 -55 -30 -21 0 -38 -4 -38 -10 0 -5 -18 -10 -40 -10 -36 0
-40 -2 -40 -25 0 -22 -4 -25 -40 -25 -29 0 -40 -4 -40 -15 0 -11 -11 -15 -40
-15 -22 0 -40 -4 -40 -10 0 -5 -18 -10 -40 -10 -28 0 -40 -4 -40 -14 0 -10
-22 -16 -80 -21 -44 -4 -80 -11 -80 -16 0 -5 -18 -9 -40 -9 -36 0 -40 -2 -40
-25 0 -22 -4 -25 -40 -25 -29 0 -40 -4 -40 -15 0 -11 -11 -15 -40 -15 -22 0
-40 -4 -40 -8 0 -5 -18 -15 -40 -22 -22 -7 -40 -17 -40 -22 0 -4 -18 -8 -40
-8 -22 0 -40 -4 -40 -10 0 -5 -18 -10 -40 -10 -29 0 -40 -4 -40 -15 0 -11 -11
-15 -40 -15 -22 0 -40 -4 -40 -10 0 -5 -18 -10 -40 -10 -29 0 -40 -4 -40 -15
0 -12 -16 -15 -80 -15 -47 0 -80 -4 -80 -10 0 -5 -18 -10 -40 -10 -38 0 -40
-2 -40 -30 l0 -30 -80 0 c-79 0 -80 0 -80 -25 0 -22 -4 -25 -40 -25 -29 0 -40
-4 -40 -15 0 -11 -11 -15 -40 -15 -36 0 -40 -2 -40 -25 0 -22 -4 -25 -40 -25
-29 0 -40 -4 -40 -15 0 -12 -16 -15 -80 -15 -62 0 -80 -3 -80 -14 0 -10 -22
-16 -82 -21 -90 -7 -158 -23 -158 -37 0 -4 -18 -8 -40 -8 -27 0 -40 -4 -40
-13 0 -8 -18 -22 -39 -32 -22 -10 -42 -23 -45 -30 -5 -14 -65 -13 -75 2 -10
16 -209 34 -344 31 -100 -2 -130 1 -137 11 -7 12 -15 11 -49 -3 -46 -18 -111
-22 -111 -6 0 6 -18 10 -40 10 -22 0 -40 -4 -40 -9 0 -4 -89 -10 -197 -13
-139 -3 -198 -8 -201 -16 -4 -14 -82 -17 -82 -4 0 5 -53 12 -117 15 -66 4
-119 11 -121 17 -5 13 -82 13 -82 0 0 -6 -33 -10 -80 -10 -47 0 -80 4 -80 10
0 6 -33 10 -80 10 -64 0 -80 3 -80 15 0 12 -16 15 -80 15 -64 0 -80 3 -80 15
0 11 -12 15 -49 15 -41 0 -53 4 -69 25 -11 14 -25 25 -31 25 -6 0 -11 9 -11
21 0 20 -3 21 -80 14 l-80 -7 0 26 c0 24 -4 26 -40 26 -29 0 -40 4 -40 15 0
11 -11 15 -39 15 -30 0 -40 4 -44 20 -3 11 -16 24 -29 30 -49 22 -83 47 -98
76 -14 25 -23 29 -63 32 -44 3 -47 5 -47 32 0 46 -31 99 -57 100 -18 0 -23 6
-23 25 0 14 -4 25 -10 25 -5 0 -12 17 -16 38 -4 20 -12 48 -17 62 -6 14 -17
68 -24 120 -26 200 -30 228 -36 236 -3 5 -17 63 -32 129 -41 188 -67 253 -121
301 -25 22 -76 56 -115 74 -41 20 -69 40 -69 49 0 9 -7 30 -16 46 -12 22 -16
62 -18 155 -1 125 -6 143 -45 192 -11 14 -25 16 -76 12 -34 -2 -75 0 -91 6
-19 8 -30 8 -32 1 -2 -5 -9 -8 -16 -5 -25 9 -44 -30 -50 -101 -11 -141 -18
-177 -43 -213 -13 -20 -31 -51 -39 -68 -13 -27 -28 -37 -104 -64 -48 -17 -97
-38 -108 -46 -12 -8 -34 -43 -51 -78 -37 -79 -121 -292 -121 -309 0 -7 -7 -30
-15 -52 -8 -22 -14 -54 -15 -71 0 -25 -6 -34 -30 -44 -16 -7 -30 -19 -30 -26
0 -8 -3 -14 -8 -14 -4 0 -12 -10 -17 -22 -14 -31 -63 -56 -112 -57 -31 -1 -43
-5 -43 -16 0 -12 -16 -15 -80 -15 -64 0 -80 -3 -80 -15 0 -13 -29 -15 -200
-15 -171 0 -200 2 -200 15 0 11 -11 15 -40 15 -29 0 -40 4 -40 15 0 11 -11 15
-40 15 -36 0 -40 3 -40 25 0 23 -4 25 -40 25 -29 0 -40 -4 -40 -15 0 -11 -11
-15 -40 -15 l-40 0 0 40 c0 30 4 40 16 40 14 0 14 3 4 15 -8 9 -30 15 -56 15
-32 0 -44 -4 -44 -15 0 -12 -16 -15 -80 -15 l-80 0 0 30 c0 28 -2 30 -40 30
-22 0 -40 5 -40 10 0 6 -29 10 -66 10 l-65 0 3 38 c2 23 8 36 16 34 8 -1 12
14 12 49 0 41 -5 58 -26 83 l-27 31 37 14 c39 15 48 31 17 31 -30 0 -35 19 -6
26 16 4 25 13 25 26 0 19 -5 20 -76 16 -42 -3 -79 -10 -83 -15 -6 -10 -75 -32
-128 -40 -21 -3 -33 -11 -33 -20 0 -12 -9 -14 -40 -10 -38 5 -55 -5 -27 -16
12 -5 1 -8 -42 -11 -11 0 -23 -4 -27 -9 -11 -11 -132 -9 -139 3 -3 6 3 10 14
10 12 0 21 7 21 15 0 11 -11 15 -40 15 -25 0 -40 5 -41 13 0 6 -5 0 -11 -15
-7 -21 -16 -28 -35 -28 -20 0 -24 4 -18 18 4 9 10 27 12 40 4 15 13 22 29 22
13 0 24 5 24 11 0 5 -4 8 -9 4 -20 -12 -22 18 -4 43 11 15 23 39 26 53 4 14
18 41 32 60 14 19 28 42 31 52 4 9 13 17 20 17 8 0 14 7 14 15 0 9 11 21 25
27 14 6 25 17 25 25 0 7 6 13 13 13 16 0 47 52 47 79 0 12 5 21 10 21 6 0 10
12 10 28 -1 27 -1 27 -18 -8 -11 -22 -26 -36 -40 -38 -16 -2 -22 -10 -22 -27
0 -32 -10 -55 -24 -55 -6 0 -22 -13 -36 -29 -13 -17 -27 -28 -32 -25 -4 3 -11
-2 -14 -10 -8 -21 -22 -20 -27 2 -2 9 -3 7 -2 -5 1 -13 -4 -28 -11 -34 -8 -6
-14 -22 -14 -35 0 -13 -5 -24 -10 -24 -13 0 -78 -57 -147 -130 -59 -61 -81
-60 -59 2 7 21 15 41 19 44 4 4 7 23 7 42 0 19 7 49 16 67 8 19 14 50 12 71
l-4 39 -17 -37 c-21 -45 -33 -54 -46 -31 -8 15 -10 11 -11 -19 0 -29 4 -38 18
-39 16 -1 16 -2 0 -6 -10 -2 -18 -11 -18 -19 0 -8 -4 -14 -10 -14 -5 0 -12
-11 -16 -25 -4 -18 -13 -25 -30 -25 -13 0 -24 -4 -24 -10 0 -5 -9 -10 -20 -10
-11 0 -20 4 -20 8 0 5 -7 9 -15 9 -8 0 -13 -3 -10 -5 13 -13 -21 -32 -56 -32
-56 0 -53 -28 4 -33 23 -2 -13 -4 -80 -5 -70 -1 -123 2 -123 7 0 5 -38 11 -85
13 -63 2 -85 0 -85 -9 0 -8 -14 -13 -35 -13 -28 0 -35 4 -35 20 0 19 -5 20
-120 13 l-120 -6 0 40 0 40 -117 6 c-64 4 -119 11 -122 16 -4 6 -26 -9 -50
-31 -52 -50 -74 -44 -79 21 l-3 41 -55 0 c-51 0 -54 -1 -54 -25 0 -22 -4 -25
-38 -25 -29 0 -39 5 -47 22 -7 15 -21 24 -40 26 -16 2 -32 7 -35 12 -5 8 -65
40 -75 40 -3 0 -5 -11 -5 -25 0 -14 -4 -25 -10 -25 -5 0 -10 18 -10 40 l0 40
-73 0 -74 0 5 -30 c5 -34 5 -34 -97 -24 l-61 7 0 38 c0 39 0 39 -40 39 -29 0
-40 4 -40 15 0 11 -11 15 -40 15 -33 0 -40 4 -40 19 0 16 -11 20 -80 26 -76 7
-80 8 -80 31 0 23 -3 24 -64 24 -44 0 -67 5 -76 15 -8 9 -30 15 -56 15 -40 0
-44 2 -44 25 0 23 -4 25 -40 25 -22 0 -40 -4 -40 -10 0 -5 -18 -10 -40 -10
-22 0 -40 5 -40 10 0 6 -36 10 -87 10 -84 0 -88 1 -120 32 -25 24 -33 28 -33
15 0 -24 -15 -21 -38 8 -11 14 -25 25 -31 25 -6 0 -11 7 -11 15 0 8 -9 15 -20
15 -11 0 -20 -7 -20 -15 0 -9 -9 -15 -25 -15 -23 0 -25 4 -27 43 l-1 42 -6
-45 c-22 -150 -29 585 -38 3618 -5 2108 -4 2455 8 2463 16 10 14684 12 17357
2z"/>
</g>
</svg>
