<?xml version="1.0" standalone="no"?>
<!DOCTYPE svg PUBLIC "-//W3C//DTD SVG 20010904//EN"
 "http://www.w3.org/TR/2001/REC-SVG-20010904/DTD/svg10.dtd">
<svg version="1.0" xmlns="http://www.w3.org/2000/svg"
 width="1920.000000pt" height="1280.000000pt" viewBox="0 0 1920.000000 1280.000000"
 preserveAspectRatio="xMidYMid meet">
<metadata>
Created by potrace 1.13, written by Peter Selinger 2001-2015
</metadata>
<g transform="translate(0.000000,1280.000000) scale(0.100000,-0.100000)"
fill="#000000" stroke="none">
<path d="M0 4166 l0 -4166 3381 0 c2987 0 3380 2 3375 15 -3 8 -9 22 -12 30
-3 8 -1 15 5 15 6 0 11 -7 11 -16 0 -13 9 -15 48 -12 26 2 54 6 62 9 9 2 16
-4 18 -18 l3 -23 317 1 c174 1 307 4 296 6 -12 2 -26 14 -32 26 -6 12 -11 17
-11 10 -1 -8 -8 -8 -31 0 -29 11 -41 27 -19 27 5 0 8 4 5 9 -10 15 68 -12 81
-29 7 -9 12 -10 13 -3 0 6 9 9 21 6 14 -4 17 -9 10 -16 -6 -6 -11 -17 -11 -24
0 -10 44 -13 210 -13 205 0 271 11 151 25 -69 8 -105 28 -81 45 12 9 11 10 -6
6 -11 -4 -38 0 -60 8 l-39 15 45 -4 c25 -2 50 -4 57 -4 6 -1 18 -7 26 -15 12
-13 71 -19 147 -17 18 1 21 4 13 12 -15 15 -5 39 14 39 13 0 13 -2 2 -17 -12
-15 -12 -16 4 -10 9 3 27 3 40 -2 30 -12 77 -2 77 15 0 10 -14 14 -47 14 -31
0 -43 3 -34 9 7 5 31 6 52 4 21 -3 46 -2 56 2 10 4 27 9 38 10 11 1 27 5 36 9
8 4 26 3 40 -3 l24 -9 -30 -7 c-66 -15 -66 -15 -51 -30 14 -15 83 -13 159 5
23 5 67 10 98 10 31 0 80 5 109 10 50 9 55 8 89 -17 20 -16 39 -28 43 -28 3 0
9 -3 13 -7 8 -8 -117 -10 -172 -2 -24 4 -41 9 -39 13 3 4 -4 7 -15 7 -10 0
-19 -3 -19 -7 0 -4 -15 -10 -33 -13 -19 -3 -44 -16 -58 -29 l-24 -22 55 -6
c30 -4 200 -7 378 -8 279 -1 322 1 322 14 0 8 5 15 11 15 5 0 8 4 4 9 -3 5
-22 7 -43 4 -33 -6 -36 -5 -24 10 8 9 11 20 8 25 -3 6 14 13 38 16 52 8 203
-4 186 -14 -8 -5 -6 -10 7 -15 26 -12 103 -15 103 -4 0 5 7 9 15 9 8 0 15 -8
15 -17 0 -11 3 -14 8 -7 11 17 198 19 219 2 7 -6 23 -12 36 -13 12 -1 28 -3
35 -4 27 -2 10 -17 -18 -15 -16 1 -30 -1 -30 -6 0 -4 27 -8 59 -9 44 -1 60 3
65 14 3 8 12 15 21 15 21 0 19 -17 -2 -23 -11 -3 -7 -5 10 -6 18 -1 27 4 27
15 0 13 15 15 104 12 57 -2 102 0 100 4 -2 4 1 10 7 14 7 4 9 3 5 -4 -3 -6 0
-17 9 -25 12 -13 79 -15 447 -16 247 -1 427 2 420 7 -8 5 -53 7 -102 5 -75 -3
-89 -1 -94 13 -6 14 -17 16 -79 10 -76 -7 -137 6 -137 28 0 7 16 13 38 14 93
6 151 21 202 51 l45 26 247 0 c137 0 248 -2 248 -5 0 -10 111 -2 156 10 36 10
71 10 197 -4 84 -9 175 -16 203 -16 27 0 93 -14 147 -30 69 -22 115 -30 159
-29 35 0 70 0 78 -1 8 -1 50 -1 94 0 50 2 81 -1 85 -9 8 -13 73 -17 119 -7 22
5 38 3 48 -5 10 -8 57 -14 137 -15 160 -3 253 -15 250 -32 -2 -8 13 -12 50
-12 42 1 48 3 34 11 -10 6 -27 9 -36 6 -10 -2 -18 1 -18 7 0 7 13 10 34 8 20
-3 33 0 33 7 0 13 -29 26 -115 52 l-60 18 50 -1 c44 0 129 -10 190 -22 11 -2
31 -5 44 -5 22 -1 23 -4 17 -41 l-6 -40 303 0 c188 0 307 4 313 10 7 7 68 7
184 0 178 -10 200 -7 200 27 0 9 -6 13 -15 10 -16 -7 -29 8 -20 22 3 6 17 6
36 -1 16 -6 28 -12 26 -15 -3 -2 5 -15 18 -29 l22 -24 264 0 264 0 0 33 0 32
85 7 c47 5 95 6 107 3 13 -3 25 -4 28 -3 3 2 15 -12 27 -30 16 -26 26 -33 45
-29 13 2 26 0 29 -4 7 -12 110 -11 154 0 19 5 60 12 90 16 30 3 58 9 63 14 4
4 72 6 150 4 206 -7 259 12 172 60 -44 25 -50 26 -198 22 -84 -1 -154 -4 -156
-4 -3 -1 4 -7 15 -15 18 -14 18 -15 -9 -25 -45 -17 -101 -13 -130 9 -14 11
-39 20 -55 20 -17 0 -43 5 -59 11 -26 10 -50 13 -170 17 -24 1 -43 5 -43 10 0
4 19 7 43 5 38 -2 37 -1 -11 8 -32 5 -60 5 -70 0 -22 -12 -114 -17 -130 -7 -7
4 -11 23 -10 42 2 31 5 34 24 30 14 -4 24 0 28 10 11 29 6 37 -21 31 -36 -7
-61 12 -69 51 l-6 30 63 -14 c121 -26 151 -26 280 0 74 16 154 26 199 25 41 0
69 -3 62 -6 -18 -7 -15 -40 6 -48 9 -4 117 -9 239 -11 123 -1 226 -5 230 -7 9
-5 316 9 348 16 12 2 20 12 20 23 0 24 -64 42 -157 43 -38 1 -68 5 -68 11 0
13 66 24 87 14 24 -10 293 -12 293 -2 0 4 9 8 20 8 28 0 25 18 -5 26 -14 3
-22 10 -19 15 3 5 11 6 17 3 8 -5 9 -4 2 4 -5 6 -23 14 -39 18 -25 6 -28 4
-23 -10 10 -26 -128 -20 -222 10 -41 13 -76 22 -79 19 -2 -2 -13 0 -23 6 -13
6 -25 6 -39 -1 -14 -8 -20 -8 -20 0 0 6 -4 9 -9 6 -5 -3 -31 -7 -57 -8 -27 -1
-74 -9 -105 -18 -31 -10 -62 -14 -70 -10 -26 15 -134 15 -125 1 3 -5 -3 -11
-14 -14 -11 -3 -23 -1 -26 5 -7 10 -67 6 -112 -8 -19 -5 -23 -3 -20 12 2 14
-6 20 -42 26 -55 10 -70 5 -70 -22 0 -11 -4 -20 -10 -20 -5 0 -10 9 -10 20 0
13 -9 22 -27 26 -22 6 -31 2 -54 -26 -24 -28 -33 -32 -63 -28 -20 2 -36 1 -36
-3 0 -9 -69 -23 -100 -20 -14 2 -42 12 -62 22 -20 10 -48 19 -62 19 -41 0
-133 23 -111 28 11 2 25 8 30 12 6 4 21 6 35 5 14 -2 37 -4 53 -4 17 -1 27 -6
27 -17 0 -8 5 -12 10 -9 6 4 7 11 4 17 -4 6 -1 9 7 6 8 -3 14 -11 14 -19 0
-18 149 -26 160 -9 4 7 1 10 -6 9 -8 -1 -21 0 -29 4 -8 3 -28 9 -45 13 -16 4
-33 8 -37 9 -5 2 -11 3 -15 4 -5 1 3 8 16 15 l23 13 -23 21 c-12 12 -28 23
-33 23 -6 1 -17 2 -25 3 -8 0 -16 6 -18 12 -5 16 244 11 311 -5 55 -13 218 -6
250 11 11 6 75 11 143 12 68 0 123 4 123 8 0 12 -31 38 -45 38 -7 0 -21 7 -30
17 -18 18 -107 27 -387 41 -86 4 -160 11 -164 15 -4 4 -3 12 3 18 7 7 53 7
156 0 80 -6 175 -11 211 -11 64 0 146 23 146 41 0 12 103 12 115 0 6 -5 57
-14 115 -20 98 -11 106 -10 120 7 9 12 40 24 80 32 36 6 72 18 80 25 8 8 51
17 95 20 75 6 220 31 238 42 4 3 3 11 -4 19 -10 12 -39 13 -162 9 -83 -3 -160
-8 -171 -10 -76 -17 -271 -23 -327 -11 -30 7 -40 5 -56 -11 -15 -15 -40 -21
-99 -26 -57 -5 -82 -12 -91 -24 -10 -13 -10 -19 -1 -24 21 -13 -136 -15 -187
-2 -32 8 -91 11 -162 8 -92 -4 -112 -2 -117 10 -5 15 -42 20 -70 9 -9 -3 -16
-17 -16 -31 0 -16 -7 -27 -20 -30 -11 -3 -20 -11 -20 -18 0 -22 -52 -25 -69
-4 -17 21 -64 27 -118 15 -32 -7 -51 -31 -30 -39 24 -9 -10 -28 -54 -30 l-44
-2 -9 88 c-8 73 -7 91 6 103 12 13 19 13 49 0 23 -9 40 -11 50 -6 7 5 23 7 34
4 16 -4 17 -3 5 5 -8 6 -29 11 -47 11 -42 0 -63 9 -63 27 0 9 -6 13 -15 9 -18
-7 -17 -20 -21 197 -1 98 -7 202 -13 230 -5 29 -10 86 -11 128 -1 68 1 77 18
81 34 9 92 123 101 197 5 36 5 72 1 79 -20 39 61 182 104 182 11 0 26 21 43
60 17 40 36 67 57 80 59 37 122 112 134 160 25 103 24 115 -24 205 -46 88 -51
109 -33 148 8 18 17 23 35 19 14 -2 24 0 24 7 0 6 -13 11 -29 11 -40 0 -43 17
-26 125 8 50 24 151 36 225 29 180 32 498 6 545 -9 17 -17 35 -17 42 0 6 -20
73 -44 150 -24 76 -58 190 -76 253 -17 63 -49 169 -69 235 -21 66 -46 146 -55
177 -9 32 -21 60 -26 63 -13 8 -47 85 -77 175 -42 126 -90 214 -149 272 -69
68 -110 90 -150 83 -19 -3 -43 1 -60 10 -16 8 -41 15 -56 15 -16 0 -28 5 -28
10 0 6 -11 10 -25 10 -14 0 -25 5 -25 10 0 6 16 10 35 10 19 0 35 5 35 10 0 6
-18 10 -39 10 -57 0 -185 105 -229 188 -31 60 -34 78 -47 275 -5 79 -20 122
-50 147 -9 8 -36 55 -59 104 -25 54 -62 113 -92 146 -184 204 -254 241 -419
220 -110 -13 -256 -67 -313 -115 -20 -17 -65 -49 -100 -70 -84 -51 -107 -87
-144 -217 -5 -20 -19 -46 -29 -57 -10 -11 -19 -26 -19 -33 0 -6 -15 -27 -32
-46 -29 -29 -33 -40 -34 -90 -1 -31 -7 -71 -12 -89 -10 -32 -9 -43 28 -168 7
-22 17 -46 22 -52 6 -7 7 -13 3 -13 -5 0 -1 -8 7 -17 19 -22 23 -136 8 -208
-6 -27 -15 -66 -19 -87 -4 -20 -18 -52 -29 -72 -16 -28 -18 -36 -7 -36 7 0 17
5 20 10 3 6 17 10 30 10 19 0 26 9 40 50 18 55 45 68 45 22 0 -31 -27 -131
-40 -147 -13 -16 -16 -98 -4 -102 6 -2 17 9 24 24 l14 28 4 -24 c2 -13 -2 -28
-10 -32 -8 -6 -9 -9 -1 -9 6 0 14 -18 18 -40 4 -22 10 -40 15 -40 4 0 25 -23
46 -50 22 -29 44 -48 51 -45 8 2 33 -10 57 -28 24 -17 51 -37 61 -43 15 -8 19
-25 21 -85 2 -73 -4 -88 -33 -89 -8 0 -13 13 -13 34 0 59 -15 86 -50 86 -30 0
-33 -4 -34 -50 -1 -22 -5 -25 -37 -22 -25 2 -41 -3 -54 -18 -10 -11 -22 -17
-26 -14 -17 10 -48 -7 -51 -29 -2 -17 -11 -23 -35 -25 -29 -3 -33 -7 -34 -35
-4 -117 29 -245 96 -375 36 -70 45 -96 36 -105 -15 -15 -14 -64 1 -74 7 -4 31
-15 53 -23 35 -14 42 -22 60 -71 11 -30 35 -80 53 -112 17 -31 32 -58 32 -60
0 -2 25 -29 55 -59 l55 -55 0 -147 c0 -139 -1 -150 -25 -190 -20 -35 -25 -55
-24 -107 1 -38 7 -74 16 -88 10 -15 13 -36 9 -60 -3 -20 -7 -65 -10 -101 -3
-36 -12 -82 -21 -103 -8 -21 -15 -52 -14 -70 0 -18 -4 -68 -10 -112 -6 -44
-10 -105 -10 -135 0 -30 -3 -100 -5 -155 -3 -55 -5 -135 -5 -179 -1 -43 -6
-85 -12 -92 -8 -10 -37 -14 -98 -14 -85 -1 -86 -1 -56 -17 18 -10 58 -17 100
-19 l70 -2 3 -93 3 -94 -46 -1 c-25 -1 -51 -6 -57 -12 -7 -5 -28 -7 -47 -5
-24 4 -29 8 -20 15 9 5 -27 8 -95 6 -77 -2 -111 -7 -114 -16 -2 -6 -9 -9 -15
-5 -7 3 -8 2 -4 -3 5 -5 61 -9 125 -9 64 -1 125 -6 135 -11 10 -6 42 -7 75 -3
33 3 62 2 70 -4 7 -5 12 -32 12 -63 0 -29 4 -63 9 -76 4 -13 11 -46 15 -74 l6
-51 -172 -3 c-95 -2 -201 -3 -235 -4 -35 -1 -63 -4 -63 -8 0 -5 12 -8 26 -8
14 0 23 -3 21 -7 -6 -10 49 -16 133 -16 36 1 83 1 105 0 22 0 75 0 117 1 77 1
78 0 84 -26 17 -82 37 -160 47 -179 13 -28 12 -29 -36 -36 -29 -5 -39 -2 -44
10 -3 8 -1 18 4 22 6 3 12 18 15 33 4 19 0 28 -12 31 -19 5 -44 -11 -48 -33
-2 -8 -8 -18 -13 -21 -16 -9 -59 2 -59 16 0 13 -49 39 -58 30 -3 -3 0 -5 7 -5
7 0 9 -4 6 -10 -3 -5 -16 -10 -28 -10 -22 0 -22 0 2 -19 l24 -18 -39 -7 c-22
-3 -50 -9 -63 -12 -20 -6 -22 -4 -17 13 11 34 -18 53 -85 55 -32 1 -67 2 -76
2 -10 1 -17 -5 -16 -11 2 -7 -3 -13 -11 -13 -8 0 -18 -5 -22 -12 -4 -7 -3 -8
4 -4 7 4 12 2 12 -3 0 -6 -7 -12 -15 -12 -8 -1 -19 -3 -25 -4 -5 -1 -15 -3
-22 -4 -8 -1 -5 -8 7 -20 15 -15 36 -21 83 -22 35 -1 80 -10 100 -20 46 -21
293 -36 337 -19 39 15 115 21 115 9 0 -5 -13 -12 -29 -15 -17 -4 -31 -14 -34
-25 -3 -13 -18 -20 -45 -25 -35 -5 -42 -11 -47 -35 -7 -29 -19 -37 -30 -20 -8
15 -106 23 -140 12 -16 -5 -22 -10 -12 -10 22 -1 22 -18 0 -24 -14 -4 -13 -5
4 -6 12 0 25 -6 28 -11 3 -6 19 -10 36 -10 16 0 29 -4 29 -9 0 -11 69 -5 106
10 14 5 29 7 34 4 14 -9 19 9 7 26 -7 9 -14 16 -17 16 -3 -1 -14 4 -25 11 -17
10 -18 11 -2 12 9 0 17 -4 17 -9 0 -9 48 -7 57 3 3 3 14 1 24 -5 15 -7 19 -6
19 5 0 19 32 37 47 28 14 -9 33 -56 33 -82 0 -17 -4 -18 -25 -10 -14 5 -25 6
-25 1 0 -11 -33 -9 -41 2 -3 5 -9 -1 -12 -13 -4 -17 0 -22 23 -27 19 -3 27
-10 23 -19 -3 -8 0 -14 6 -14 6 0 8 -7 5 -15 -4 -10 0 -15 14 -15 11 0 22 5
24 12 6 17 28 0 28 -23 0 -14 -7 -19 -25 -19 -14 0 -25 5 -25 10 0 13 -46 13
-69 0 -21 -11 -86 4 -97 22 -5 8 -2 9 10 5 12 -5 16 -2 14 11 -2 9 3 16 10 15
16 -4 16 14 0 19 -7 3 -29 1 -50 -2 -21 -4 -38 -3 -38 1 0 5 -6 9 -14 9 -9 0
-12 -7 -9 -18 3 -14 -1 -18 -24 -18 -17 1 -27 -4 -26 -11 2 -9 -9 -13 -32 -13
-27 0 -38 5 -44 22 -5 13 -10 17 -15 10 -3 -6 -2 -13 4 -17 5 -3 10 -11 10
-16 0 -6 -4 -7 -10 -4 -5 3 -10 2 -10 -3 0 -11 -135 -53 -180 -55 -19 -1 -38
-6 -42 -12 -13 -19 83 -30 187 -23 84 6 102 5 115 -8 14 -15 12 -15 -19 -9
-23 5 -31 4 -27 -4 4 -6 0 -11 -11 -11 -14 0 -12 -3 7 -14 31 -16 57 -4 66 29
5 21 12 25 48 26 22 0 55 2 71 3 17 2 38 -1 48 -6 10 -5 32 -10 49 -10 17 -1
39 -9 50 -20 22 -22 34 -23 42 -3 3 8 0 15 -7 15 -22 0 17 20 40 20 20 0 23
-5 22 -47 -1 -27 0 -52 1 -58 6 -27 -3 -31 -65 -27 -72 5 -138 -4 -130 -18 3
-4 -1 -11 -7 -13 -8 -3 -6 -6 5 -6 10 -1 17 -9 17 -20 0 -14 -10 -21 -37 -26
-21 -4 -44 -11 -50 -17 -9 -7 -20 -6 -38 6 -14 9 -57 19 -100 23 -53 4 -75 10
-75 19 0 21 46 28 108 14 43 -8 64 -9 86 0 25 9 27 13 15 24 -8 7 -39 22 -69
33 -46 17 -66 19 -120 12 -36 -5 -119 -9 -186 -9 l-121 -1 5 -24 c4 -25 31
-42 41 -27 9 14 69 25 83 15 7 -4 15 -8 18 -8 17 -2 42 -24 36 -34 -17 -26
-176 -3 -195 28 -5 7 -14 11 -21 9 -8 -2 -16 5 -18 16 -2 11 0 16 7 12 7 -5
11 3 11 20 0 21 4 25 20 21 11 -3 18 -1 15 3 -3 5 8 11 25 15 21 5 30 12 30
27 0 18 -6 19 -62 16 -50 -2 -63 0 -63 12 0 18 -65 26 -91 12 -13 -7 -11 -11
13 -20 15 -6 41 -13 56 -16 15 -4 25 -11 22 -16 -3 -6 1 -7 9 -4 9 3 16 2 16
-2 0 -13 -16 -36 -24 -35 -27 4 -37 -1 -34 -16 2 -11 11 -17 21 -15 20 3 23
-16 4 -24 -8 -3 -32 -6 -55 -7 -32 -2 -38 0 -30 10 8 10 6 13 -6 13 -9 0 -16
7 -16 15 0 11 -11 15 -36 15 -22 0 -33 -4 -29 -10 4 -7 -6 -10 -29 -8 -25 1
-40 -3 -49 -16 -14 -19 -98 -25 -215 -15 -124 12 -78 40 64 40 30 0 54 4 54 8
0 8 -27 12 -165 26 -33 4 -75 11 -92 16 -18 6 -37 8 -42 4 -6 -3 -15 4 -21 15
-6 11 -8 21 -5 21 3 1 9 2 14 3 5 0 13 4 17 9 11 11 33 9 69 -9 38 -18 156
-16 162 3 2 6 -4 14 -14 17 -17 5 -166 7 -258 4 -22 -1 -61 1 -87 4 -26 3 -45
1 -42 -3 3 -5 -2 -9 -12 -9 -13 0 -14 -3 -5 -14 14 -16 4 -25 -21 -21 -10 2
-18 -1 -18 -7 0 -5 -7 -2 -17 7 -14 14 -14 18 -2 27 9 6 -11 8 -65 4 -45 -2
-82 -10 -86 -16 -6 -9 -9 -9 -11 -1 -5 13 -43 19 -168 25 -96 5 -116 10 -105
28 5 8 1 9 -12 5 -18 -7 -18 -7 0 8 22 16 86 19 154 6 48 -9 61 -2 31 19 -10
8 -19 17 -19 21 0 12 126 9 200 -5 41 -8 109 -20 150 -26 41 -6 102 -16 135
-22 67 -12 195 -3 195 14 0 6 -8 17 -17 25 -16 12 -10 13 42 7 33 -4 65 -9 70
-12 31 -19 195 -29 195 -13 0 7 11 9 25 7 13 -3 27 -1 29 3 3 4 19 7 36 6 21
-1 34 4 41 17 10 19 8 21 -41 32 -16 3 -38 -2 -57 -14 -30 -18 -37 -18 -120
-5 -105 16 -216 26 -334 29 -47 1 -91 6 -98 10 -7 5 -34 8 -59 8 -26 -1 -76 8
-111 18 -96 30 -340 39 -414 16 -30 -10 -63 -27 -74 -38 -10 -12 -12 -18 -5
-14 6 4 12 3 12 -3 0 -5 29 -13 65 -16 36 -4 65 -10 65 -14 0 -12 -45 -10 -97
5 -28 8 -63 12 -77 8 -16 -4 -35 -1 -49 9 -12 8 -43 18 -67 21 -87 14 -100 18
-100 33 0 9 6 13 15 10 8 -4 17 -2 20 3 12 20 -72 16 -94 -4 -20 -18 -38 -21
-43 -6 -2 6 -21 13 -42 17 -37 6 -38 5 -26 -16 22 -42 22 -69 -1 -84 l-21 -15
23 -7 c13 -5 53 -7 89 -5 177 8 324 -3 317 -24 -2 -6 -38 -13 -83 -16 -69 -4
-76 -7 -57 -17 12 -7 42 -13 68 -13 31 0 47 -5 51 -15 4 -9 19 -15 38 -15 45
0 77 -11 69 -23 -4 -7 8 -8 38 -3 70 12 133 16 151 10 17 -5 19 -38 4 -62 -4
-7 -1 -12 7 -12 18 0 30 27 16 36 -7 4 -6 10 0 18 6 7 8 15 5 18 -2 3 2 8 11
12 9 3 13 2 10 -4 -3 -6 5 -10 19 -10 14 0 28 -5 32 -12 5 -7 3 -8 -7 -3 -11
7 -12 6 -2 -7 7 -8 10 -18 6 -21 -3 -4 3 -7 15 -7 11 0 23 -4 26 -9 3 -5 25
-4 52 1 38 8 48 7 65 -8 18 -16 19 -16 19 4 0 16 8 22 39 27 21 3 55 3 74 0
31 -6 36 -11 39 -39 2 -24 11 -35 38 -49 l35 -18 -40 2 c-22 2 -45 6 -51 11
-14 10 -111 31 -141 30 -13 0 -23 5 -23 10 0 6 -6 6 -14 -2 -8 -6 -23 -10 -33
-9 -10 1 -26 -1 -36 -6 -10 -4 -23 -2 -31 4 -16 13 -86 5 -86 -10 0 -5 15 -9
34 -9 19 0 37 -4 41 -10 3 -5 12 -7 20 -3 10 3 15 -2 15 -16 0 -23 15 -29 23
-8 4 9 6 9 6 0 1 -7 -11 -20 -25 -30 -25 -16 -29 -16 -75 0 -27 10 -78 18
-114 18 -44 1 -65 5 -65 13 0 6 -8 12 -17 13 -68 6 -135 14 -177 19 -43 6 -48
4 -43 -10 6 -14 0 -17 -37 -15 -30 2 -49 -3 -60 -14 -15 -15 -42 -16 -249 -11
-127 3 -233 7 -235 9 -2 2 -1 9 3 15 4 6 35 10 80 9 77 -2 95 3 95 27 0 8 10
14 26 14 16 0 23 4 18 12 -4 6 -3 8 4 5 14 -9 43 3 36 14 -3 5 2 6 11 2 10 -3
13 -8 6 -12 -15 -10 0 -26 38 -39 33 -12 80 -16 54 -5 -24 9 -13 22 27 33 22
6 40 15 40 20 0 6 7 10 15 10 8 0 15 4 15 9 0 5 -24 9 -52 9 -53 -1 -135 9
-149 18 -4 2 -10 -5 -14 -16 -5 -15 -15 -20 -40 -20 -28 0 -33 -3 -28 -17 4
-11 3 -14 -5 -9 -7 4 -12 2 -12 -6 0 -8 -3 -9 -8 -3 -4 6 -40 10 -80 10 -62
-1 -71 1 -56 12 9 7 22 9 28 6 6 -4 5 1 -2 9 -10 12 -20 14 -35 8 -12 -4 -21
-13 -20 -19 7 -30 -138 -52 -212 -31 -55 16 -75 4 -46 -27 26 -28 20 -29 -114
-32 -146 -4 -156 -5 -182 -19 -12 -7 -28 -10 -35 -7 -18 7 -42 -10 -34 -24 4
-6 12 -9 17 -6 5 4 17 1 26 -4 16 -9 15 -11 -7 -13 -14 -1 -56 -3 -95 -4 -38
-1 -104 -7 -145 -13 -125 -20 -162 -22 -156 -6 7 19 -52 30 -102 20 -44 -9
-89 -9 -117 -1 -11 3 -40 11 -65 18 -25 7 -47 15 -50 18 -3 3 -16 6 -30 7 -69
6 -124 13 -128 18 -3 2 7 9 22 14 32 13 34 31 4 32 l-23 0 23 11 c12 6 22 17
22 24 0 10 6 11 23 5 47 -19 62 -24 70 -23 4 1 5 -11 2 -27 -6 -36 0 -38 95
-35 66 2 73 1 56 -11 -18 -13 -17 -14 5 -19 57 -13 74 -10 94 11 16 17 33 23
80 25 52 3 85 15 85 32 0 2 -16 10 -35 16 -63 21 -39 39 60 46 62 4 126 16
205 39 31 9 51 10 64 3 13 -7 21 -7 25 1 11 18 96 20 130 3 36 -17 41 -33 9
-27 -45 9 -221 7 -227 -3 -3 -5 -13 -8 -21 -7 -8 1 -20 -3 -27 -10 -10 -11 -4
-16 27 -29 48 -19 145 -13 210 12 29 11 33 12 60 12 14 0 18 5 13 16 -5 14 -1
16 28 10 24 -4 41 -1 58 10 17 12 42 16 94 15 62 -2 69 0 57 14 -11 13 -8 15
21 16 50 3 188 0 235 -4 35 -4 118 15 134 30 11 10 -28 22 -57 17 -26 -5 -38
-1 -65 25 -39 36 -54 38 -76 11 -17 -20 -43 -24 -136 -21 -48 1 -48 1 -44 31
5 34 -13 41 -38 15 -18 -17 -50 -20 -59 -5 -3 5 3 10 14 10 12 0 21 4 21 9 0
12 -44 22 -63 15 -18 -6 -30 -32 -21 -45 3 -5 0 -9 -5 -9 -6 0 -11 7 -11 15 0
12 -16 14 -97 9 -54 -3 -114 -9 -133 -14 -19 -5 -61 -11 -93 -13 -33 -2 -62
-9 -66 -15 -9 -15 -72 -12 -78 4 -3 8 -9 11 -14 8 -5 -3 -19 2 -31 10 -29 20
-62 22 -36 2 10 -7 15 -16 11 -19 -6 -6 11 -11 29 -8 4 0 5 -6 2 -14 -4 -8
-11 -12 -18 -8 -6 3 -3 -3 7 -14 23 -26 22 -33 -5 -33 -13 0 -41 -9 -63 -19
-23 -10 -66 -21 -97 -25 -31 -4 -62 -13 -68 -21 -6 -8 -18 -11 -26 -8 -8 3
-14 0 -14 -7 0 -6 -5 -8 -12 -4 -8 5 -9 2 -4 -11 9 -26 -13 -36 -39 -19 -24
16 -115 15 -127 -1 -4 -6 -8 -2 -8 8 0 9 7 17 15 17 8 0 15 5 15 10 0 6 7 10
15 10 8 0 15 5 15 10 0 6 1 13 3 16 1 3 -27 8 -63 10 -202 11 -252 16 -275 28
-14 7 -21 16 -17 21 4 4 -3 4 -15 1 -13 -4 -23 -3 -23 2 0 5 21 13 48 17 26 4
55 11 65 17 24 12 227 11 262 -2 19 -7 24 -7 19 1 -3 6 0 15 7 20 11 7 10 9
-3 9 -10 0 -18 5 -18 10 0 6 -7 10 -15 10 -8 0 -14 3 -14 8 6 37 -57 66 -178
84 -85 12 -85 12 -105 -11 -10 -14 -31 -25 -46 -26 -15 -1 -57 -5 -94 -10 -51
-6 -68 -5 -68 4 0 7 -4 10 -9 6 -5 -3 -12 -1 -16 5 -10 16 -30 12 -55 -10 -17
-15 -38 -20 -84 -20 -33 0 -83 -2 -109 -3 -27 -1 -51 1 -54 6 -2 4 12 7 32 7
20 0 34 4 30 9 -10 18 -52 6 -80 -21 -15 -16 -31 -28 -36 -28 -5 0 -6 -7 -3
-15 5 -11 -1 -15 -20 -15 -14 0 -26 -4 -26 -9 0 -9 34 -21 60 -21 12 0 12 2 2
9 -10 6 -8 10 8 14 17 4 20 2 16 -10 -6 -13 -4 -14 10 -3 13 12 17 11 25 -1 5
-8 9 -10 9 -6 0 4 10 2 23 -5 12 -6 55 -14 96 -17 51 -4 76 -10 79 -20 3 -8 0
-11 -7 -7 -6 4 -11 3 -11 -2 0 -13 -53 -22 -64 -11 -6 5 -34 9 -62 9 -29 0
-55 4 -58 9 -3 4 -38 9 -78 9 -40 1 -97 6 -127 12 -29 5 -82 10 -116 10 -60 0
-64 2 -111 45 l-49 46 -70 -5 c-84 -6 -75 -4 -75 -15 0 -5 14 -12 30 -16 21
-5 30 -13 30 -26 0 -17 -3 -18 -20 -7 -16 10 -22 10 -32 -1 -11 -12 -10 -13 5
-8 11 4 17 1 17 -9 0 -12 -4 -12 -20 -4 -11 6 -20 14 -20 18 0 4 -14 13 -30
21 -34 14 -148 17 -317 6 -85 -5 -103 -4 -103 8 0 11 -14 14 -56 13 -32 0 -48
-3 -37 -7 23 -10 21 -10 -62 -13 -38 -1 -82 3 -97 8 -19 7 -34 6 -50 -1 -27
-14 -92 -12 -96 2 -2 6 13 15 33 20 35 10 36 11 17 28 -15 14 -25 16 -46 7
-17 -6 -24 -14 -20 -22 5 -8 -2 -9 -24 -5 -22 5 -32 3 -32 -6 0 -8 -3 -7 -9 3
-6 8 -8 17 -5 21 5 8 -74 10 -99 3 -14 -5 -16 -9 -6 -20 6 -8 10 -14 8 -15
-36 -8 -59 -8 -59 0 0 5 6 12 13 15 9 5 9 7 -1 12 -7 3 -19 13 -28 22 -12 11
-18 12 -23 3 -4 -6 -30 -13 -58 -14 -45 -2 -54 1 -72 25 -24 30 -112 60 -170
58 -64 -3 -82 -1 -75 11 10 16 173 6 212 -13 23 -12 53 -15 116 -13 86 4 129
-7 147 -36 4 -7 18 -14 31 -15 31 -4 175 15 215 27 101 31 262 44 270 22 6
-16 39 -17 48 -2 9 14 120 6 160 -12 66 -28 125 -18 75 13 -11 7 -20 17 -20
21 0 12 107 -2 149 -19 36 -15 144 -17 135 -2 -3 4 -13 8 -22 8 -23 0 -86 23
-103 37 -8 6 -25 14 -39 18 -14 4 -44 16 -67 26 -27 12 -71 20 -120 22 -43 2
-82 4 -88 6 -5 2 -27 3 -47 2 -31 -1 -38 -5 -38 -22 0 -11 5 -17 10 -14 6 3
10 1 10 -4 0 -14 -27 -14 -128 3 -70 11 -89 11 -123 0 -22 -8 -45 -12 -50 -9
-5 4 -9 1 -9 -4 0 -6 -9 -11 -20 -11 -11 0 -20 -5 -20 -10 0 -12 -36 -7 -105
15 -27 9 -79 18 -115 20 -202 11 -297 25 -321 46 -12 11 -30 19 -40 19 -19 0
-35 17 -25 27 3 4 24 1 47 -6 23 -7 78 -18 122 -25 69 -11 86 -11 116 1 31 13
145 12 224 -3 9 -1 17 1 17 5 0 5 23 9 51 10 29 0 57 5 63 10 7 6 18 6 26 1 7
-4 23 -5 35 0 11 4 51 6 87 3 36 -3 83 -2 104 2 34 6 37 8 22 19 -10 7 -14 17
-10 21 4 5 2 5 -4 2 -7 -4 -29 -1 -50 7 l-39 14 75 1 c90 1 148 -14 177 -47
12 -13 27 -21 32 -17 6 3 17 3 24 -2 19 -12 37 -12 37 -1 0 6 -7 8 -15 4 -9
-3 -15 0 -15 9 0 8 -7 15 -15 15 -8 0 -15 5 -15 11 0 8 61 10 205 7 180 -3
204 -1 199 12 -4 8 -7 21 -7 27 0 7 -15 18 -33 25 l-33 12 26 13 c36 19 80 16
102 -6 14 -14 41 -21 105 -26 85 -7 85 -7 63 -26 -19 -16 -20 -20 -7 -29 11
-7 4 -10 -30 -10 -43 -1 -91 -23 -77 -36 3 -4 68 -5 144 -4 188 3 207 4 214
13 10 13 235 7 258 -7 20 -13 12 -26 -16 -26 -16 0 -34 -4 -41 -9 -17 -10 6
-17 93 -27 33 -3 62 -9 65 -13 3 -3 21 -4 40 0 19 3 31 7 25 8 -5 1 -3 6 5 11
8 5 50 10 93 10 l77 0 -6 -27 c-4 -22 -3 -25 5 -13 8 11 11 11 11 2 0 -9 11
-11 38 -8 20 3 46 5 57 6 l20 1 -20 9 c-21 9 18 13 138 12 43 0 57 4 57 15 0
8 5 11 10 8 6 -3 10 -2 10 3 0 4 9 18 20 30 11 12 19 27 18 34 -2 10 18 13 82
12 84 -1 111 -5 181 -26 26 -7 42 -7 55 1 21 11 24 10 -38 15 -7 1 -19 6 -25
13 -7 6 -35 14 -63 18 -33 5 -54 13 -60 25 -13 24 11 30 131 30 78 0 99 3 115
18 11 10 24 17 29 15 6 -1 17 2 25 8 11 8 12 12 2 16 -6 2 -9 10 -5 16 5 8 2
8 -8 0 -18 -15 -51 -16 -141 -7 -50 5 -69 11 -73 23 -7 23 -93 29 -101 7 -3
-8 -14 -18 -23 -21 -13 -4 -16 -14 -13 -41 l4 -35 -33 13 c-19 8 -52 15 -74
17 -22 1 -44 6 -48 11 -5 4 -41 1 -80 -6 -39 -8 -110 -13 -158 -11 -58 1 -94
-2 -112 -12 -22 -12 -37 -12 -94 -1 -89 17 -142 17 -153 0 -6 -9 -43 -16 -116
-21 -97 -7 -109 -10 -131 -33 -28 -31 -17 -30 -125 -10 -50 9 -88 21 -88 28 0
6 -5 4 -11 -4 -7 -10 -9 -11 -7 -2 2 8 8 14 13 14 6 0 19 7 30 14 11 8 32 14
47 14 49 0 33 28 -24 44 -75 21 -128 28 -128 19 0 -16 -83 -12 -114 5 -17 9
-35 17 -41 17 -5 0 -16 4 -24 9 -8 5 -107 13 -220 18 -324 13 -492 31 -525 56
-6 5 -29 7 -51 5 -116 -11 -142 -6 -149 27 -4 23 -13 29 -68 43 -95 25 -112
25 -116 3 -2 -10 1 -22 8 -26 14 -8 -22 -34 -62 -44 -19 -4 -28 -13 -28 -27 0
-11 6 -19 13 -17 6 2 13 -2 15 -7 1 -6 -13 -11 -33 -13 -20 -2 -35 1 -35 7 0
6 -20 11 -46 11 -41 0 -46 2 -41 20 3 10 -1 27 -9 37 -7 10 -14 14 -14 8 0
-12 -89 -14 -107 -2 -6 4 -26 9 -45 12 -18 3 -44 7 -58 10 -14 2 -61 5 -104 5
-44 1 -85 5 -90 9 -11 9 -46 15 -168 30 -32 4 -66 15 -77 25 -11 10 -25 15
-31 11 -7 -4 -16 -1 -21 6 -6 10 -9 10 -9 2 0 -15 -105 -47 -126 -39 -21 8
-17 30 7 41 26 12 26 29 2 31 -14 1 -124 11 -190 16 -7 1 -13 5 -13 9 0 5 -18
8 -40 6 -22 -1 -40 -4 -40 -7 0 -3 -23 -5 -52 -5 -41 0 -52 -3 -54 -18 -1 -9
4 -17 12 -17 9 0 13 4 9 9 -5 8 13 9 58 2 4 0 7 -8 7 -16 0 -13 -22 -15 -137
-14 -87 0 -131 4 -118 9 17 7 14 9 -13 9 -23 1 -31 -3 -27 -11 4 -7 0 -5 -8 4
-18 23 -37 23 -38 1 0 -15 -2 -15 -9 2 -8 19 -9 19 -9 -3 -1 -12 -8 -25 -16
-29 -15 -5 -131 13 -148 24 -11 7 37 42 63 46 12 2 26 10 32 18 7 10 11 11 14
2 4 -8 13 -9 29 -3 13 5 79 8 147 7 99 -1 130 2 157 16 43 22 234 35 280 19
20 -7 49 -8 83 -2 41 6 57 5 69 -6 8 -8 22 -14 31 -14 8 0 18 -3 22 -7 3 -4
16 -8 28 -10 12 -2 32 -10 45 -18 12 -8 32 -15 43 -15 13 0 24 -10 30 -25 10
-26 19 -29 58 -19 21 6 21 7 5 20 -17 12 -16 13 5 14 12 0 25 -6 27 -13 5 -11
35 -18 100 -21 23 -1 30 3 29 16 -1 10 2 15 7 12 5 -3 9 -1 9 5 0 6 28 9 68 7
57 -2 69 1 84 18 10 13 13 25 8 31 -6 8 20 11 83 12 170 2 183 4 183 24 0 14
-14 20 -61 29 -33 7 -77 13 -98 13 -24 1 -44 9 -52 20 -15 21 -72 40 -80 26
-4 -5 -16 -10 -28 -10 -17 -1 -18 -2 -4 -6 9 -2 17 -9 17 -14 0 -11 -57 -11
-85 0 -30 12 -53 2 -67 -30 -9 -21 -20 -29 -38 -30 -14 0 -74 -4 -135 -9 -82
-6 -118 -5 -140 4 l-30 13 33 7 c34 8 43 31 15 40 -10 3 -52 6 -93 7 -85 2
-188 18 -196 30 -3 5 2 6 10 3 9 -3 16 -2 16 4 0 6 -13 13 -30 17 -16 4 -32
11 -35 16 -14 21 -105 3 -105 -21 0 -5 15 -11 33 -13 17 -2 -14 -4 -70 -3 -57
1 -106 5 -109 9 -4 4 8 7 27 7 23 1 29 3 19 9 -28 15 -79 21 -86 9 -5 -8 -2
-9 10 -5 13 5 17 2 14 -11 -2 -12 -15 -18 -42 -20 -47 -4 -104 16 -84 30 9 6
5 8 -12 7 -44 -4 -60 1 -60 16 0 11 12 15 49 15 27 0 56 3 65 6 9 3 16 1 16
-6 0 -6 -4 -8 -10 -5 -5 3 -10 2 -10 -3 0 -6 7 -13 16 -16 23 -9 31 -7 15 3
-11 7 -9 12 10 22 13 7 37 14 52 15 15 1 31 4 34 7 12 12 -7 37 -29 37 -19 0
-20 2 -6 12 18 15 31 48 19 48 -5 0 -11 -4 -13 -10 -1 -5 -13 -7 -25 -4 -13 4
-20 10 -17 15 3 5 0 9 -5 9 -16 0 -13 -26 4 -40 22 -18 18 -28 -9 -23 -13 3
-27 0 -30 -6 -4 -6 -23 -11 -43 -11 -33 0 -35 2 -30 26 4 25 3 25 -31 19 -22
-4 -38 -2 -42 5 -12 19 -111 18 -180 -2 -98 -29 -98 -29 -93 -9 4 15 -2 17
-46 15 -27 -1 -54 -5 -59 -8 -5 -3 -20 5 -33 17 l-24 22 24 3 c13 2 28 -2 32
-10 7 -11 11 -10 19 2 5 8 10 11 10 5 0 -5 14 -11 30 -12 18 -1 28 2 25 7 -4
6 42 10 120 10 106 0 127 3 132 16 7 19 -13 34 -46 34 -18 0 -22 4 -18 19 6
25 -3 37 -35 45 -25 6 -28 4 -28 -18 0 -14 5 -28 10 -31 6 -4 8 -11 4 -16 -7
-12 -66 -1 -75 13 -8 12 -89 -2 -89 -16 0 -7 -8 -13 -17 -14 -70 -7 -118 -19
-118 -27 0 -11 -11 -11 -40 1 -18 7 -19 6 -5 -11 14 -16 13 -17 -7 -11 -18 6
-21 4 -16 -15 6 -20 3 -21 -22 -15 -16 4 -34 14 -40 23 -10 13 -14 13 -20 3
-5 -9 -4 -11 3 -6 7 4 12 4 12 -1 0 -9 -48 -33 -66 -33 -7 0 -14 -4 -16 -9 -1
-5 -21 -13 -42 -17 -32 -5 -37 -4 -31 7 7 12 6 12 -7 1 -17 -14 -51 -6 -45 11
2 6 16 15 33 20 16 6 32 14 35 19 3 5 12 2 19 -7 7 -8 16 -15 21 -15 9 0 -9
26 -44 62 -14 15 -22 17 -32 8 -9 -7 -15 -7 -19 -1 -4 6 3 15 14 21 11 6 20 7
20 3 0 -5 38 -8 85 -8 47 0 85 -3 85 -7 0 -22 103 -4 106 19 3 24 19 43 37 43
20 0 20 0 1 15 -16 12 -16 14 -3 15 9 0 24 11 33 24 15 23 15 25 -7 29 -12 2
-2 5 23 6 26 0 52 -5 59 -12 10 -10 11 -8 5 6 -5 13 -1 20 12 23 11 3 30 21
43 40 23 33 25 34 90 34 73 0 102 -14 73 -36 -15 -11 -15 -13 9 -23 24 -9 47
-7 88 5 17 5 -30 44 -54 44 -11 0 -15 6 -11 18 9 26 -51 52 -119 52 -37 0 -55
4 -55 13 0 9 -3 8 -9 -2 -7 -10 -12 -8 -24 9 -18 25 -64 31 -78 9 -6 -10 -37
-13 -126 -13 -65 1 -120 -3 -123 -7 -3 -5 -28 -2 -54 6 -62 19 -100 19 -116 0
-9 -11 -17 -12 -32 -4 -10 6 -34 11 -51 11 -40 1 -53 8 -36 19 10 6 4 9 -18 9
-20 0 -33 5 -33 13 0 8 -3 8 -8 1 -13 -19 -41 -23 -67 -10 -13 7 -22 16 -18
19 3 4 0 13 -7 22 -10 12 -10 15 4 15 11 0 14 -5 10 -12 -5 -8 -2 -9 12 -3 23
10 107 15 134 8 11 -3 18 -10 17 -17 -2 -13 27 -12 158 5 65 8 103 8 137 0 26
-6 76 -8 112 -4 46 4 70 2 81 -7 8 -7 22 -10 30 -6 9 3 13 2 10 -4 -4 -6 15
-10 47 -9 29 0 100 -4 158 -10 103 -10 106 -9 130 14 35 33 146 56 201 42 32
-8 61 -6 128 7 95 18 263 35 413 43 86 4 97 7 101 25 3 11 10 17 15 14 6 -3
12 -2 14 4 2 6 46 13 98 16 52 3 142 17 199 31 82 20 116 24 167 18 45 -5 64
-3 64 5 0 6 4 9 9 6 5 -3 11 1 15 9 4 12 -4 15 -40 15 -28 0 -43 4 -39 10 3 6
2 10 -4 10 -5 0 -12 -4 -16 -10 -4 -6 -15 -6 -31 0 -38 15 -85 12 -98 -5 -12
-17 -127 -25 -178 -13 -15 4 -28 3 -30 -1 -6 -14 -112 -51 -149 -51 -24 0 -41
-6 -47 -15 -9 -17 -23 -16 -89 5 -24 7 -43 19 -43 26 0 18 17 27 23 12 4 -10
6 -10 6 0 1 6 10 12 22 12 11 0 17 5 14 10 -10 16 -63 12 -98 -7 -32 -17 -176
-23 -507 -22 -14 0 -67 0 -119 0 -96 -1 -117 3 -91 19 11 7 12 10 2 10 -7 0
-20 7 -28 15 -11 10 -35 15 -77 15 -70 0 -104 -13 -67 -25 15 -5 26 -2 32 6 8
11 9 11 5 -1 -3 -12 -23 -15 -108 -14 -224 3 -287 8 -282 21 3 7 11 13 19 13
8 0 11 6 7 16 -5 14 -1 16 28 10 56 -12 381 -9 428 4 31 8 67 8 134 1 51 -6
146 -9 212 -7 66 2 164 -1 218 -7 117 -13 310 3 337 28 9 8 20 12 23 8 4 -3 7
0 7 7 0 10 11 11 48 5 69 -11 171 -12 165 -1 -4 5 0 6 7 1 7 -4 16 -2 20 5 6
9 59 14 191 16 101 2 201 7 222 10 l38 6 -27 15 c-20 10 -45 12 -85 8 -32 -3
-60 -2 -63 3 -3 4 -40 4 -83 0 -76 -9 -162 -5 -196 8 -13 4 -14 9 -4 19 7 7
16 10 21 7 5 -3 6 2 3 12 -4 10 -7 20 -7 22 0 2 -12 4 -27 4 -20 0 -24 3 -14
9 19 12 -6 25 -80 41 -54 12 -108 10 -208 -7 -52 -9 -65 -30 -24 -38 15 -3 58
-13 95 -21 36 -9 71 -13 77 -10 5 4 27 -3 48 -14 l38 -20 -35 -2 c-19 0 -46
-2 -60 -3 -158 -14 -224 -16 -210 -5 13 9 12 11 -5 7 -11 -2 -19 -9 -17 -18 2
-8 -7 -4 -22 10 l-26 25 -103 -12 c-56 -7 -159 -14 -228 -17 -104 -4 -129 -2
-139 10 -18 21 -118 20 -149 -1 -30 -21 -293 -43 -299 -25 -2 6 -12 11 -23 11
-10 0 -19 5 -19 10 0 6 -11 15 -25 20 -35 13 -196 21 -209 10 -6 -5 -32 -10
-56 -12 -37 -2 -45 -6 -45 -23 0 -16 7 -20 38 -21 37 -1 67 -14 32 -14 -10 0
-27 -8 -38 -18 -15 -12 -21 -14 -24 -4 -6 17 -23 15 -23 -3 0 -8 -7 -15 -17
-15 -32 0 16 -37 64 -50 41 -10 45 -13 31 -26 -22 -22 -223 -18 -238 5 -3 4
-21 13 -41 20 -39 12 -89 0 -89 -23 0 -6 -5 -3 -11 7 -7 11 -22 17 -47 17 -56
0 -112 11 -106 21 3 5 -4 9 -15 9 -11 0 -22 4 -25 9 -10 15 36 23 124 21 81
-1 84 -1 62 15 -12 9 -22 23 -22 31 0 8 -7 14 -17 14 -27 0 -4 14 24 15 21 0
26 5 29 30 6 56 -1 63 -74 71 -37 4 -71 8 -77 9 -5 1 -19 3 -31 3 -12 1 -31
11 -44 22 -22 19 -56 19 -70 0 -3 -3 -14 -10 -25 -15 -19 -7 -19 -8 5 -15 14
-3 -35 -9 -112 -13 -76 -3 -147 -11 -158 -17 -14 -8 -25 -7 -40 2 -27 17 -25
28 6 28 20 0 25 4 20 16 -3 9 -2 12 4 9 9 -6 7 41 -2 50 -7 8 -130 16 -148 10
-11 -4 -20 -13 -20 -22 0 -10 -6 -13 -16 -9 -8 3 -12 2 -9 -3 3 -5 2 -12 -2
-14 -11 -7 -105 11 -112 21 -4 4 -33 8 -66 9 -33 1 -61 7 -63 13 -2 5 -9 10
-15 10 -7 0 -17 8 -24 18 -10 18 -8 19 40 14 29 -2 62 -10 74 -18 28 -18 61
-18 78 0 20 20 94 28 140 15 22 -7 58 -12 80 -13 22 0 44 -5 48 -11 6 -6 10
-6 14 3 6 14 49 16 58 2 4 -6 11 -8 16 -5 5 4 9 -1 9 -9 0 -9 4 -16 10 -16 5
0 9 -6 7 -12 -1 -9 14 -14 46 -16 48 -3 61 10 35 36 -6 6 -9 14 -6 17 7 7 122
10 278 6 128 -3 210 5 210 20 0 5 6 9 14 9 8 0 16 6 18 13 3 8 36 13 104 15
54 2 109 8 121 14 12 6 36 8 52 5 41 -8 83 7 75 28 -4 10 -14 13 -32 8 -16 -4
-23 -2 -18 5 8 13 56 8 65 -7 4 -6 22 -13 39 -14 18 -1 32 -4 32 -7 0 -4 16
-6 36 -6 19 0 39 -6 44 -13 5 -10 19 -11 46 -7 89 16 153 17 217 5 55 -10 75
-10 103 0 32 12 139 21 225 21 20 -1 58 7 85 16 27 10 76 22 109 28 58 12 59
12 35 26 -36 20 -190 27 -190 9 0 -11 -2 -11 -10 1 -6 10 -10 11 -10 3 0 -7
-7 -13 -16 -13 -8 0 -13 4 -9 9 10 17 -12 21 -25 6 -14 -16 -50 -21 -50 -6 0
5 -15 9 -32 9 -18 0 -62 1 -97 1 -43 2 -67 -2 -72 -11 -6 -9 -9 -10 -9 -1 0
23 -98 42 -215 42 -62 0 -124 3 -139 7 -14 3 -34 3 -43 -1 -17 -6 -125 -16
-200 -19 -18 0 -33 -5 -33 -9 0 -5 -5 -5 -10 -2 -6 3 -17 -1 -26 -9 -8 -9 -23
-16 -33 -16 -9 0 -27 -9 -40 -21 -20 -19 -30 -21 -94 -15 -40 4 -102 7 -139 7
-38 1 -70 4 -73 9 -3 4 -14 6 -24 3 -14 -3 -19 0 -18 14 2 22 -29 20 -55 -4
-15 -13 -39 -15 -150 -10 -187 9 -231 15 -241 32 -6 12 -13 13 -28 5 -13 -7
-19 -7 -19 0 0 14 -16 13 -32 -4 -8 -7 -35 -14 -61 -14 -26 -1 -51 -3 -55 -6
-4 -2 -27 -7 -50 -11 -39 -5 -44 -4 -49 15 -5 18 -11 21 -39 16 -27 -6 -35 -3
-44 14 -8 15 -17 19 -34 14 -14 -3 -29 0 -38 9 -20 20 -194 28 -190 9 2 -9 -4
-11 -18 -7 -16 5 -20 2 -20 -15 0 -12 -4 -18 -10 -15 -5 3 -10 -1 -10 -9 0 -9
-5 -16 -11 -16 -6 0 -9 6 -6 14 3 7 1 18 -5 24 -8 8 -7 13 5 18 9 3 15 10 12
14 -3 5 2 16 11 24 15 15 8 22 -19 17 -4 -1 -18 6 -30 15 -21 16 -20 16 22 11
24 -3 47 -10 50 -15 4 -7 23 -7 56 -1 72 14 114 13 133 -4 9 -8 22 -12 29 -10
17 6 53 -15 53 -32 0 -24 34 -36 69 -24 17 6 29 16 28 22 -1 7 17 16 41 21 28
7 41 14 38 23 -3 7 0 13 6 13 6 0 -8 20 -32 44 -38 39 -48 44 -77 39 -18 -3
-39 0 -47 6 -11 10 -16 8 -21 -8 -3 -12 -12 -18 -20 -15 -7 3 -24 0 -37 -6
-20 -10 -21 -10 -6 3 13 10 14 17 6 25 -9 9 -5 14 13 21 21 9 22 10 4 11 -20
1 -20 1 -1 15 18 14 11 15 -68 15 -77 0 -87 2 -82 16 5 14 -2 15 -62 10 -38
-3 -81 -10 -95 -15 l-27 -11 21 -24 c18 -20 26 -23 46 -15 25 9 119 12 96 2
-17 -6 -17 -30 0 -36 6 -3 1 -6 -13 -6 -20 -1 -22 -3 -10 -11 10 -6 2 -7 -25
-3 -22 3 -43 11 -47 17 -5 8 -12 8 -25 0 -10 -6 -32 -9 -49 -7 -24 4 -34 12
-44 39 -11 26 -21 35 -47 40 -19 4 -47 4 -64 0 -28 -5 -30 -4 -24 17 4 14 3
17 -3 9 -4 -7 -24 -12 -43 -12 -19 0 -46 -1 -61 -1 -14 -1 -33 5 -41 12 -12
11 -12 16 2 31 14 14 34 17 134 16 65 -1 120 -5 122 -9 3 -4 17 -5 33 -3 74
13 164 16 158 5 -10 -16 3 -14 20 4 9 8 25 13 37 10 12 -2 69 -7 127 -9 94 -5
103 -4 86 9 -11 8 -15 15 -10 15 6 0 19 -7 30 -15 25 -19 74 -20 74 -1 0 12
23 15 119 18 95 2 117 0 109 -9 -8 -10 -6 -13 6 -13 9 0 16 -4 16 -9 0 -5 -8
-7 -19 -4 -10 3 -22 0 -25 -6 -4 -6 0 -11 8 -11 9 0 16 -7 16 -16 0 -13 3 -14
14 -5 7 6 22 8 31 4 15 -5 17 -3 12 11 -4 10 -1 19 6 21 14 5 64 13 89 14 10
1 15 7 12 14 -3 8 2 20 11 27 8 7 15 19 15 27 0 10 5 11 18 5 32 -16 109 -14
115 3 5 12 -4 15 -51 16 -31 1 -68 4 -80 8 -13 3 -60 2 -104 -3 -56 -7 -85 -7
-97 1 -10 6 -36 9 -58 6 -28 -4 -42 -1 -52 11 -7 9 -19 16 -26 16 -7 0 -18 7
-25 15 -17 21 -129 10 -147 -13 -12 -14 -13 -14 -13 0 0 9 -10 18 -22 22 -35
9 -37 8 -33 -15 4 -20 2 -20 -118 -14 -67 4 -135 8 -152 8 -16 1 -36 9 -43 17
-10 13 -11 13 -6 -2 5 -16 -2 -18 -64 -18 -79 0 -102 6 -102 26 0 16 -36 19
-45 4 -5 -8 -42 -8 -52 1 -2 1 -22 2 -44 3 -34 1 -43 5 -50 24 -7 18 -4 25 15
33 16 8 22 17 19 30 -3 10 -9 19 -14 19 -6 0 -14 10 -19 23 -5 14 -9 16 -9 6
-1 -19 -49 -56 -85 -65 -14 -3 -24 -10 -21 -15 7 -11 -30 -30 -47 -24 -7 3
-20 18 -30 34 -12 22 -21 28 -37 24 -17 -4 -20 -2 -15 11 4 10 -5 26 -25 45
-17 16 -31 33 -31 38 0 5 26 13 58 19 48 9 59 8 69 -5 12 -17 102 -18 204 -2
31 5 56 5 60 0 5 -8 97 -13 169 -9 l35 2 -30 7 c-21 5 -29 12 -27 24 2 12 -4
17 -20 17 -31 0 -68 11 -68 19 0 4 16 13 35 20 19 7 35 17 35 22 0 12 97 12
105 -1 3 -5 0 -10 -7 -10 -21 0 14 -20 35 -20 10 0 29 12 42 26 19 20 30 25
50 20 14 -4 25 -11 25 -16 0 -15 26 -12 43 4 8 9 36 14 73 15 284 3 362 3 449
-2 55 -3 127 -10 160 -16 33 -6 101 -11 152 -11 51 0 115 -5 143 -11 40 -9 59
-8 94 4 26 9 49 11 57 6 18 -11 59 -1 82 20 18 15 18 16 -2 32 -15 13 -35 15
-95 11 -59 -4 -81 -1 -100 12 -14 9 -36 16 -48 16 -13 0 -34 8 -47 17 l-24 16
21 8 c24 9 52 2 52 -12 0 -5 7 -9 15 -9 8 0 15 6 15 14 0 16 -30 26 -78 26
-26 0 -34 -5 -42 -26 -7 -18 -16 -24 -32 -22 -25 4 -37 28 -13 28 9 0 13 5 9
11 -4 7 -22 9 -48 5 -22 -4 -51 -8 -63 -9 -13 -1 -23 -5 -23 -9 0 -5 -10 -8
-22 -8 -19 0 -20 2 -8 10 18 12 3 12 -25 0 -18 -7 -17 -8 10 -15 17 -4 37 -9
45 -12 30 -10 -24 -21 -85 -16 -172 12 -201 14 -215 20 -20 9 -129 10 -124 2
7 -12 -19 -16 -104 -17 -46 -1 -80 2 -78 7 8 12 -114 23 -149 13 -16 -5 -126
-8 -243 -8 -178 1 -214 3 -222 16 -7 10 -10 11 -10 3 0 -7 -4 -13 -10 -13 -5
0 -9 3 -9 8 3 18 -2 32 -12 32 -6 0 -9 -8 -7 -17 2 -10 -3 -24 -12 -31 -13
-10 -12 -11 5 -7 17 5 17 4 -2 -6 -23 -12 -53 -6 -53 11 0 6 11 16 25 22 14 6
25 19 25 30 0 14 -8 18 -34 18 -54 0 -126 12 -121 20 3 4 -9 14 -26 23 l-31
14 26 7 c24 6 53 42 42 53 -3 3 -20 9 -38 13 l-33 8 32 1 c40 1 63 -8 63 -24
0 -7 14 -18 30 -24 18 -6 30 -17 30 -28 1 -17 2 -16 16 2 11 14 19 17 30 10 9
-6 15 -14 14 -19 -1 -5 4 -13 12 -17 18 -12 68 -11 68 1 0 14 22 12 44 -5 17
-13 16 -14 -13 -13 -18 1 -37 -4 -43 -10 -9 -9 -6 -12 11 -12 16 0 21 -5 19
-17 -1 -10 2 -18 7 -18 6 0 10 7 10 15 0 21 53 22 65 1 11 -20 22 -10 24 23 0
14 7 26 14 26 7 0 20 9 29 20 23 26 29 25 65 -10 22 -23 38 -30 62 -28 30 2
31 3 28 40 -3 25 -9 38 -18 38 -23 0 -94 39 -101 55 -6 18 -29 20 -36 3 -3 -8
-6 -9 -6 -2 -1 7 -12 9 -28 6 -18 -3 -30 1 -39 12 -12 17 -14 17 -39 0 -21
-14 -31 -15 -51 -5 -14 6 -40 11 -59 11 -24 0 -35 5 -35 15 0 8 -8 15 -17 16
-110 4 -217 3 -226 -3 -8 -4 -7 -11 2 -21 13 -17 9 -21 -31 -31 -16 -3 -28
-12 -28 -19 0 -7 -9 -13 -20 -14 -15 -1 -20 3 -16 15 3 9 8 34 12 55 5 33 4
37 -14 37 -32 0 -35 17 -8 35 20 14 41 16 101 11 42 -3 87 -9 101 -12 15 -4
24 -2 24 6 0 6 8 9 19 5 20 -6 46 18 36 35 -10 17 21 11 36 -6 11 -13 26 -15
71 -11 32 3 60 2 62 -1 8 -13 81 -8 80 6 -1 6 -2 21 -2 32 -2 15 -9 20 -32 20
-16 0 -30 -4 -30 -10 0 -5 -9 -14 -21 -20 -16 -9 -24 -8 -38 4 -20 18 -41 21
-41 6 0 -5 -4 -10 -10 -10 -6 0 -5 11 3 27 9 21 9 27 -1 31 -6 2 -12 10 -12
18 0 9 -10 14 -27 13 -16 0 -22 -3 -15 -6 15 -6 16 -23 1 -23 -7 0 -18 -8 -26
-17 -8 -10 -12 -12 -8 -5 9 17 -35 16 -49 -2 -10 -14 -52 -20 -106 -16 l-25 2
27 10 c26 9 27 10 12 34 -9 13 -24 24 -34 24 -10 0 -21 7 -24 15 -4 12 -20 15
-69 13 -34 -1 -68 1 -74 5 -16 10 -5 36 25 62 20 17 23 27 18 52 -6 25 -11 30
-28 25 -14 -3 -19 -1 -14 6 4 7 -6 13 -29 16 -19 4 -51 8 -70 11 -19 3 -35 10
-35 16 0 6 5 7 10 4 6 -3 10 2 10 13 0 17 5 18 63 10 34 -5 89 -7 122 -4 33 3
98 7 145 8 85 1 130 10 130 26 0 13 -158 8 -172 -6 -6 -6 -25 -12 -41 -12 -23
0 -28 4 -23 16 5 14 -4 15 -71 14 -43 -1 -82 -1 -88 1 -5 1 -47 3 -92 3 -60 1
-83 -2 -83 -11 0 -15 -16 -17 -24 -4 -3 4 -31 9 -62 10 -64 1 -84 13 -84 47 0
18 -8 25 -32 32 -19 5 -36 5 -39 0 -7 -10 -138 -7 -145 3 -10 16 9 39 27 34
21 -7 27 10 7 18 -8 3 -6 6 4 6 10 1 22 -8 28 -19 8 -15 15 -18 28 -11 9 5 34
7 54 6 29 -3 36 0 31 11 -3 9 -12 13 -19 10 -7 -3 -16 -1 -19 4 -3 6 -20 9
-38 9 -18 -1 -72 2 -122 6 -162 13 -205 12 -219 -8 -12 -15 -14 -11 -20 33 -5
36 -10 49 -19 43 -7 -4 -36 -8 -65 -8 -32 -1 -57 -7 -62 -14 -6 -11 -8 -11
-12 0 -4 11 -9 10 -25 -4 -11 -9 -23 -14 -27 -10 -4 5 -11 9 -14 9 -26 6 -52
18 -52 24 0 5 -8 11 -17 13 -17 4 -17 5 0 6 17 1 25 31 7 31 -15 0 -64 -24
-79 -38 -12 -12 -17 -10 -32 10 -23 28 -24 38 -4 38 8 0 15 -5 15 -12 0 -9 3
-9 12 0 10 10 10 15 -2 22 -13 8 -12 10 3 10 19 0 22 13 7 41 -13 24 -80 28
-80 4 0 -16 -25 -21 -34 -6 -3 4 -18 6 -32 3 -22 -4 -26 -2 -21 11 3 8 -1 21
-9 27 -11 10 -14 9 -14 -4 0 -9 -4 -16 -9 -16 -14 0 -23 32 -11 44 5 5 10 22
10 37 0 37 13 43 43 19 14 -11 32 -20 40 -20 29 0 46 -12 40 -27 -4 -11 0 -14
18 -11 13 2 23 9 22 15 -1 6 18 14 43 18 25 3 42 11 38 16 -3 5 -15 7 -25 4
-11 -4 -25 -2 -32 3 -8 7 -29 7 -61 1 -27 -5 -52 -7 -54 -4 -3 3 2 5 11 5 8 0
17 4 19 8 2 4 20 18 41 31 30 18 35 26 27 37 -7 7 -9 18 -5 24 5 8 -3 9 -27 5
-29 -6 -36 -3 -48 19 -14 28 -25 32 -35 16 -3 -5 -14 -10 -23 -9 -13 0 -12 3
5 11 29 14 30 49 3 66 -11 7 -20 19 -20 27 0 11 -11 15 -41 15 -32 0 -47 6
-69 30 l-27 29 31 7 c17 4 35 7 40 5 18 -4 66 22 66 36 0 8 5 11 11 8 6 -4 8
-13 5 -20 -5 -15 20 -29 29 -15 3 5 20 12 37 15 18 4 38 14 46 21 7 8 19 14
25 14 7 0 4 -7 -6 -14 -13 -10 -15 -16 -6 -21 6 -4 14 -3 18 3 3 6 19 14 34
17 15 4 27 13 27 21 0 8 5 14 10 14 6 0 10 -4 10 -10 0 -5 8 -10 18 -10 15 -1
15 -2 -2 -15 -19 -14 -18 -15 13 -15 26 0 32 3 27 16 -5 13 -1 14 26 9 25 -6
30 -4 25 8 -4 11 3 19 25 26 25 9 28 8 19 -3 -9 -11 -4 -15 25 -21 20 -3 43
-13 51 -21 20 -20 40 -17 46 6 3 13 14 20 29 21 22 0 22 1 3 9 -14 6 -16 9 -5
10 39 5 96 -3 102 -13 6 -9 8 -9 8 0 0 19 37 26 145 27 61 2 111 8 128 16 24
12 30 12 37 0 7 -12 15 -12 52 0 24 7 47 17 53 22 14 12 45 10 45 -4 0 -9 4
-8 11 2 8 11 12 12 16 3 5 -15 49 -17 57 -4 7 11 77 11 92 0 12 -10 181 -12
242 -3 32 5 46 12 54 29 6 14 16 21 28 18 9 -2 23 2 31 9 8 8 32 15 54 16 22
1 56 5 75 8 27 5 275 16 338 14 19 0 25 0 227 5 201 6 225 6 253 4 9 -1 39 1
65 3 27 2 50 1 52 -3 2 -3 33 -2 67 3 92 13 508 16 536 4 16 -7 26 -6 30 1 4
6 25 12 47 12 22 0 54 1 70 2 17 1 46 0 65 0 31 -2 645 8 645 10 0 0 12 2 28
4 15 2 27 0 27 -4 0 -13 174 -7 189 7 10 9 17 10 27 1 7 -6 19 -7 26 -3 16 10
48 6 65 -8 7 -5 17 -7 23 -3 17 11 302 15 314 5 7 -5 18 -3 29 5 17 12 17 14
1 23 -11 6 -13 11 -5 16 6 4 11 2 11 -3 0 -14 27 -14 35 -1 3 6 -1 7 -9 4 -12
-5 -16 1 -16 25 0 19 6 34 15 37 18 7 10 24 -11 24 -10 0 -14 -11 -14 -37 l0
-38 -27 27 c-22 23 -24 29 -13 42 7 9 19 16 26 16 8 0 14 4 14 9 0 6 -9 9 -20
8 -11 -1 -20 -5 -20 -9 0 -18 -19 -6 -41 26 -16 23 -26 31 -31 23 -5 -8 -12
-6 -22 8 -9 12 -11 24 -5 29 13 14 11 46 -3 46 -6 0 -8 -3 -5 -7 11 -10 -14
-33 -35 -33 -17 0 -18 2 -8 15 11 13 10 14 -4 9 -9 -3 -16 -10 -16 -15 0 -5
-9 -9 -20 -9 -10 0 -24 -8 -30 -17 -11 -17 -11 -17 -6 0 4 11 0 17 -12 17 -9
1 -3 7 16 15 36 16 41 23 15 24 -10 1 -36 2 -58 3 -32 1 -46 -4 -68 -26 -31
-31 -33 -36 -12 -36 8 0 15 -4 15 -10 0 -5 6 -7 14 -4 16 6 31 -12 18 -20 -5
-3 -28 -8 -50 -12 -35 -5 -42 -4 -42 10 0 9 -5 16 -12 16 -6 0 -9 3 -6 6 4 3
0 17 -7 31 -10 18 -11 32 -4 45 7 14 6 18 -6 18 -9 0 -13 -4 -10 -10 3 -5 -3
-20 -15 -32 -11 -12 -18 -28 -16 -35 6 -15 -25 -18 -40 -3 -6 6 -15 6 -24 0
-12 -8 -10 -10 10 -11 l25 -1 -25 -8 c-14 -4 -19 -8 -12 -9 6 -1 12 -11 12
-22 0 -21 -1 -21 -20 4 -24 30 -25 41 -5 57 23 19 18 27 -14 22 -16 -2 -32 1
-35 7 -5 7 6 11 31 12 33 0 35 1 16 9 -13 5 -23 14 -23 20 0 6 -10 8 -25 4
-16 -4 -25 -2 -25 6 0 7 -8 9 -19 5 -13 -4 -26 3 -41 22 -19 24 -22 25 -18 7
5 -19 2 -21 -38 -17 -25 2 -44 -1 -44 -7 0 -5 -16 -10 -36 -10 -21 0 -33 4
-29 10 3 6 18 10 33 10 21 0 24 2 12 10 -12 7 -8 12 19 23 21 9 29 17 22 21
-7 4 -23 1 -36 -8 -13 -9 -26 -16 -27 -16 -2 0 -3 16 -3 37 0 22 -5 38 -14 41
-9 3 -11 0 -6 -7 4 -7 8 -31 9 -52 2 -36 0 -40 -18 -35 -12 3 -31 6 -44 6 -13
0 -21 4 -17 10 3 5 12 7 20 3 12 -4 15 4 15 36 0 23 -4 41 -10 41 -5 0 -10 -7
-10 -15 0 -8 -5 -15 -11 -15 -6 0 -8 9 -4 20 4 11 2 20 -4 20 -6 0 -11 -11
-11 -25 0 -14 -4 -25 -10 -25 -5 0 -9 -6 -7 -12 1 -7 -8 -14 -21 -16 -20 -3
-22 0 -17 20 5 21 8 35 14 68 1 3 5 -2 11 -10 5 -8 12 -11 16 -7 4 4 -1 13
-11 21 -17 12 -22 11 -42 -10 -22 -24 -40 -33 -28 -14 9 14 -8 12 -24 -2 -11
-11 -13 -8 -8 17 3 17 9 38 12 48 4 10 3 17 -4 17 -6 0 -11 -5 -11 -11 0 -5
-4 -8 -9 -5 -5 3 -7 14 -4 24 5 20 -10 36 -44 46 -17 6 -23 3 -23 -8 0 -9 -4
-16 -10 -16 -5 0 -10 5 -10 10 0 6 -9 10 -20 10 -11 0 -20 5 -20 10 0 6 -13
10 -29 10 -31 0 -50 15 -29 22 18 6 -1 28 -24 28 -12 0 -30 -7 -39 -16 -10 -9
-31 -18 -46 -20 -15 -1 -29 -8 -31 -13 -8 -24 -21 -9 -18 19 3 24 0 30 -17 30
-15 0 -17 3 -8 13 8 10 7 17 -1 25 -9 9 -8 12 5 12 9 0 17 6 17 14 0 8 7 16
15 20 8 3 15 12 15 20 0 11 -6 13 -30 6 -25 -7 -32 -5 -45 12 -12 18 -18 20
-37 10 -18 -8 -19 -11 -5 -11 9 -1 17 -4 17 -9 0 -4 -19 -6 -42 -3 -36 4 -39
5 -18 11 22 5 23 7 7 13 -25 9 -12 27 19 27 15 0 23 4 19 11 -4 6 -19 7 -37 4
-29 -7 -29 -6 -23 28 4 21 3 37 -4 41 -7 4 -11 -1 -11 -13 0 -17 -7 -21 -32
-22 -31 -1 -32 -1 -8 -9 l25 -8 -32 -12 c-18 -6 -33 -16 -33 -20 0 -7 -67 3
-75 12 -2 2 -5 17 -7 33 -2 25 1 31 20 33 13 2 37 -2 54 -9 22 -9 32 -9 41 0
8 8 5 11 -14 11 -13 0 -33 6 -44 13 -30 21 -65 27 -58 12 6 -17 -32 -8 -48 11
-6 8 -21 11 -38 8 -17 -4 -32 0 -40 9 -17 21 1 30 34 17 21 -8 26 -7 22 2 -2
7 -11 12 -21 10 -9 -2 -16 4 -16 13 0 8 5 15 10 15 6 0 10 5 10 11 0 8 -12 10
-33 6 -24 -4 -40 0 -58 15 l-24 20 28 -5 c19 -3 27 0 27 11 0 11 -7 13 -28 9
-27 -5 -55 3 -53 17 1 3 -1 6 -4 6 -3 0 -15 0 -27 0 -20 0 -21 -1 -3 -20 17
-18 17 -20 1 -26 -10 -4 -22 -2 -29 5 -6 6 -20 11 -30 11 -16 0 -17 3 -7 15
10 13 9 15 -9 15 -15 0 -21 5 -19 18 2 11 -4 18 -19 20 -13 2 -23 8 -23 13 0
5 -7 9 -15 9 -10 0 -15 7 -13 18 2 12 -3 16 -19 15 -19 -2 -23 2 -24 25 0 23
-2 24 -8 8 -7 -18 -8 -18 -14 -2 -4 10 -5 22 -1 27 3 5 0 9 -5 9 -6 0 -11 -7
-11 -15 0 -17 -25 -20 -35 -5 -4 6 -11 8 -16 5 -5 -4 -9 -2 -9 4 0 5 -8 12
-17 14 -17 4 -17 5 0 6 9 0 17 8 17 16 0 8 5 15 11 15 6 0 9 -7 6 -15 -4 -8
-2 -17 3 -20 6 -4 10 8 10 25 0 18 -4 29 -10 25 -5 -3 -10 1 -10 9 0 27 -19
17 -22 -11 -2 -17 -9 -28 -18 -28 -8 -1 -14 -6 -12 -13 1 -7 -2 -12 -7 -12
-13 0 -22 -73 -9 -81 6 -4 2 -10 -11 -14 -26 -8 -42 2 -22 15 11 6 10 9 -5 13
-17 4 -17 6 4 12 24 8 30 40 10 48 -8 3 -6 6 5 6 20 1 23 21 5 39 -9 9 -7 16
6 31 21 23 6 37 -23 21 -11 -5 -28 -10 -39 -10 -11 0 -22 -7 -26 -15 -3 -8
-13 -15 -23 -15 -17 1 -17 1 0 14 9 7 17 16 17 20 0 10 -18 7 -32 -7 -11 -11
-13 -5 -14 35 -1 54 11 64 21 17 l7 -30 17 33 c15 30 15 35 1 49 -14 15 -17
15 -42 -3 -19 -13 -28 -28 -28 -46 0 -20 -3 -23 -12 -14 -9 9 -7 21 10 53 27
50 27 59 4 59 -26 0 -34 -11 -17 -24 12 -9 12 -14 -5 -36 l-20 -25 0 39 c0 33
-2 37 -15 26 -13 -11 -18 -10 -30 6 -10 12 -17 15 -22 8 -9 -11 -53 -14 -53
-3 0 4 8 9 18 12 13 3 10 7 -13 17 -17 7 -24 14 -17 17 6 3 12 13 12 24 0 13
-7 19 -24 19 -14 0 -28 -4 -31 -10 -9 -15 -25 -12 -25 5 0 9 9 15 24 15 16 0
27 7 31 20 3 11 11 20 16 20 5 0 9 7 9 15 0 9 -9 15 -22 15 -12 0 -18 3 -15 7
8 7 -21 43 -35 43 -4 0 -9 -8 -9 -17 -1 -10 -4 -4 -8 12 -6 31 -28 33 -24 2 2
-10 -4 -20 -12 -23 -21 -9 -63 21 -67 47 -3 24 -33 48 -45 36 -4 -5 -1 -12 7
-17 13 -8 13 -12 -2 -27 -17 -16 -18 -15 -18 21 0 25 -6 43 -17 51 -16 12 -16
15 0 46 l16 34 -34 3 c-19 2 -35 7 -35 13 0 5 -13 9 -30 9 -16 0 -30 -4 -30
-10 0 -5 13 -10 28 -10 28 0 80 -29 54 -30 -7 0 -10 -4 -7 -10 3 -5 1 -10 -6
-10 -8 0 -6 -7 5 -19 10 -11 16 -27 14 -37 -3 -16 -4 -17 -20 -1 -9 9 -24 17
-32 17 -20 0 -17 40 4 57 12 10 7 12 -30 13 -25 0 -52 5 -60 10 -12 8 -11 10
8 10 12 0 22 5 22 10 0 6 -4 10 -10 10 -5 0 -10 5 -10 11 0 6 9 8 22 3 21 -6
21 -6 5 10 -9 10 -33 20 -52 23 -28 4 -35 2 -35 -11 0 -9 -4 -16 -10 -16 -5 0
-7 7 -4 15 7 18 -17 20 -33 4 -8 -8 -17 -4 -32 12 -22 24 -28 49 -11 49 6 0
10 5 10 10 0 6 -17 10 -37 10 -28 0 -34 3 -23 10 26 16 6 19 -69 9 -53 -8 -76
-7 -86 1 -8 7 -18 9 -23 6 -5 -3 -17 4 -26 16 -18 20 -18 21 4 15 18 -5 21 -2
17 15 -4 12 -2 29 3 39 8 14 4 18 -17 24 -18 4 -29 2 -34 -7 -4 -8 -26 -15
-49 -16 -27 -2 -39 1 -35 8 3 5 13 10 21 10 8 0 12 5 8 11 -4 8 -9 8 -17 0
-20 -20 -34 -11 -46 29 -8 28 -17 40 -31 40 -10 0 -22 -4 -25 -10 -4 -6 -19
-4 -42 5 -33 14 -90 14 -134 0 -9 -3 -26 -2 -39 3 l-23 9 24 23 c19 18 20 22
6 16 -10 -3 -25 -6 -32 -6 -7 0 -15 -6 -18 -12 -3 -11 -2 -1 6 46 1 6 -5 11
-13 11 -8 1 -24 5 -34 10 -13 5 -21 5 -23 -2 -6 -18 -105 7 -111 29 -5 20 -32
24 -50 6 -9 -9 -12 -8 -12 5 0 10 -7 20 -15 23 -8 4 -15 17 -15 30 0 26 -18
32 -38 12 -9 -9 -12 -8 -12 5 0 13 -9 17 -40 17 -34 0 -40 -3 -40 -21 0 -18
-3 -19 -15 -9 -16 14 -35 6 -35 -16 0 -29 -36 -14 -58 25 -12 20 -12 25 0 32
10 7 9 9 -4 9 -11 0 -15 5 -12 15 4 8 -1 26 -10 40 -9 13 -13 30 -10 38 3 9
-4 22 -17 31 -30 20 -35 14 -14 -18 17 -25 17 -26 -4 -26 -12 0 -21 6 -21 15
0 23 -17 18 -23 -7 -5 -18 -8 -19 -21 -9 -14 12 -14 16 5 42 28 40 31 77 8 90
-15 7 -17 6 -13 -6 5 -12 -3 -15 -38 -15 -47 0 -70 14 -61 36 4 10 -3 14 -22
14 -23 0 -26 -2 -15 -15 7 -8 10 -25 6 -39 -4 -15 -1 -26 7 -29 6 -3 -4 -3
-23 0 -40 7 -60 20 -60 39 0 16 16 19 25 4 3 -5 10 -10 16 -10 14 0 11 28 -3
33 -10 4 -9 8 2 16 11 8 6 9 -20 5 -19 -4 -40 -13 -46 -20 -6 -8 -14 -11 -17
-7 -12 11 -8 23 7 23 16 0 60 69 51 78 -3 4 -10 1 -14 -7 -11 -17 -91 -28 -91
-12 0 6 13 11 29 11 36 0 47 25 19 44 -20 15 -48 12 -48 -5 0 -5 -4 -9 -10 -9
-5 0 -10 9 -10 20 0 11 7 20 15 20 8 0 15 5 15 10 0 6 -7 10 -15 10 -8 0 -15
-4 -15 -9 0 -18 -41 -23 -64 -8 -13 9 -39 19 -60 22 l-36 7 0 -4166z m1443
205 c6 -25 -4 -38 -28 -38 -11 0 -51 -1 -90 -2 -61 -2 -67 -4 -45 -14 36 -16
36 -15 12 -37 -17 -16 -26 -18 -41 -10 -29 15 -51 12 -52 -7 -1 -17 -2 -17 -6
0 -2 9 -10 17 -18 17 -8 0 -11 7 -8 19 4 16 1 19 -16 14 -11 -3 -29 -2 -38 2
-17 6 -17 7 -1 16 10 6 26 5 43 -1 19 -7 27 -6 31 3 3 8 23 13 57 13 29 0 66
6 82 14 40 17 67 20 83 8 8 -8 12 -6 12 6 0 22 17 20 23 -3z m13127 -442 c31
-73 72 -165 92 -204 20 -38 41 -86 47 -105 50 -164 47 -121 37 -515 -3 -148
-11 -294 -16 -324 -6 -30 -10 -75 -10 -99 0 -25 -14 -86 -31 -136 -26 -73 -32
-111 -35 -195 -2 -57 -9 -110 -15 -117 -12 -14 -67 -29 -76 -20 -6 5 -15 54
-32 166 -9 54 -8 56 26 92 l36 36 -39 69 c-20 37 -53 91 -71 120 -23 36 -33
64 -33 91 0 33 -6 44 -46 79 -42 38 -44 43 -33 65 7 13 16 50 20 83 7 55 5 64
-22 113 -40 71 -55 151 -36 189 17 35 30 86 63 255 14 73 29 153 34 178 5 25
18 99 30 165 24 143 28 157 42 153 6 -2 37 -65 68 -139z m-12922 76 c3 -3 -3
-5 -13 -5 -24 0 -8 -17 20 -22 11 -2 20 -10 20 -18 0 -12 -16 -15 -82 -15 -46
0 -83 -4 -83 -9 0 -5 -27 -5 -61 -2 -41 5 -65 3 -75 -5 -11 -9 -22 -8 -49 5
-19 9 -35 21 -35 26 0 15 22 23 30 11 12 -21 112 -10 135 14 11 12 36 22 55
24 19 2 37 5 40 8 6 6 91 -4 98 -12z m2336 -1798 c9 -9 16 -18 16 -21 0 -3
-33 -6 -72 -7 -40 0 -91 -3 -113 -8 -24 -4 -56 -2 -80 5 -23 6 -78 10 -129 7
-55 -2 -93 1 -102 7 -9 8 -19 8 -34 0 -23 -12 -36 -8 -26 9 4 6 65 10 154 10
81 0 181 4 222 9 95 12 144 9 164 -11z m-272 -147 c85 0 88 -1 85 -22 -2 -12
-12 -25 -23 -29 -16 -6 -15 -8 8 -8 15 -1 30 -5 33 -11 3 -5 17 -10 31 -10 14
0 24 -6 24 -14 0 -7 7 -19 15 -26 14 -12 13 -16 -7 -37 -12 -13 -27 -22 -32
-20 -6 2 -24 0 -40 -4 -19 -6 -34 -5 -43 2 -8 8 -13 8 -13 1 0 -7 -8 -6 -24 1
-24 11 -26 33 -2 24 17 -7 59 40 52 58 -3 8 -9 15 -13 14 -4 -1 -34 -1 -66 0
-48 1 -62 5 -81 26 -22 24 -22 24 -22 2 1 -18 -5 -23 -31 -25 -17 -2 -45 4
-61 12 -24 13 -35 13 -62 3 -26 -9 -34 -9 -37 0 -3 9 -10 10 -23 3 -13 -7 -21
-7 -25 0 -3 5 -26 10 -50 10 -24 0 -47 5 -50 10 -3 6 -16 10 -28 10 -21 -1
-22 -1 -3 -15 28 -21 13 -29 -31 -17 -30 8 -33 10 -13 11 24 1 24 2 -8 18 -40
19 -37 38 6 38 38 1 40 -2 10 -16 -17 -7 -10 -8 27 -3 88 11 155 12 161 3 3
-5 16 -9 30 -9 14 0 22 -4 19 -10 -9 -15 8 -12 31 5 19 14 19 14 0 15 -11 0
-16 3 -12 7 10 10 159 20 171 11 5 -4 49 -8 97 -8z m616 -256 c32 -6 32 -7 15
-26 -10 -11 -18 -23 -18 -27 0 -3 -3 -5 -7 -3 -5 1 -8 -2 -8 -7 0 -16 -72 -24
-81 -9 -5 8 -40 15 -102 18 l-93 5 7 25 c4 14 7 19 8 13 1 -7 11 -13 24 -13
17 0 19 2 8 9 -12 8 -10 11 10 15 59 14 168 14 237 0z m277 -423 c110 -1 118
-2 103 -17 -12 -12 -33 -16 -78 -15 -53 1 -61 -1 -51 -13 16 -19 -4 -25 -49
-15 -19 5 -42 6 -51 3 -9 -2 -23 1 -30 9 -17 16 -49 29 -49 19 0 -4 -47 -8
-105 -9 -86 -2 -105 0 -105 12 0 8 3 15 8 16 4 0 24 2 45 4 20 2 37 0 37 -5 0
-6 5 -10 11 -10 6 0 9 6 6 14 -7 19 35 24 123 14 36 -4 119 -7 185 -7z m9252
-108 c2 -26 8 -59 13 -73 5 -14 16 -61 25 -105 10 -44 23 -93 30 -110 20 -48
26 -83 15 -90 -5 -3 -10 -2 -10 3 0 14 -113 8 -118 -6 -11 -33 -22 8 -22 82 0
70 3 88 21 110 20 25 20 28 4 40 -15 11 -16 20 -5 92 7 43 14 90 17 103 7 37
25 10 30 -46z m-8168 -181 c3 -5 15 -6 26 -2 18 6 103 -4 113 -14 22 -22 -94
-29 -180 -10 -39 8 -91 -5 -85 -21 4 -8 -10 -17 -36 -25 -23 -6 -50 -16 -61
-22 -13 -7 -21 -6 -27 4 -7 10 -9 10 -9 1 0 -7 -7 -13 -16 -13 -14 0 -14 -3
-4 -15 11 -14 10 -14 -13 -6 -15 6 -57 9 -94 7 -38 -2 -57 0 -43 4 24 6 24 6
-9 13 -67 14 3 48 109 52 19 1 54 2 78 3 24 1 41 6 38 11 -21 34 191 67 213
33z m466 -22 c61 -6 119 -8 130 -6 14 4 23 -2 32 -21 14 -30 9 -43 -15 -42
-14 0 -13 2 3 9 12 5 -28 8 -101 8 -73 -1 -129 4 -142 11 -12 6 -22 9 -22 7 0
-3 -11 -1 -24 4 -13 4 -56 10 -96 12 -94 3 -101 17 -8 16 40 0 74 4 75 9 2 5
16 8 31 7 15 -2 77 -8 137 -14z m676 -42 c32 -30 39 -33 119 -36 47 -2 89 -8
94 -13 6 -5 -5 -8 -26 -7 -19 1 -40 -2 -46 -5 -25 -16 -148 -19 -192 -4 -25 8
-60 18 -77 22 -30 6 -48 35 -22 35 6 0 9 6 6 13 -3 8 6 12 27 11 17 -1 40 2
51 7 30 12 30 12 66 -23z m-976 -53 c72 -2 139 -6 150 -9 11 -2 44 -7 73 -11
56 -8 71 -30 28 -41 -31 -8 -77 -1 -76 11 2 13 -29 23 -74 24 -30 1 -37 -2
-32 -14 6 -16 -4 -18 -106 -15 -34 1 -74 10 -100 22 -36 18 -54 20 -123 14
-44 -3 -89 -8 -100 -11 -23 -6 -53 10 -41 22 5 4 11 2 13 -5 4 -10 8 -10 19
-1 19 15 107 26 179 22 33 -2 119 -5 190 -8z m8065 -115 c11 -7 6 -10 -21 -10
-35 0 -69 -23 -55 -37 4 -4 11 -1 16 7 8 13 10 12 10 -2 0 -11 7 -17 18 -16 9
1 37 0 62 0 l45 -2 24 -92 c23 -86 37 -125 52 -138 3 -3 9 -14 12 -25 7 -19 6
-19 -7 -2 -11 15 -31 17 -138 17 l-124 0 0 68 1 67 67 0 c37 0 70 3 73 7 14
14 -5 24 -48 26 -81 5 -102 15 -105 52 -3 26 0 32 12 27 9 -4 16 -2 16 4 0 5
-7 12 -15 15 -8 4 -15 15 -15 25 0 16 8 19 53 19 28 0 59 -5 67 -10z m188
-373 c3 -12 -3 -17 -21 -17 -13 0 -27 3 -31 7 -11 11 -36 12 -36 1 0 -6 -7 -8
-15 -4 -10 4 -15 -1 -15 -14 0 -11 7 -20 15 -20 8 0 15 -6 15 -12 0 -9 3 -8
10 2 8 12 10 12 16 -4 5 -14 9 -15 16 -4 6 8 11 9 14 2 2 -6 17 -9 32 -7 23 3
30 -2 44 -31 l17 -36 -24 -6 c-14 -3 -37 -4 -50 -2 -14 3 -25 2 -25 -1 0 -13
-75 1 -87 17 -11 13 -71 19 -101 10 -4 -2 -24 14 -44 34 -33 32 -36 41 -31 72
5 35 7 36 47 36 22 0 46 4 53 8 7 4 54 3 105 -3 75 -8 93 -13 96 -28z m-6066
-219 c35 -13 61 -14 153 -4 90 10 312 16 343 10 39 -8 43 -22 5 -18 -15 1 -31
-2 -34 -8 -4 -6 -18 -12 -31 -14 -12 -1 -23 -3 -23 -4 0 0 -74 -2 -165 -4 -91
-2 -178 -6 -193 -11 -21 -6 -27 -4 -25 6 2 8 -8 14 -26 15 -30 3 -92 29 -100
43 -8 12 54 5 96 -11z m5792 -39 c61 -2 67 -5 34 -19 -22 -8 -21 -9 7 -10 98
-3 138 -9 145 -20 5 -9 19 -11 40 -7 36 8 80 0 80 -14 0 -5 -6 -9 -14 -9 -7 0
-19 -7 -26 -15 -10 -12 -10 -18 1 -31 10 -13 10 -17 -2 -25 -8 -4 -21 -7 -29
-5 -19 5 -154 19 -159 16 -2 -1 -7 2 -10 7 -3 5 -17 14 -31 21 -14 7 -36 19
-50 27 -14 8 -33 16 -42 19 -13 4 -18 16 -18 41 0 20 4 34 9 31 5 -4 34 -7 65
-7z m-3424 -68 c162 5 209 4 216 -4 12 -12 1 -15 -63 -19 -54 -3 -62 -5 -57
-20 5 -16 -3 -18 -73 -19 -43 -1 -81 -1 -85 0 -5 0 -8 -6 -8 -14 0 -11 -11
-15 -39 -15 -22 0 -46 -3 -55 -6 -9 -3 -16 -1 -16 4 0 6 10 14 21 17 34 11 3
25 -56 25 -57 1 -117 19 -122 37 -5 15 50 20 172 16 50 -2 124 -3 165 -2z"/>
<path d="M5208 5715 c-3 -29 -1 -35 14 -35 14 0 18 -8 18 -37 1 -34 2 -36 14
-20 8 10 20 15 30 11 18 -7 22 -24 4 -24 -20 0 1 -13 23 -14 31 -1 34 -21 4
-22 -14 -1 -25 3 -26 10 0 6 -4 2 -9 -9 -7 -17 -9 -17 -9 -2 -1 9 -6 17 -12
17 -7 0 -9 -10 -5 -25 5 -18 3 -23 -8 -19 -8 3 -17 0 -21 -5 -3 -6 -11 -8 -17
-5 -7 4 -2 14 13 26 24 19 24 19 2 13 -27 -8 -31 10 -5 24 15 9 14 10 -7 8
-21 -1 -23 -5 -18 -46 3 -25 10 -47 16 -49 6 -2 8 -8 5 -14 -4 -7 -9 -6 -14 1
-3 7 -14 9 -23 5 -30 -11 -18 -21 28 -22 33 -1 43 2 39 12 -3 7 2 16 11 20 9
3 14 10 11 15 -9 14 18 31 42 24 22 -5 31 -23 11 -23 -5 0 -8 -4 -4 -9 3 -5
-5 -11 -17 -13 -12 -2 -23 -9 -24 -16 -1 -7 -1 -9 2 -4 2 4 20 6 39 4 30 -4
34 -2 28 13 -6 16 -2 17 27 11 19 -3 38 -12 42 -19 6 -9 10 -9 18 3 6 10 10
11 10 3 0 -7 7 -13 16 -13 14 0 14 3 4 15 -7 8 -21 15 -31 15 -11 0 -19 7 -19
15 0 24 22 42 45 37 15 -4 17 -2 9 8 -13 13 -54 5 -54 -11 0 -5 -4 -9 -10 -9
-5 0 -10 7 -10 15 0 8 -8 15 -18 15 -26 0 -34 11 -20 27 8 11 7 12 -5 7 -25
-9 -45 8 -21 18 15 6 13 7 -11 6 -55 -2 -67 1 -61 17 3 8 1 15 -4 15 -6 0 -10
11 -10 24 0 13 -6 29 -14 35 -11 9 -15 5 -18 -24z"/>
<path d="M2371 3921 c-17 -11 1 -23 23 -15 9 3 32 3 51 0 29 -6 35 -11 35 -31
0 -14 4 -25 9 -25 5 0 7 -9 4 -20 -6 -21 11 -28 22 -9 8 12 102 5 235 -16 94
-16 170 -17 170 -4 0 5 14 9 30 9 20 0 30 -5 30 -15 0 -9 9 -15 24 -15 14 0
27 -4 30 -8 3 -5 43 -9 89 -11 68 -1 86 1 91 14 3 8 14 15 25 15 10 0 21 7 25
15 4 11 -1 15 -19 15 -38 0 -39 0 -57 17 -10 9 -22 12 -30 7 -7 -4 -27 -7 -45
-5 -17 1 -41 -3 -53 -9 -11 -6 -26 -7 -33 -3 -6 4 -24 8 -39 8 -33 1 -47 12
-24 21 15 6 14 8 -6 18 -18 10 -28 9 -45 -2 -13 -8 -20 -18 -17 -23 3 -5 10
-7 15 -4 5 4 9 2 9 -3 0 -18 -32 -23 -61 -10 -16 7 -29 16 -29 21 0 4 -24 7
-52 6 -66 -2 -229 20 -246 34 -11 8 -11 12 0 18 8 5 -12 9 -47 9 -33 0 -69 3
-80 5 -11 3 -26 1 -34 -4z"/>
<path d="M4231 3312 c-12 -23 2 -32 47 -32 15 0 46 -9 69 -19 42 -20 92 -20
208 -3 39 6 51 12 53 27 3 11 1 17 -3 13 -5 -4 -13 -4 -20 2 -6 5 -81 10 -166
10 -84 1 -159 6 -166 12 -8 6 -15 3 -22 -10z"/>
<path d="M3168 2915 c-2 -2 -27 -5 -55 -6 -29 -1 -50 -6 -47 -11 3 -5 10 -6
15 -3 5 3 6 -2 2 -11 -5 -14 -2 -16 15 -12 12 4 22 2 22 -3 0 -5 44 -8 98 -8
94 1 158 -13 146 -32 -10 -17 27 -8 48 11 13 11 36 20 54 20 36 0 51 21 26 37
-10 5 -48 9 -87 8 -38 -1 -74 1 -80 4 -11 6 -151 11 -157 6z"/>
<path d="M12294 2628 c-3 -4 -15 -6 -28 -2 -26 6 -80 -12 -72 -25 9 -14 126
-32 201 -30 39 2 86 0 105 -3 53 -9 153 5 158 21 4 12 -9 13 -72 8 -64 -5 -77
-3 -86 11 -5 9 -10 13 -10 8 0 -4 -11 -1 -25 8 -19 13 -45 16 -96 15 -38 -1
-72 -6 -75 -11z"/>
<path d="M6568 2515 c-3 -3 -40 -6 -83 -7 -69 0 -75 -2 -61 -16 8 -9 37 -19
63 -23 26 -4 63 -10 80 -14 18 -3 57 -2 88 4 39 7 63 7 83 -1 29 -11 62 -12
127 -2 39 6 39 7 18 24 -16 12 -42 18 -91 19 -37 1 -84 6 -102 11 -37 11 -113
13 -122 5z"/>
<path d="M7915 2456 c-32 -23 2 -30 165 -33 85 -2 164 -4 175 -5 19 -1 78 6
138 18 31 6 36 20 10 27 -10 3 -120 5 -244 6 -171 0 -231 -3 -244 -13z"/>
<path d="M9808 2455 c-2 -3 -58 -7 -122 -10 -119 -6 -150 -16 -144 -47 2 -10
-28 -15 -120 -22 -82 -5 -122 -12 -119 -19 7 -21 70 -27 200 -21 114 6 127 8
127 25 0 23 18 35 32 21 8 -8 17 -8 30 -1 13 7 18 6 18 -2 0 -9 18 -10 68 -5
37 4 81 7 97 7 19 0 25 3 17 8 -17 10 51 31 80 23 14 -3 19 -2 14 6 -9 15 -1
15 24 2 11 -6 28 -6 42 -1 20 8 17 10 -26 16 -36 6 -50 4 -57 -6 -7 -11 -9
-11 -9 2 0 10 -12 19 -31 23 -38 7 -114 8 -121 1z"/>
<path d="M6492 2389 c-12 -5 -38 -9 -56 -11 -19 -1 -33 -5 -31 -9 3 -3 44 -5
92 -4 49 1 111 -2 138 -8 53 -11 117 -13 150 -5 11 3 34 2 52 -3 18 -4 36 -3
39 2 3 5 26 9 52 10 26 0 65 4 87 9 31 6 20 8 -48 5 -48 -1 -90 1 -93 6 -6 10
-117 10 -154 0 -21 -6 -82 -1 -180 13 -14 2 -35 0 -48 -5z"/>
<path d="M10043 2360 c-50 -24 -153 -37 -178 -23 -10 6 -28 7 -44 2 -14 -5
-38 -11 -53 -14 -16 -3 -28 -9 -28 -14 0 -14 133 -45 183 -43 9 0 49 8 87 18
47 11 92 15 135 12 43 -4 70 -2 81 7 10 7 25 10 34 8 10 -3 16 3 17 16 2 19
-4 21 -58 21 -42 0 -59 4 -59 13 0 21 -70 19 -117 -3z"/>
<path d="M8415 2343 c-11 -3 -26 -10 -32 -15 -7 -6 -24 -7 -40 -3 -30 9 -232
8 -458 -2 -77 -3 -186 -6 -242 -5 -57 0 -103 -4 -103 -8 0 -4 -17 -11 -37 -15
-21 -4 -51 -14 -68 -22 -26 -14 -192 -43 -248 -44 -14 0 -16 -3 -7 -13 8 -11
3 -15 -25 -20 -19 -4 -35 -11 -35 -15 0 -16 -31 -21 -168 -27 -154 -6 -212
-17 -212 -40 0 -8 5 -12 10 -9 6 4 56 7 113 7 56 0 136 6 177 14 62 11 115 17
236 26 6 1 20 14 30 29 14 22 30 30 64 35 25 4 54 8 65 11 40 8 201 20 223 17
13 -3 40 0 60 5 77 21 368 28 679 18 152 -5 184 -3 191 9 6 11 33 14 115 15
58 0 111 -2 116 -5 5 -4 12 -2 15 2 8 14 -124 42 -194 42 -51 0 -61 -3 -56
-15 8 -22 -14 -18 -40 6 -23 22 -89 33 -129 22z"/>
<path d="M6393 2310 c-6 -24 -19 -26 -31 -4 -12 21 -87 16 -87 -6 0 -8 -4 -19
-10 -23 -5 -4 25 -5 68 -3 44 3 77 1 77 -5 0 -5 50 -9 113 -10 61 0 106 -3 99
-6 -28 -11 24 -32 79 -33 47 0 61 4 85 27 26 24 39 28 147 36 82 7 117 14 117
22 0 20 -69 24 -80 6 -5 -9 -10 -11 -10 -6 0 9 -59 15 -125 13 -11 -1 -40 0
-65 1 -65 3 -122 3 -228 -1 -50 -1 -92 -1 -92 2 0 3 -12 7 -26 8 -19 1 -27 -4
-31 -18z"/>
<path d="M10320 2321 c-8 -6 -10 -11 -5 -11 6 0 3 -5 -5 -10 -12 -8 -11 -10 8
-10 13 0 22 -6 22 -16 0 -12 11 -15 53 -14 28 1 54 1 57 0 65 -21 131 -28 247
-25 140 4 179 10 187 30 8 21 -7 26 -56 17 -50 -10 -69 -6 -62 12 4 10 -7 11
-48 5 -81 -11 -173 -10 -205 3 -15 6 -44 12 -63 13 -19 2 -53 6 -75 9 -22 4
-47 2 -55 -3z"/>
<path d="M11896 2280 c-40 -7 -84 -28 -65 -31 2 0 13 -2 24 -4 11 -2 63 -4
115 -4 103 1 139 1 260 -3 63 -2 83 0 96 14 16 15 14 17 -27 23 -24 3 -73 5
-109 4 -36 -2 -105 0 -155 4 -49 3 -112 2 -139 -3z"/>
<path d="M5790 2121 c0 -19 56 -27 108 -15 12 2 22 1 21 -3 -5 -32 1 -34 154
-29 83 2 157 5 163 5 6 1 11 7 11 14 0 7 -14 12 -36 12 -20 0 -49 6 -65 13
-21 11 -47 13 -100 8 -91 -9 -97 -9 -183 -3 -40 3 -73 2 -73 -2z"/>
<path d="M12113 2004 c-55 -24 -62 -30 -40 -32 6 0 30 -5 52 -10 57 -13 245
-9 273 6 58 33 11 50 -148 57 -73 3 -92 0 -137 -21z"/>
<path d="M7669 1861 c-26 -20 -107 -33 -112 -17 -2 5 -15 5 -32 -2 -17 -6 -24
-11 -16 -11 8 -1 20 -9 27 -18 11 -15 28 -18 116 -16 100 1 210 10 256 19 32
6 28 34 -5 35 -16 1 -51 3 -79 4 -27 1 -60 7 -71 14 -31 16 -57 14 -84 -8z"/>
<path d="M16747 1785 c-70 -7 -130 -15 -133 -18 -3 -3 4 -11 16 -17 23 -12
198 -7 270 8 19 4 57 5 85 1 87 -13 142 -10 160 7 9 9 14 19 11 22 -11 10
-285 8 -409 -3z"/>
<path d="M10353 1751 c-24 -4 -45 -10 -49 -13 -16 -17 12 -25 78 -23 40 1 86
-2 103 -7 16 -4 51 -9 78 -9 35 -2 47 -6 43 -16 -3 -7 4 -15 17 -18 24 -6 228
-1 372 10 50 3 101 6 115 6 110 -2 317 -12 420 -21 148 -14 160 -13 194 0 46
17 18 31 -59 29 -59 -1 -81 3 -109 19 -19 11 -59 25 -88 30 -63 10 -208 0
-295 -20 -41 -10 -65 -12 -72 -5 -6 6 -28 6 -58 1 -64 -11 -73 -10 -116 11
-26 12 -49 15 -79 11 -144 -21 -230 -21 -279 -2 -47 19 -158 28 -216 17z"/>
<path d="M18775 1740 c-56 -6 -75 -15 -75 -35 0 -20 46 -26 221 -29 85 -2 182
-7 217 -11 l62 -8 0 27 c0 30 12 27 -160 31 -63 1 -137 9 -165 17 -30 8 -70
11 -100 8z"/>
<path d="M17440 1723 c-14 -3 -29 -8 -35 -13 -5 -4 -23 -11 -40 -16 -22 -7 14
-10 130 -14 199 -6 237 -3 233 18 -2 9 -14 19 -28 23 -28 8 -221 9 -260 2z"/>
<path d="M5468 1708 c-3 -9 -30 -13 -84 -14 -70 -1 -79 -3 -79 -20 0 -13 10
-20 35 -26 19 -4 42 -5 50 -3 8 2 43 6 77 10 34 3 73 9 87 14 13 6 33 7 45 4
29 -7 55 15 40 33 -15 19 -165 20 -171 2z"/>
<path d="M8477 1623 c-4 -4 -40 -8 -80 -10 -40 -2 -80 -3 -89 -4 -10 0 -20 -4
-22 -7 -5 -8 8 -11 74 -14 25 -1 47 -5 50 -9 9 -13 54 -13 120 0 51 10 93 10
200 1 74 -7 152 -14 174 -15 21 -2 57 5 78 14 36 15 39 18 24 31 -13 10 -74
14 -269 17 -139 2 -256 1 -260 -4z"/>
<path d="M12255 1613 c-25 -14 -98 -37 -143 -47 -23 -4 -13 -21 17 -27 18 -4
52 1 83 11 43 14 194 30 290 31 10 0 20 4 23 10 4 5 18 9 33 9 15 0 36 7 47
16 19 14 17 14 -20 10 -56 -8 -225 -9 -266 -2 -22 4 -44 0 -64 -11z"/>
<path d="M17360 1571 c-102 -7 -163 -28 -138 -49 16 -13 461 -25 505 -13 15 4
28 14 28 22 0 11 -21 14 -105 15 -71 1 -119 7 -149 18 -24 9 -44 15 -45 14 0
-1 -44 -4 -96 -7z"/>
<path d="M10636 1561 c-4 -6 -4 -15 -1 -21 3 -5 0 -10 -7 -11 -74 -4 -138 -19
-138 -33 0 -19 73 -28 185 -25 84 3 133 2 283 -3 72 -2 169 6 178 15 4 4 -1 7
-12 7 -20 1 -76 29 -59 30 6 0 4 4 -3 9 -17 10 -140 14 -187 5 -22 -4 -35 -12
-35 -22 0 -13 -3 -12 -15 4 -10 12 -13 14 -10 3 5 -13 -4 -16 -52 -17 -75 -2
-113 6 -113 24 0 9 5 12 10 9 6 -4 39 -7 74 -9 59 -2 64 0 55 16 -5 10 -20 18
-33 18 -13 0 -43 3 -68 6 -29 4 -48 2 -52 -5z"/>
<path d="M15830 1473 c-40 -17 -177 -20 -194 -3 -15 15 -59 12 -82 -5 -10 -8
-37 -15 -59 -15 -28 0 -46 -6 -58 -20 -16 -19 -16 -20 6 -20 12 0 42 -7 66
-16 36 -12 54 -13 97 -4 40 8 84 8 165 0 61 -6 139 -8 173 -5 48 4 229 11 413
15 12 0 29 7 38 16 22 23 4 34 -55 34 -25 0 -63 5 -85 9 -22 5 -113 12 -203
16 -89 3 -168 8 -175 10 -6 2 -28 -4 -47 -12z"/>
<path d="M11720 1463 c-8 -3 -39 -14 -67 -25 -29 -11 -53 -23 -53 -28 0 -8 94
-16 242 -21 69 -2 125 13 125 35 0 6 -8 13 -18 13 -10 1 -46 9 -80 17 -61 16
-121 19 -149 9z"/>
<path d="M17530 1412 c0 -4 -8 -8 -17 -9 -10 -1 -43 -5 -73 -10 -32 -5 -92 -5
-146 1 -98 10 -150 2 -104 -15 13 -6 72 -12 130 -14 58 -1 125 -8 150 -14 51
-11 182 -13 220 -2 18 5 24 13 22 27 -6 30 -22 35 -94 31 -38 -2 -68 0 -68 5
0 4 -4 8 -10 8 -5 0 -10 -4 -10 -8z"/>
<path d="M6500 1383 c0 -14 15 -30 38 -42 l24 -13 -23 -24 c-37 -39 -14 -46
139 -40 95 4 143 1 170 -8 20 -7 43 -11 50 -9 6 3 12 0 12 -6 0 -6 -11 -11
-24 -11 -34 0 -41 -27 -10 -34 14 -4 29 -4 35 -1 5 4 51 7 103 8 71 2 92 -1
89 -10 -4 -10 9 -13 47 -13 46 0 55 -4 86 -36 19 -20 34 -45 34 -56 0 -21 11
-27 60 -29 56 -3 90 0 90 9 0 4 -19 15 -43 25 l-42 19 37 13 c34 13 184 21
270 15 20 -1 56 1 80 5 l43 8 -40 14 c-22 7 -46 11 -53 8 -8 -3 -20 -1 -26 3
-17 14 -65 24 -126 28 -36 2 -58 8 -66 19 -7 9 -15 16 -18 15 -22 -5 -126 29
-126 41 0 17 -393 29 -458 14 -20 -5 -37 -3 -46 5 -17 13 -61 16 -93 6 -29 -9
-100 10 -111 31 -6 10 -16 14 -26 10 -10 -4 -22 2 -32 18 -15 23 -44 35 -44
18z"/>
<path d="M9776 1363 c-1 -1 -33 -3 -71 -4 -39 -2 -86 -8 -105 -15 l-35 -12 28
-7 c15 -4 45 -4 65 0 20 4 48 7 62 7 33 0 120 -24 120 -32 0 -12 128 -12 135
1 6 8 10 8 15 -2 8 -12 166 -16 179 -4 13 14 -29 25 -89 23 -78 -3 -145 8
-176 29 -18 12 -119 25 -128 16z"/>
<path d="M8415 1332 c8 -27 4 -29 -108 -37 -107 -7 -119 -11 -112 -36 4 -11 3
-19 -2 -18 -4 1 -14 1 -22 0 -21 -2 -8 -11 23 -17 21 -4 26 -1 26 16 0 12 3
19 8 17 7 -4 119 7 177 18 67 13 166 17 178 7 14 -11 61 -15 165 -13 57 1 72
4 72 16 0 8 -7 16 -15 16 -8 1 -27 3 -42 5 -16 1 -62 5 -103 7 -41 3 -86 8
-100 11 -60 14 -120 15 -120 3 0 -6 -8 -3 -16 8 -16 20 -16 20 -9 -3z"/>
<path d="M17915 1329 c-70 -12 -157 -29 -178 -36 -31 -8 -1 -31 56 -41 124
-23 195 -27 244 -15 76 20 230 16 305 -7 70 -22 88 -24 88 -11 0 5 -25 19 -55
31 -30 12 -55 29 -55 36 0 9 -11 14 -27 14 -16 0 -61 9 -102 20 -79 21 -187
25 -276 9z"/>
<path d="M12645 1300 c-22 -5 -79 -8 -126 -9 -47 0 -93 -3 -102 -7 -60 -23 49
-44 226 -44 138 1 147 2 147 20 0 46 -49 59 -145 40z"/>
<path d="M17876 1157 c-19 -14 -19 -14 0 -24 10 -6 45 -13 77 -16 32 -3 64
-10 70 -16 7 -5 61 -11 120 -13 86 -2 110 0 117 12 16 26 -74 46 -305 66 -44
4 -65 2 -79 -9z"/>
<path d="M9325 1150 c-22 -4 -43 -6 -47 -3 -5 2 -8 0 -8 -6 0 -34 239 -48 430
-25 25 3 50 6 57 6 8 1 8 25 -1 29 -14 6 -402 5 -431 -1z"/>
<path d="M9900 1034 c12 -13 11 -17 -1 -25 -8 -5 -10 -9 -4 -9 5 0 -1 -7 -13
-16 -19 -13 -28 -14 -60 -3 -20 7 -47 12 -59 11 -13 -1 -23 3 -23 8 0 6 -5 10
-11 10 -5 0 -7 -4 -4 -10 3 -5 -3 -10 -15 -10 -13 0 -20 -5 -18 -12 5 -15 83
-26 212 -31 109 -4 131 0 115 19 -8 10 -8 14 0 14 18 0 13 28 -6 34 -10 3 -35
6 -55 8 -21 1 -38 5 -38 9 0 4 -7 10 -16 13 -14 6 -15 4 -4 -10z"/>
<path d="M8206 1021 c-59 -36 -14 -55 125 -53 47 1 96 5 108 10 21 7 17 11
-38 36 -69 31 -151 34 -195 7z"/>
<path d="M16607 951 c-10 -4 -13 -11 -8 -19 5 -9 47 -17 122 -23 63 -6 127
-14 143 -20 16 -5 39 -9 50 -9 24 0 76 21 76 31 0 3 -34 9 -76 12 -41 3 -81
11 -89 17 -7 6 -30 10 -51 9 -22 0 -64 1 -94 3 -31 3 -63 2 -73 -1z"/>
<path d="M10940 929 c-35 -14 -85 -68 -74 -79 5 -5 42 -14 83 -20 40 -5 82
-15 93 -21 27 -14 136 -15 150 -1 19 19 -3 32 -55 32 -29 0 -65 7 -82 16 -16
9 -43 20 -60 23 -34 8 -37 24 -5 31 12 3 21 10 21 15 0 14 -41 16 -71 4z"/>
<path d="M11783 857 c2 -7 9 -12 16 -12 6 0 15 -5 19 -11 4 -6 23 -10 42 -9
19 2 41 -1 48 -7 6 -6 12 -8 12 -5 0 3 12 -5 26 -18 17 -16 39 -25 59 -25 34
0 61 22 50 40 -3 6 3 10 17 10 36 0 69 12 66 22 -2 6 -55 12 -118 14 -63 2
-143 5 -178 8 -47 4 -62 2 -59 -7z"/>
<path d="M18680 840 c-85 -18 -90 -20 -90 -40 0 -27 26 -31 160 -22 115 7 275
1 215 -8 -22 -4 -31 -11 -33 -27 -3 -20 1 -23 35 -23 71 0 112 24 63 37 -11 3
-20 10 -20 15 0 10 72 -1 80 -12 3 -4 29 -9 58 -12 l52 -5 0 33 c0 30 -3 34
-27 34 -16 0 -46 5 -68 12 -22 6 -74 12 -115 13 -41 1 -118 5 -170 8 -52 3
-115 2 -140 -3z"/>
<path d="M11459 780 c-9 -5 -53 -11 -97 -13 -44 -3 -85 -8 -91 -12 -7 -3 -50
-6 -96 -6 -92 1 -115 -4 -115 -24 0 -20 18 -23 136 -25 60 -1 123 -3 139 -4
17 -1 39 4 50 10 29 18 155 35 175 24 9 -5 34 -11 56 -13 21 -3 59 -12 83 -21
41 -15 75 -15 159 0 17 4 32 10 32 16 0 5 4 6 10 3 6 -3 7 1 4 9 -3 9 -10 13
-15 10 -5 -3 -9 0 -9 6 0 6 -17 10 -37 10 -70 -1 -238 17 -266 29 -34 13 -96
14 -118 1z"/>
<path d="M7390 770 c0 -6 14 -17 30 -24 17 -7 27 -15 23 -19 -3 -4 5 -7 18 -7
13 0 47 -7 74 -16 48 -14 151 -17 222 -7 29 5 31 7 17 20 -11 12 -18 13 -27 4
-8 -8 -21 -4 -51 13 -35 20 -55 24 -131 25 -50 1 -106 5 -125 11 -44 13 -50
13 -50 0z"/>
<path d="M17690 707 c-19 -7 -36 -19 -38 -28 -4 -22 48 -40 85 -30 27 8 71 -4
84 -23 8 -10 77 -1 158 20 65 17 66 17 44 36 -11 9 -57 20 -121 27 -126 14
-167 13 -212 -2z"/>
<path d="M8267 684 c-55 -11 -86 -24 -58 -24 7 0 10 -4 7 -8 -3 -5 20 -15 52
-23 62 -15 405 -20 455 -6 38 10 29 30 -19 42 -21 6 -45 14 -51 18 -8 5 -13 3
-13 -6 0 -13 -21 -14 -132 -10 -82 3 -135 9 -140 15 -9 15 -32 16 -101 2z"/>
<path d="M12140 694 c0 -6 -21 -10 -48 -11 -51 0 -72 -7 -72 -24 0 -7 12 -8
31 -4 17 4 42 2 57 -4 15 -5 74 -12 132 -15 58 -2 118 -9 133 -15 29 -11 157
-16 157 -5 0 22 -39 38 -130 53 -25 4 -52 11 -60 16 -22 14 -100 13 -142 -1
-33 -11 -39 -11 -47 4 -6 9 -11 12 -11 6z"/>
<path d="M9955 670 c-16 -4 -58 -8 -92 -9 -63 -1 -77 -8 -64 -29 5 -8 39 -11
105 -9 82 2 99 -1 101 -13 2 -11 -6 -17 -23 -18 -38 -3 -48 -18 -23 -32 18 -9
30 -8 61 7 22 10 38 23 36 28 -2 6 -9 9 -15 8 -6 -2 -11 2 -11 8 0 7 8 9 23 4
12 -4 41 -7 65 -6 30 1 41 -2 40 -11 -2 -10 16 -14 67 -15 39 -1 64 1 57 4 -7
3 -17 15 -22 27 -6 17 -22 26 -66 35 -108 25 -194 32 -239 21z"/>
<path d="M9218 645 c-2 -3 -24 -6 -48 -9 -26 -2 -46 -9 -48 -17 -3 -8 -2 -11
2 -7 4 3 22 2 39 -3 18 -6 43 -12 57 -15 14 -2 39 -12 57 -21 29 -16 41 -16
120 -3 178 27 232 27 366 -6 21 -5 27 -3 27 9 0 25 -20 31 -108 33 -46 1 -86
5 -89 8 -3 3 0 13 8 22 13 16 10 17 -31 10 -48 -8 -328 -9 -340 -1 -4 2 -9 2
-12 0z"/>
<path d="M19046 454 c-9 -23 -2 -27 44 -28 22 0 40 -3 40 -6 0 -3 -12 -16 -26
-30 -24 -22 -34 -24 -113 -23 -79 1 -86 2 -89 22 -2 12 -8 21 -13 21 -13 0
-11 -27 2 -36 21 -12 -33 -33 -87 -34 -27 0 -84 -8 -125 -19 -148 -37 -244
-48 -364 -42 -53 2 -57 4 -30 12 17 5 55 11 85 14 89 10 110 16 110 32 0 13
-16 14 -112 10 -120 -6 -286 -21 -364 -33 l-47 -7 5 33 5 32 -46 -6 c-25 -3
-70 -9 -99 -12 -54 -7 -66 -24 -22 -30 31 -4 50 -9 70 -17 13 -5 173 -37 187
-37 2 0 2 -4 -2 -9 -3 -5 -30 -15 -61 -21 -31 -7 -64 -20 -75 -31 -10 -10 -25
-19 -33 -19 -28 0 -85 -44 -86 -67 0 -19 -6 -21 -46 -21 -26 0 -51 -5 -57 -11
-6 -6 -18 -11 -27 -11 -18 -1 -54 -47 -41 -54 4 -3 35 -1 67 4 78 13 76 13 69
-10 -6 -20 -2 -20 714 -20 l721 0 0 229 0 228 -37 7 c-68 11 -110 7 -117 -10z"/>
<path d="M16835 348 c-49 -18 -120 -74 -117 -91 2 -15 -11 -16 -123 -13 -86 2
-130 7 -138 16 -10 10 -3 12 33 7 58 -7 115 4 115 23 0 24 -65 50 -125 50
-100 -1 -200 -31 -200 -60 0 -15 16 -22 78 -36 42 -10 79 -21 82 -24 3 -3 21
-14 42 -23 63 -29 276 -21 388 16 53 17 55 24 16 38 -49 18 -45 36 9 50 26 7
45 17 45 25 0 8 6 15 13 15 16 2 -43 17 -68 17 -11 0 -33 -4 -50 -10z"/>
<path d="M17005 247 c-17 -5 -36 -22 -43 -36 -11 -23 -10 -28 10 -44 17 -14
31 -17 58 -11 19 3 67 8 105 9 39 2 86 8 105 14 19 6 61 11 93 11 50 0 60 3
64 20 3 11 10 20 16 20 7 0 8 3 1 10 -6 6 -30 6 -67 0 -91 -15 -159 -13 -206
4 -48 18 -90 19 -136 3z"/>
<path d="M11035 83 c-55 -10 -65 -15 -76 -34 -7 -13 -7 -19 -1 -15 6 3 13 2
17 -3 3 -6 11 -8 19 -5 7 3 33 0 57 -6 24 -6 150 -13 280 -16 l236 -6 25 25
25 24 -26 3 c-67 5 -114 1 -121 -10 -4 -7 -16 -9 -28 -6 -11 4 -23 2 -27 -4
-8 -12 -119 -5 -158 9 -12 5 -48 11 -79 15 -32 4 -60 12 -64 17 -3 5 -9 7 -14
4 -5 -3 -18 -2 -27 3 -10 5 -27 7 -38 5z"/>
</g>
</svg>
