<?xml version="1.0" standalone="no"?>
<!DOCTYPE svg PUBLIC "-//W3C//DTD SVG 20010904//EN"
 "http://www.w3.org/TR/2001/REC-SVG-20010904/DTD/svg10.dtd">
<svg version="1.0" xmlns="http://www.w3.org/2000/svg"
 width="1280.000000pt" height="720.000000pt" viewBox="0 0 1280.000000 720.000000"
 preserveAspectRatio="xMidYMid meet">
<metadata>
Created by potrace 1.13, written by Peter Selinger 2001-2015
</metadata>
<g transform="translate(0.000000,720.000000) scale(0.100000,-0.100000)"
fill="#000000" stroke="none">
<path d="M1210 6425 c-12 -19 -26 -35 -31 -35 -5 0 -9 -9 -9 -21 0 -11 -4 -18
-8 -15 -5 3 -16 -4 -25 -15 -9 -10 -24 -19 -32 -19 -21 0 -62 -43 -47 -48 17
-5 15 -28 -4 -47 -15 -15 -15 -17 0 -28 16 -12 15 -14 -6 -34 -13 -11 -40 -30
-61 -42 -35 -20 -38 -20 -44 -4 -4 10 -11 21 -17 25 -6 4 -11 15 -11 25 0 25
-40 29 -63 7 -9 -10 -18 -29 -19 -42 -3 -31 -17 -41 -57 -39 -26 2 -31 6 -32
27 -1 28 -37 105 -55 116 -15 9 -39 -23 -39 -53 0 -13 -4 -23 -10 -23 -5 0
-10 -9 -10 -21 0 -17 -5 -20 -22 -16 -13 3 -47 9 -75 13 -29 3 -53 10 -53 15
0 16 -25 9 -40 -11 -16 -22 -28 -24 -50 -10 -12 8 -13 12 -2 19 10 6 7 10 -13
15 -19 5 -25 11 -20 25 3 10 -3 29 -15 44 -11 14 -23 39 -26 55 -4 21 -11 29
-20 25 -8 -3 -17 3 -21 13 -11 30 -24 34 -108 33 -62 -1 -86 -6 -108 -21 -15
-11 -34 -17 -42 -14 -13 5 -15 -384 -15 -3159 l0 -3165 6400 0 6400 0 0 1060
0 1060 -40 0 c-33 0 -40 3 -40 20 0 16 -7 20 -34 20 -33 0 -35 2 -39 38 l-4
37 -1 -37 c-2 -37 -3 -38 -42 -38 -33 0 -40 3 -40 20 0 17 -7 20 -46 20 -27 0
-43 4 -39 10 3 5 -3 10 -14 10 -12 0 -21 -4 -21 -10 0 -5 -9 -10 -20 -10 -13
0 -20 -7 -20 -20 0 -19 -7 -20 -120 -20 l-120 0 0 40 0 40 -82 2 c-46 1 -64 3
-40 5 34 3 42 8 42 24 0 16 -7 19 -40 19 -22 0 -40 -4 -40 -10 0 -5 -18 -10
-40 -10 -29 0 -40 -4 -40 -15 0 -11 -11 -15 -40 -15 -33 0 -40 3 -40 20 0 17
-7 20 -40 20 -29 0 -40 -4 -40 -15 0 -11 -11 -15 -40 -15 -29 0 -40 4 -40 15
0 12 -18 15 -101 15 -55 0 -144 5 -196 12 -75 9 -98 9 -101 0 -5 -16 -27 -15
-53 1 -17 10 -23 10 -26 0 -3 -8 -22 -13 -44 -13 -32 0 -39 3 -39 20 0 17 -7
20 -40 20 -29 0 -40 -4 -40 -15 0 -12 -20 -15 -120 -15 -113 0 -120 1 -120 20
0 17 -7 20 -40 20 -29 0 -40 -4 -40 -15 0 -17 -25 -20 -35 -5 -8 13 -125 13
-125 0 0 -5 -18 -10 -40 -10 -22 0 -40 5 -40 11 0 7 -39 9 -117 8 -84 -2 -118
0 -121 9 -2 7 -21 12 -43 12 -21 0 -39 5 -39 10 0 6 -13 10 -29 10 -17 0 -33
5 -36 10 -4 6 -21 8 -39 4 -21 -3 -38 -1 -47 8 -8 7 -30 14 -49 16 -19 1 -37
7 -40 11 -3 5 -39 20 -80 34 -41 14 -111 40 -155 58 -101 40 -271 106 -400
154 -55 21 -124 48 -154 61 -29 13 -61 24 -70 24 -9 0 -21 4 -27 9 -19 19
-294 122 -361 136 -18 4 -33 11 -33 16 0 5 -7 9 -16 9 -8 0 -48 13 -87 28 -40
16 -85 33 -102 39 -57 21 -220 85 -289 114 -38 16 -72 29 -77 29 -5 0 -34 12
-66 26 -31 15 -68 27 -81 27 -12 0 -20 2 -17 5 3 3 -30 18 -72 33 -121 41
-148 52 -153 59 -3 4 -27 13 -55 20 -27 7 -78 26 -112 42 -34 15 -67 28 -75
28 -7 0 -42 15 -78 33 l-65 32 -8 220 c-4 121 -10 226 -12 233 -3 8 -17 12
-37 10 l-33 -3 4 -207 c4 -238 10 -225 -87 -184 -31 13 -72 27 -89 31 -39 8
-47 19 -48 65 -1 19 -2 110 -3 203 l-2 167 -30 0 -30 0 0 -188 c0 -104 -2
-191 -5 -194 -6 -5 -60 10 -150 42 l-50 18 -3 196 -2 197 -33 -3 -32 -3 -3
-172 c-2 -129 -6 -173 -15 -173 -6 0 -31 9 -54 20 l-43 19 0 180 c0 172 -1
180 -20 186 -43 14 -49 -7 -52 -169 -2 -105 -6 -150 -14 -149 -67 12 -66 13
-77 -16 l-10 -28 -299 -6 -299 -6 -55 25 c-71 32 -88 29 -92 -17 -2 -29 1 -37
23 -49 23 -12 25 -19 27 -82 0 -37 1 -74 2 -80 1 -7 -11 -19 -26 -26 -23 -11
-28 -20 -28 -50 0 -44 8 -57 38 -66 20 -7 22 -14 22 -74 0 -86 -8 -112 -35
-122 -15 -6 -28 -25 -39 -57 l-16 -48 47 -47 c28 -27 57 -47 71 -48 12 0 22
-4 22 -8 0 -8 101 -62 115 -62 4 0 18 -9 32 -20 14 -11 32 -20 40 -20 7 0 27
-10 43 -22 22 -16 27 -24 18 -30 -8 -5 -4 -7 12 -6 16 2 24 -2 23 -9 -2 -7 0
-12 5 -12 18 3 20 -3 7 -27 -13 -26 -11 -54 5 -54 18 0 20 19 3 23 -17 4 -17
5 0 6 24 1 32 -23 18 -58 -9 -21 -19 -28 -40 -29 -17 0 -40 -12 -56 -28 l-27
-27 -119 6 c-76 5 -119 3 -119 -3 0 -6 -18 -10 -40 -10 -22 0 -40 -4 -40 -10
0 -5 -18 -10 -40 -10 -29 0 -40 -4 -40 -15 0 -12 -13 -15 -57 -15 -49 0 -54 2
-39 13 15 11 5 13 -63 14 -46 1 -81 -2 -81 -7 0 -6 -7 -10 -15 -10 -9 0 -27
-7 -40 -16 -24 -15 -25 -15 -25 4 0 11 6 23 13 25 6 3 -12 6 -40 6 -37 1 -53
-3 -53 -12 0 -9 -12 -11 -40 -9 -38 4 -45 10 -41 40 1 8 -12 12 -39 12 -38 0
-54 -13 -27 -23 6 -3 -12 -6 -40 -6 l-53 -1 0 40 0 40 40 0 c33 0 40 3 40 20
0 17 -7 20 -40 20 -22 0 -40 -3 -40 -7 0 -9 -49 -33 -67 -33 -7 0 -13 -7 -13
-15 0 -11 -11 -15 -41 -15 -34 0 -41 3 -37 18 4 15 -1 17 -39 13 -34 -2 -43 0
-43 13 0 12 -10 16 -40 16 -29 0 -40 -4 -40 -15 0 -11 11 -15 40 -15 33 0 40
-3 40 -20 0 -17 -7 -20 -40 -20 -33 0 -40 -3 -40 -20 0 -17 -7 -20 -40 -20
-39 0 -40 0 -40 37 l0 37 -38 -37 c-31 -31 -45 -37 -80 -37 l-42 0 -1 68 c0
37 -3 60 -6 52 -4 -8 -12 -21 -19 -28 -11 -11 -17 -10 -36 8 -12 11 -27 18
-33 15 -5 -3 -18 -8 -27 -11 -10 -4 -18 -10 -18 -15 0 -5 -4 -9 -10 -9 -5 0
-10 9 -10 20 0 17 -7 20 -40 20 -33 0 -40 -3 -40 -20 0 -18 -7 -20 -80 -20
-73 0 -80 -2 -80 -20 0 -17 -7 -20 -40 -20 -33 0 -40 -3 -40 -20 0 -17 -7 -20
-40 -20 l-40 0 0 40 0 40 -40 0 c-33 0 -40 -3 -40 -20 0 -17 -7 -20 -40 -20
-33 0 -40 3 -40 20 0 17 -7 20 -40 20 -33 0 -40 -3 -40 -20 0 -17 -7 -20 -40
-20 -33 0 -40 -3 -40 -20 0 -11 -4 -20 -10 -20 -12 0 -14 76 -2 83 4 2 1 2 -6
0 -8 -1 -20 -3 -28 -3 -10 0 -14 -12 -14 -40 0 -22 -4 -40 -10 -40 -5 0 -10
25 -10 55 l0 55 -80 0 c-64 0 -80 -3 -80 -15 0 -13 -23 -15 -144 -15 -119 0
-145 -3 -150 -15 -12 -33 -26 -12 -26 40 0 48 -2 55 -20 55 -11 0 -20 -4 -20
-8 0 -14 -48 -32 -85 -32 -19 0 -35 5 -35 10 0 6 -18 10 -40 10 -22 0 -40 5
-40 10 0 6 -18 10 -40 10 -38 0 -40 2 -40 31 0 30 0 30 -50 27 -28 -2 -49 -6
-48 -9 5 -11 -34 -49 -49 -49 -8 0 -13 12 -13 30 0 28 -2 30 -40 30 -22 0 -40
5 -40 10 0 21 -31 8 -70 -30 -45 -45 -57 -48 -76 -22 -13 16 -13 16 -14 0 0
-14 -9 -18 -40 -18 -33 0 -40 3 -40 20 0 19 -7 20 -130 20 -80 0 -130 4 -130
10 0 6 -30 10 -70 10 -40 0 -70 4 -70 10 0 6 -18 10 -39 10 -33 0 -40 -4 -44
-22 -3 -13 -3 2 -1 32 1 30 -2 60 -7 67 -8 9 1 15 33 24 l43 13 -35 6 -35 6
50 8 c28 5 54 11 59 14 16 9 -18 21 -49 16 -20 -3 -14 2 19 14 58 22 68 37 29
47 -27 8 -27 8 17 20 30 9 37 13 21 14 -18 1 -21 4 -12 14 6 8 9 16 6 19 -3 2
6 11 20 18 23 12 23 14 7 26 -15 11 -13 14 20 28 67 28 91 19 68 -25 -10 -17
-7 -19 29 -19 22 0 57 9 77 20 20 12 41 19 48 17 6 -2 -2 -11 -18 -19 -19 -10
-25 -18 -17 -22 18 -11 70 4 80 23 8 15 63 40 96 44 17 2 33 21 28 34 -3 8 7
15 26 19 44 9 49 24 9 25 l-33 1 35 13 c19 7 45 14 58 14 29 1 64 32 44 39 -9
3 -6 8 10 16 19 10 23 18 20 54 -3 41 -3 42 25 36 23 -4 30 -1 39 20 7 16 8
28 2 34 -16 16 1 68 38 116 34 45 43 83 24 102 -16 16 -3 36 37 62 49 31 88
39 96 18 14 -36 47 -11 47 35 0 10 11 29 25 41 19 16 25 32 25 60 0 21 7 55
16 76 29 67 33 91 22 123 -8 23 -7 41 2 69 12 36 11 42 -14 83 -14 25 -21 47
-16 49 6 2 12 21 15 43 2 22 7 49 10 60 4 14 -2 29 -18 47 l-24 26 34 16 c18
9 40 16 48 16 8 0 15 5 15 10 0 6 -4 10 -10 10 -18 0 -50 44 -50 68 0 20 4 23
21 19 14 -4 30 3 49 21 23 23 29 37 33 89 3 35 1 66 -4 69 -5 3 -9 14 -9 25 0
10 -6 19 -12 19 -9 0 -8 4 2 10 10 6 11 10 3 10 -8 0 -13 15 -13 40 0 22 -5
40 -10 40 -6 0 -28 19 -50 41 -47 49 -53 89 -17 121 15 13 18 21 10 24 -7 3
-13 12 -13 19 0 7 -7 15 -15 19 -21 8 -19 23 5 31 19 6 19 8 5 36 -9 16 -13
34 -10 39 3 5 1 11 -5 15 -5 3 -15 -6 -20 -20 -5 -14 -14 -24 -19 -21 -15 10
-22 69 -9 77 8 5 5 17 -13 43 -13 20 -26 36 -29 36 -3 0 -13 -12 -21 -27 -16
-26 -17 -26 -28 -5 -7 13 -17 18 -30 15 -13 -3 -23 2 -31 16 -6 12 -15 19 -20
16 -5 -3 -12 -1 -15 5 -4 6 -15 8 -25 5 -29 -9 -60 12 -60 40 0 16 6 25 15 25
8 0 15 -7 15 -15 0 -29 19 -15 29 22 8 28 7 39 -2 45 -19 12 -37 9 -37 -7 0
-8 -4 -15 -10 -15 -15 0 -12 58 3 63 9 3 9 7 -2 20 -9 11 -10 17 -2 17 6 0 11
-4 11 -9 0 -5 9 -7 20 -4 49 13 -4 78 -61 75 -12 0 -20 14 -28 57 -10 52 -36
91 -60 91 -4 0 -12 19 -18 43 -6 27 -14 41 -23 39 -66 -15 -66 -15 -83 21 -11
23 -23 34 -35 33 -9 -2 -17 -8 -17 -14 0 -7 -4 -13 -10 -14 -5 -2 -10 6 -10
17 0 11 -6 19 -13 17 -7 -1 -12 5 -10 15 2 12 -4 19 -19 21 -25 4 -30 -7 -11
-26 6 -6 8 -15 4 -19 -4 -5 -13 -1 -19 7 -7 8 -28 15 -47 15 -19 0 -47 4 -61
8 -21 5 -28 2 -39 -18 -9 -17 -17 -22 -24 -15 -5 5 -21 10 -35 10 -50 0 -72
11 -66 31 4 11 2 19 -5 19 -8 0 -9 10 -5 30 4 17 2 30 -3 30 -5 0 -12 10 -16
23 -4 16 -19 28 -54 40 -27 10 -55 17 -63 15 -9 -2 -13 4 -11 15 2 10 -3 17
-13 17 -9 0 -15 6 -14 13 1 6 1 17 0 24 -1 17 -53 63 -71 64 -10 0 -11 2 -2 6
20 8 14 41 -10 54 -13 7 -38 28 -55 48 -26 28 -35 33 -42 22 -7 -11 -13 -11
-32 3 -13 9 -42 16 -65 16 -38 0 -45 -4 -64 -35z m4901 -3092 c47 -37 48 -40
49 -90 l0 -53 -44 0 c-25 0 -47 4 -51 9 -9 15 -19 171 -11 171 5 0 30 -17 57
-37z m-5121 -383 l-25 -20 38 0 c40 0 51 -16 15 -23 -16 -3 -13 -5 10 -6 22
-1 31 -5 26 -12 -3 -6 6 -22 22 -35 27 -22 28 -23 7 -24 -12 0 -28 -7 -37 -15
-11 -11 -35 -15 -93 -13 -46 1 -61 3 -35 5 41 4 61 23 23 23 -10 0 -46 3 -80
6 -58 7 -61 6 -61 -15 0 -22 -14 -28 -25 -11 -3 6 -11 10 -16 10 -6 0 -7 -4
-4 -10 3 -5 -3 -10 -14 -10 -23 0 -28 15 -8 23 6 3 -3 3 -21 0 -25 -4 -41 0
-64 17 -27 20 -39 22 -115 18 -46 -2 -86 -1 -89 4 -11 17 41 47 81 47 31 0 36
-2 20 -9 -11 -5 -15 -9 -8 -9 6 -1 18 -4 26 -7 9 -3 16 3 20 15 3 11 0 19 -5
18 -6 -1 -13 4 -15 11 -3 7 4 12 16 12 28 0 72 -21 65 -31 -3 -5 0 -9 5 -9 6
0 11 -7 11 -15 0 -8 11 -21 23 -30 19 -12 30 -13 56 -4 19 7 30 16 27 24 -3
10 16 12 91 8 75 -5 94 -3 88 7 -6 9 -1 10 16 5 22 -6 23 -6 6 7 -22 16 -15
41 16 56 33 16 35 14 7 -8z"/>
<path d="M11415 5769 c4 -5 -1 -9 -10 -9 -8 0 -18 -7 -21 -15 -4 -8 -12 -15
-20 -15 -8 0 -14 -5 -14 -11 0 -6 -8 -8 -19 -4 -18 5 -51 -17 -51 -35 0 -5 -3
-16 -6 -24 -5 -12 -2 -15 10 -10 9 3 13 10 10 15 -3 5 2 12 11 16 10 3 21 0
25 -7 5 -8 9 -9 14 -1 10 16 56 14 56 -3 0 -7 -8 -24 -19 -37 -10 -13 -16 -30
-14 -36 3 -7 0 -13 -6 -13 -6 0 -11 6 -11 14 0 26 -37 25 -49 0 -6 -13 -15
-24 -21 -24 -5 0 -10 -10 -10 -22 0 -41 -15 -52 -39 -32 -26 22 -27 38 -3 61
24 24 22 56 -3 63 -13 3 -20 13 -19 28 1 12 -3 25 -7 28 -5 3 -9 15 -9 27 0
20 0 20 -15 1 -8 -10 -14 -26 -15 -34 0 -13 1 -13 10 0 8 12 10 12 16 -3 3
-10 4 -20 1 -24 -4 -3 0 -21 8 -40 15 -34 8 -74 -14 -88 -6 -3 -11 -15 -11
-26 0 -10 -4 -19 -10 -19 -5 0 -10 -11 -10 -25 0 -14 -5 -25 -11 -25 -7 0 -9
12 -5 36 6 30 4 38 -19 56 -14 11 -24 27 -21 34 3 8 1 14 -4 14 -22 0 -31 39
-15 69 21 41 19 48 -12 47 -25 -1 -28 -5 -28 -36 0 -26 -5 -36 -20 -41 -14 -3
-20 -14 -20 -32 1 -19 -4 -27 -17 -27 -11 0 -18 7 -18 19 0 10 -9 21 -20 24
-15 4 -20 0 -20 -14 0 -10 4 -19 10 -19 6 0 5 -10 -2 -26 -10 -20 -9 -27 2
-34 8 -5 11 -12 8 -16 -4 -3 -18 3 -33 14 -22 17 -30 19 -63 9 -20 -6 -41 -16
-45 -22 -5 -5 -5 0 -2 12 5 19 3 22 -12 17 -11 -4 -14 -3 -7 3 6 4 15 26 20
48 8 33 14 41 37 43 15 2 27 10 27 17 0 11 -8 13 -30 9 -24 -5 -30 -3 -30 11
0 9 -9 30 -21 46 -15 22 -24 27 -33 20 -7 -6 -16 -8 -19 -4 -7 7 -10 -10 -8
-39 2 -12 -5 -18 -18 -18 -11 0 -26 -8 -33 -18 -7 -10 -24 -18 -38 -17 -26 1
-95 34 -72 35 6 0 12 4 12 9 0 4 -12 6 -27 3 -31 -5 -73 -39 -73 -58 0 -18
-27 -37 -35 -24 -3 5 -13 10 -22 10 -12 0 -14 -7 -9 -32 3 -17 13 -39 21 -48
17 -19 20 -46 5 -55 -5 -3 -10 1 -10 9 0 25 -22 66 -36 66 -18 0 -27 -17 -17
-32 15 -25 12 -48 -7 -60 -11 -7 -20 -19 -20 -27 0 -9 -7 -11 -22 -7 -13 3
-27 6 -31 6 -5 0 -7 10 -5 23 2 17 8 21 27 19 30 -5 19 15 -16 29 -15 5 -23
15 -20 23 7 17 -6 37 -25 40 -9 1 -22 7 -29 13 -23 18 -67 24 -108 14 -26 -6
-43 -5 -50 2 -8 8 -11 6 -11 -6 0 -9 -6 -17 -14 -17 -7 0 -19 -15 -26 -32 -8
-18 -19 -40 -25 -48 -14 -18 -17 -58 -5 -65 5 -3 5 -18 0 -35 -13 -45 -19 -51
-38 -41 -12 7 -22 5 -35 -7 -16 -14 -19 -14 -27 -2 -8 12 -10 10 -10 -7 0 -27
-15 -30 -28 -6 -11 19 -78 25 -104 9 -13 -8 -21 -7 -30 2 -17 17 -28 15 -29
-5 0 -16 -1 -16 -8 1 -7 18 -8 18 -14 2 -4 -10 -7 -37 -7 -60 0 -23 -5 -47
-12 -54 -9 -9 -7 -16 7 -32 15 -17 16 -24 5 -50 -10 -24 -10 -33 0 -45 11 -13
8 -15 -13 -15 -14 0 -31 -8 -37 -17 -10 -16 -11 -16 -5 2 4 11 8 25 9 32 1 7
5 16 9 19 13 13 7 24 -13 24 -22 0 -28 25 -7 33 8 4 8 8 2 14 -16 13 -35 51
-35 71 0 28 -26 58 -76 86 -53 29 -89 33 -98 11 -3 -9 -19 -21 -36 -27 -23 -7
-29 -15 -25 -28 3 -9 -1 -22 -8 -29 -11 -9 -20 -6 -41 10 -14 11 -26 27 -26
36 0 11 -7 14 -25 11 -13 -3 -26 -1 -28 5 -1 5 -21 10 -44 11 -43 1 -83 -24
-83 -51 0 -7 -7 -16 -16 -20 -14 -5 -13 -8 6 -23 21 -15 21 -18 7 -51 -8 -19
-24 -43 -36 -53 -16 -15 -18 -22 -10 -33 9 -10 8 -13 -5 -13 -9 0 -16 -4 -16
-10 0 -5 4 -10 10 -10 20 0 -2 -28 -26 -33 -17 -3 -28 1 -35 14 -5 11 -16 19
-24 19 -25 0 -65 23 -65 38 0 7 9 16 20 19 13 4 20 14 20 30 0 18 4 23 14 20
8 -3 21 2 30 12 20 22 21 52 2 45 -8 -3 -17 0 -22 7 -5 9 -10 7 -15 -7 -7 -18
-8 -18 -15 4 -4 16 -12 21 -24 17 -23 -7 -50 23 -30 35 9 5 4 8 -14 7 -19 -2
-29 -9 -33 -25 -5 -21 -10 -23 -37 -17 -41 9 -171 9 -218 0 -30 -6 -38 -12
-38 -29 0 -16 -10 -25 -36 -35 -19 -7 -48 -26 -65 -42 -16 -16 -37 -29 -45
-29 -8 0 -13 -4 -10 -9 3 -5 -1 -14 -9 -21 -10 -8 -13 -26 -10 -59 2 -26 -2
-60 -10 -76 -7 -17 -22 -52 -33 -80 -21 -50 -42 -71 -42 -40 0 9 -5 13 -11 9
-6 -3 -9 -17 -6 -31 3 -15 -1 -27 -9 -30 -9 -3 -14 -21 -14 -50 0 -40 -3 -45
-32 -58 -25 -11 -28 -14 -12 -15 11 0 29 -7 40 -15 10 -8 28 -15 39 -16 17 -1
17 -2 3 -6 -36 -9 -17 -23 32 -23 28 0 50 -4 50 -10 0 -5 -8 -10 -17 -10 -11
0 -14 -3 -7 -8 6 -4 14 -17 18 -29 4 -11 19 -29 33 -39 25 -16 27 -16 42 2 11
12 29 19 54 19 36 0 37 -1 37 -37 0 -20 -4 -40 -10 -43 -5 -3 -10 -15 -10 -26
0 -10 -6 -19 -14 -19 -8 0 -17 -14 -21 -32 -4 -18 -12 -39 -17 -45 -7 -9 -7
-18 1 -27 10 -12 8 -21 -6 -42 -10 -16 -13 -25 -7 -21 7 4 14 -1 17 -13 5 -21
63 -60 88 -60 9 0 22 -7 29 -15 7 -8 22 -15 34 -15 12 0 26 -4 32 -9 5 -6 25
-6 53 0 41 9 46 8 68 -16 25 -27 39 -30 63 -16 10 7 19 2 33 -22 l19 -31 28
32 c15 18 35 32 44 32 9 0 28 7 41 16 26 17 24 44 -4 44 -22 0 -61 41 -61 63
0 11 8 17 24 17 20 0 25 6 31 38 9 53 25 76 25 36 0 -25 12 -43 65 -93 70 -66
85 -100 67 -148 -6 -16 -13 -40 -16 -55 -6 -25 -3 -28 19 -28 18 0 25 -5 25
-19 0 -19 18 -31 45 -31 19 0 83 63 125 122 34 49 50 53 50 13 0 -13 5 -27 11
-30 6 -4 9 -21 8 -39 -5 -76 -2 -84 38 -88 38 -5 51 3 129 78 42 41 76 122 72
175 -2 34 1 50 12 57 19 12 35 -5 57 -55 19 -47 13 -100 -23 -176 -14 -32 -23
-61 -20 -64 9 -9 56 -10 56 -1 0 4 18 8 40 8 22 0 40 -4 40 -9 0 -17 33 -21
54 -8 13 9 31 11 47 7 24 -7 69 16 69 35 0 3 7 14 16 22 14 14 15 13 9 -20
-10 -53 2 -93 43 -135 70 -73 147 -90 246 -55 l48 18 -4 52 c-3 29 -2 53 2 53
4 0 36 -27 71 -61 47 -44 72 -61 95 -63 36 -3 84 -42 84 -69 0 -25 24 -31 53
-13 13 9 32 14 41 10 12 -5 15 -2 10 10 -4 11 0 16 12 17 18 0 17 1 -1 9 -16
7 -13 9 18 9 20 1 37 -3 37 -9 0 -5 -5 -10 -12 -10 -6 0 -3 -7 8 -15 10 -8 15
-15 9 -15 -5 0 -3 -5 5 -10 16 -10 20 -41 7 -51 -5 -3 4 -14 19 -24 27 -18 28
-18 50 11 13 15 21 30 19 32 -2 3 2 14 10 26 19 27 19 47 -2 91 -15 31 -15 37
-3 45 8 6 22 7 30 4 8 -4 29 -7 47 -8 40 -2 42 -4 52 -57 5 -24 9 -36 10 -26
1 14 6 17 22 12 16 -5 20 -3 17 11 -4 25 22 30 29 5 3 -12 12 -21 19 -21 19 0
18 -67 -1 -113 -21 -51 -19 -59 10 -45 13 6 22 14 20 18 -2 3 5 22 17 40 11
19 21 46 23 60 6 72 19 147 27 163 12 23 28 22 28 -3 0 -27 22 -73 42 -88 19
-14 22 -55 9 -101 -8 -31 -31 -40 -31 -12 0 15 -6 21 -21 21 -16 0 -20 -5 -16
-20 3 -11 1 -23 -4 -26 -5 -3 -9 -14 -9 -25 0 -18 2 -18 23 -4 13 8 26 13 29
10 2 -3 19 12 36 34 31 38 31 39 21 106 -6 36 -8 70 -4 73 4 4 17 -5 29 -20
12 -16 32 -28 44 -28 14 0 27 -9 34 -25 11 -25 28 -34 28 -14 0 6 8 9 17 7 24
-4 32 -115 8 -124 -8 -3 -15 -12 -15 -19 0 -7 -4 -15 -9 -17 -5 -1 -6 -18 -4
-35 5 -32 7 -33 52 -31 36 1 39 2 14 5 -39 5 -44 23 -7 23 28 0 84 29 84 43 0
5 16 33 36 63 26 38 40 52 47 45 12 -12 37 4 37 25 0 7 9 20 21 28 12 8 24 29
28 48 8 39 33 48 62 22 14 -12 39 -18 94 -19 55 -2 81 -7 95 -20 28 -25 57
-11 64 30 8 41 12 42 43 13 l23 -22 -6 31 c-3 17 -2 39 4 48 8 15 11 13 23
-14 8 -17 17 -31 21 -31 5 0 8 -6 8 -14 0 -7 7 -19 15 -26 9 -7 13 -20 10 -28
-4 -10 0 -12 11 -8 8 3 18 6 20 6 2 0 4 16 4 35 0 42 20 47 40 10 7 -13 21
-27 32 -31 10 -3 18 -10 18 -15 0 -14 26 -10 40 6 9 11 22 14 41 10 20 -5 31
-1 41 14 8 12 17 18 21 15 3 -3 10 4 16 15 13 24 33 19 71 -16 14 -13 31 -23
39 -23 8 0 22 -7 31 -15 14 -12 21 -13 43 -2 27 12 37 49 18 62 -10 5 4 62 19
78 4 5 22 1 39 -7 24 -13 31 -13 32 -4 1 7 2 18 3 23 0 6 18 38 39 73 l37 63
0 629 -1 628 -24 6 c-18 5 -25 13 -25 31 0 14 5 25 10 25 17 0 11 21 -12 40
-21 17 -23 17 -49 -2 -27 -20 -49 -18 -49 5 0 7 -6 24 -14 38 -8 15 -12 44 -9
69 3 32 0 46 -11 52 -9 5 -16 18 -16 28 0 15 -7 20 -24 20 -29 0 -41 -15 -41
-52 0 -16 -4 -28 -10 -29 -5 0 -16 -5 -22 -11 -10 -8 -13 -5 -13 10 0 11 6 23
13 25 7 3 5 6 -5 6 -18 1 -20 -7 -22 -79 -1 -29 -5 -30 -68 -10 -44 13 -48 17
-48 45 0 17 6 37 13 44 10 11 9 13 -6 7 -10 -3 -21 -6 -23 -6 -2 0 -4 -6 -4
-12 0 -7 -12 -21 -25 -31 -24 -17 -25 -17 -25 1 0 12 9 22 21 25 12 3 18 10
14 17 -5 8 -11 7 -22 -2 -12 -10 -18 -9 -29 6 -7 11 -28 20 -48 21 -34 3 -35
2 -29 -26 5 -29 5 -30 -23 -23 -16 4 -37 14 -47 22 -21 19 -32 10 -19 -15 5
-10 8 -36 7 -58 -2 -22 -3 -50 -4 -61 -1 -13 -9 -24 -21 -27 -11 -3 -17 -1
-14 4 3 5 -2 12 -10 15 -9 3 -16 15 -16 26 0 16 -5 19 -25 14 -21 -5 -27 -1
-45 33 -11 22 -25 43 -31 47 -17 10 -39 -24 -39 -60 -1 -28 -2 -29 -14 -14
-12 16 -14 16 -29 0 -15 -15 -17 -15 -17 0 0 8 -14 21 -31 28 -26 11 -32 11
-40 -1 -8 -12 -10 -12 -18 0 -5 7 -10 9 -12 3 -2 -5 -14 -13 -26 -16 -17 -6
-23 -3 -23 8 0 9 -3 15 -7 15 -22 -4 -33 3 -33 20 0 11 5 23 10 26 6 3 10 14
9 23 0 11 -3 12 -6 5 -2 -7 -9 -13 -15 -13 -6 0 -8 7 -4 15 4 12 -2 14 -37 10
-40 -4 -41 -4 -22 11 14 11 16 18 8 21 -7 3 -13 11 -13 19 0 9 -5 12 -10 9 -6
-4 -8 -11 -5 -16 4 -5 1 -9 -4 -9 -6 0 -11 7 -11 15 0 9 -6 15 -12 14 -7 -1
-22 -1 -32 0 -19 1 -19 1 -1 15 18 13 18 14 -1 39 -17 24 -112 68 -99 46z"/>
</g>
</svg>
